<?xml version='1.0' encoding='utf-8'?>
<svg xmlns="http://www.w3.org/2000/svg" fill="currentColor" height="24" viewBox="0 0 24 24" width="24">
<path clip-rule="evenodd" d="M5.16146 2L5.64281 2C6.72659 1.99999 7.60075 1.99998 8.30863 2.05782C9.03748 2.11737 9.67766 2.24318 10.27 2.54497C10.9535 2.89326 11.5442 3.39228 12 3.99999C12.4558 3.39228 13.0465 2.89326 13.73 2.54497C14.3223 2.24318 14.9625 2.11737 15.6914 2.05782C16.3993 1.99998 17.2734 1.99999 18.3572 2L18.8385 2C19.3657 1.99998 19.8205 1.99997 20.195 2.03057C20.5904 2.06287 20.9836 2.13419 21.362 2.32698C21.9265 2.6146 22.3854 3.07354 22.673 3.63803C22.8658 4.01641 22.9371 4.40963 22.9694 4.80497C23 5.17954 23 5.6343 23 6.16143V14.8386C23 15.3657 23 15.8205 22.9694 16.195C22.9371 16.5904 22.8658 16.9836 22.673 17.362C22.3854 17.9265 21.9265 18.3854 21.362 18.673C20.9836 18.8658 20.5904 18.9371 20.195 18.9694C19.8205 19 19.3657 19 18.8386 19H17.4252C16.1106 19 15.6617 19.0102 15.269 19.1295C14.8916 19.2441 14.5405 19.4319 14.2359 19.6824C13.9188 19.943 13.6613 20.3108 12.9321 21.4046L12.8321 21.5547C12.6466 21.8329 12.3344 22 12 22C11.6656 22 11.3534 21.8329 11.168 21.5547L11.0679 21.4046C10.3387 20.3108 10.0812 19.943 9.76414 19.6824C9.45946 19.4319 9.10839 19.2441 8.73102 19.1295C8.3383 19.0102 7.88938 19 6.57483 19H5.16144C4.6343 19 4.17954 19 3.80497 18.9694C3.40963 18.9371 3.01641 18.8658 2.63803 18.673C2.07354 18.3854 1.6146 17.9265 1.32698 17.362C1.13419 16.9836 1.06287 16.5904 1.03057 16.195C0.999967 15.8205 0.999983 15.3657 1 14.8385V6.16146C0.999983 5.63431 0.999967 5.17955 1.03057 4.80497C1.06287 4.40963 1.13419 4.01641 1.32698 3.63803C1.6146 3.07354 2.07354 2.6146 2.63803 2.32698C3.01641 2.13419 3.40963 2.06287 3.80497 2.03057C4.17955 1.99997 4.63431 1.99998 5.16146 2ZM11 9.4C11 8.2634 10.9992 7.47108 10.9488 6.85424C10.8994 6.24907 10.8072 5.90139 10.673 5.63803C10.3854 5.07354 9.92646 4.6146 9.36197 4.32698C9.09862 4.1928 8.75093 4.10062 8.14576 4.05118C7.52892 4.00078 6.73661 4 5.6 4H5.2C4.62345 4 4.25117 4.00078 3.96784 4.02393C3.69617 4.04612 3.59546 4.0838 3.54601 4.109C3.35785 4.20487 3.20487 4.35785 3.109 4.54601C3.0838 4.59546 3.04612 4.69617 3.02393 4.96784C3.00078 5.25117 3 5.62345 3 6.2V14.8C3 15.3766 3.00078 15.7488 3.02393 16.0322C3.04612 16.3038 3.0838 16.4045 3.109 16.454C3.20487 16.6422 3.35785 16.7951 3.54601 16.891C3.59546 16.9162 3.69617 16.9539 3.96784 16.9761C4.25117 16.9992 4.62345 17 5.2 17H6.57483C6.62469 17 6.67388 17 6.72242 17C7.83207 16.9996 8.59938 16.9993 9.31219 17.2158C9.92713 17.4025 10.5002 17.706 11 18.1095V9.4ZM13 18.1095C13.4998 17.706 14.0729 17.4025 14.6878 17.2158C15.4006 16.9993 16.1679 16.9996 17.2776 17C17.3261 17 17.3753 17 17.4252 17H18.8C19.3766 17 19.7488 16.9992 20.0322 16.9761C20.3038 16.9539 20.4046 16.9162 20.454 16.891C20.6422 16.7951 20.7951 16.6422 20.891 16.454C20.9162 16.4045 20.9539 16.3038 20.9761 16.0322C20.9992 15.7488 21 15.3766 21 14.8V6.2C21 5.62345 20.9992 5.25117 20.9761 4.96784C20.9539 4.69617 20.9162 4.59546 20.891 4.54601C20.7951 4.35785 20.6422 4.20487 20.454 4.109C20.4046 4.0838 20.3038 4.04612 20.0322 4.02393C19.7488 4.00078 19.3766 4 18.8 4H18.4C17.2634 4 16.4711 4.00078 15.8542 4.05118C15.2491 4.10062 14.9014 4.1928 14.638 4.32698C14.0735 4.6146 13.6146 5.07354 13.327 5.63803C13.1928 5.90139 13.1006 6.24907 13.0512 6.85424C13.0008 7.47108 13 8.2634 13 9.4V18.1095Z" fill="currentColor" fill-rule="evenodd" />
</svg>