<?xml version='1.0' encoding='utf-8'?>
<svg xmlns="http://www.w3.org/2000/svg" fill="currentColor" height="24" viewBox="0 0 24 24" width="24">
<path clip-rule="evenodd" d="M11.1615 1H18.8385C19.3657 0.999983 19.8205 0.999967 20.195 1.03057C20.5904 1.06287 20.9836 1.13419 21.362 1.32698C21.9265 1.6146 22.3854 2.07355 22.673 2.63803C22.8658 3.01641 22.9371 3.40963 22.9694 3.80497C23 4.17954 23 4.6343 23 5.16144V12.8386C23 13.3657 23 13.8205 22.9694 14.195C22.9371 14.5904 22.8658 14.9836 22.673 15.362C22.3854 15.9265 21.9265 16.3854 21.362 16.673C20.9836 16.8658 20.5904 16.9371 20.195 16.9694C19.8205 17 19.3657 17 18.8385 17H17V18.8385C17 19.3657 17 19.8205 16.9694 20.195C16.9371 20.5904 16.8658 20.9836 16.673 21.362C16.3854 21.9265 15.9265 22.3854 15.362 22.673C14.9836 22.8658 14.5904 22.9371 14.195 22.9694C13.8205 23 13.3657 23 12.8386 23H5.16144C4.6343 23 4.17954 23 3.80497 22.9694C3.40963 22.9371 3.01641 22.8658 2.63803 22.673C2.07354 22.3854 1.6146 21.9265 1.32698 21.362C1.13419 20.9836 1.06287 20.5904 1.03057 20.195C0.999967 19.8205 0.999983 19.3657 1 18.8385V11.1615C0.999983 10.6343 0.999967 10.1795 1.03057 9.80497C1.06287 9.40963 1.13419 9.01641 1.32698 8.63803C1.6146 8.07354 2.07354 7.6146 2.63803 7.32698C3.01641 7.13419 3.40963 7.06287 3.80497 7.03057C4.17955 6.99997 4.63431 6.99998 5.16146 7L7 7L7 5.16146C6.99998 4.63431 6.99997 4.17955 7.03057 3.80497C7.06287 3.40963 7.13419 3.01641 7.32698 2.63803C7.6146 2.07354 8.07354 1.6146 8.63803 1.32698C9.01641 1.13419 9.40963 1.06287 9.80497 1.03057C10.1795 0.999967 10.6343 0.999983 11.1615 1ZM5.2 9C4.62345 9 4.25118 9.00078 3.96784 9.02393C3.69617 9.04612 3.59546 9.0838 3.54601 9.109C3.35785 9.20487 3.20487 9.35785 3.109 9.54601C3.0838 9.59546 3.04612 9.69617 3.02393 9.96784C3.00078 10.2512 3 10.6234 3 11.2V18.8C3 19.3766 3.00078 19.7488 3.02393 20.0322C3.04612 20.3038 3.0838 20.4046 3.109 20.454C3.20487 20.6422 3.35785 20.7951 3.54601 20.891C3.59546 20.9162 3.69617 20.9539 3.96784 20.9761C4.25117 20.9992 4.62345 21 5.2 21H12.8C13.3766 21 13.7488 20.9992 14.0322 20.9761C14.3038 20.9539 14.4045 20.9162 14.454 20.891C14.6422 20.7951 14.7951 20.6422 14.891 20.454C14.9162 20.4046 14.9539 20.3038 14.9761 20.0322C14.9992 19.7488 15 19.3766 15 18.8V11.2C15 10.6234 14.9992 10.2512 14.9761 9.96784C14.9539 9.69617 14.9162 9.59546 14.891 9.54601C14.7951 9.35785 14.6422 9.20487 14.454 9.109C14.4045 9.0838 14.3038 9.04612 14.0322 9.02393C13.7488 9.00078 13.3766 9 12.8 9H5.2ZM17 15V11.1615C17 10.6343 17 10.1796 16.9694 9.80497C16.9371 9.40963 16.8658 9.01641 16.673 8.63803C16.3854 8.07354 15.9265 7.6146 15.362 7.32698C14.9836 7.13419 14.5904 7.06287 14.195 7.03057C13.8205 6.99997 13.3657 6.99998 12.8385 7L9 7V5.2C9 4.62345 9.00078 4.25118 9.02393 3.96784C9.04612 3.69617 9.0838 3.59546 9.109 3.54601C9.20487 3.35785 9.35785 3.20487 9.54601 3.109C9.59546 3.0838 9.69617 3.04612 9.96784 3.02393C10.2512 3.00078 10.6234 3 11.2 3H18.8C19.3766 3 19.7488 3.00078 20.0322 3.02393C20.3038 3.04612 20.4046 3.0838 20.454 3.109C20.6422 3.20487 20.7951 3.35785 20.891 3.54601C20.9162 3.59546 20.9539 3.69617 20.9761 3.96784C20.9992 4.25118 21 4.62345 21 5.2V12.8C21 13.3766 20.9992 13.7488 20.9761 14.0322C20.9539 14.3038 20.9162 14.4045 20.891 14.454C20.7951 14.6422 20.6422 14.7951 20.454 14.891C20.4046 14.9162 20.3038 14.9539 20.0322 14.9761C19.7488 14.9992 19.3766 15 18.8 15H17Z" fill="currentColor" fill-rule="evenodd" />
</svg>