<?xml version='1.0' encoding='utf-8'?>
<svg xmlns="http://www.w3.org/2000/svg" fill="currentColor" height="24" viewBox="0 0 24 24" width="24">
<path clip-rule="evenodd" d="M7.34729 1.99985C7.35742 1.99993 7.36644 2 7.37424 2H9.97619C9.99162 1.99964 10.0071 1.99963 10.0226 2H13.9765C13.992 1.99963 14.0075 1.99964 14.0229 2H16.6248C16.6326 2 16.6417 1.99993 16.6518 1.99985C16.7504 1.99909 16.9544 1.99751 17.1551 2.0515C17.3247 2.09714 17.485 2.17222 17.6286 2.27332C17.7986 2.39293 17.928 2.55062 17.9905 2.62687C17.9969 2.63471 18.0026 2.64168 18.0076 2.64767L22.3538 7.86307C22.4181 7.94016 22.4971 8.03483 22.5611 8.12457C22.6368 8.23064 22.733 8.3847 22.7911 8.5885C22.8679 8.85747 22.8679 9.14253 22.7911 9.41149C22.733 9.61529 22.6368 9.76935 22.5611 9.87542C22.4971 9.96516 22.4181 10.0598 22.3538 10.1369L13.3655 20.923C13.2751 21.0314 13.1708 21.1567 13.0707 21.2576C12.958 21.3712 12.7773 21.5317 12.5145 21.6278C12.1819 21.7494 11.8171 21.7494 11.4846 21.6278C11.2217 21.5317 11.0411 21.3712 10.9284 21.2576C10.8283 21.1567 10.7239 21.0314 10.6336 20.923L1.6581 10.1523C1.65389 10.1473 1.6496 10.1421 1.64525 10.1369C1.58095 10.0598 1.50201 9.96515 1.43796 9.87542C1.36225 9.76935 1.26608 9.61529 1.20794 9.41149C1.13121 9.14253 1.13121 8.85746 1.20794 8.5885C1.26608 8.3847 1.36225 8.23064 1.43796 8.12457C1.50201 8.03483 1.58097 7.94016 1.64526 7.86307C1.64961 7.85785 1.6539 7.85271 1.65811 7.84766L5.99144 2.64767C5.99643 2.64168 6.00215 2.6347 6.00858 2.62687C6.07112 2.55062 6.20048 2.39293 6.37044 2.27332C6.5141 2.17222 6.67439 2.09714 6.84402 2.0515C7.04472 1.99751 7.24867 1.99909 7.34729 1.99985ZM13.2788 4H10.7203L9.38696 8H14.6121L13.2788 4ZM16.7203 8L15.387 4H16.5312L19.8645 8H16.7203ZM14.5929 10L11.9995 17.456L9.40613 10H14.5929ZM7.27878 8L8.61211 4H7.46791L4.13458 8H7.27878ZM4.13458 10H7.2886L9.54819 16.4963L4.13458 10ZM14.4509 16.4963L16.7105 10H19.8645L14.4509 16.4963ZM7.6005 3.84225C7.60061 3.84213 7.60062 3.84212 7.6005 3.84225V3.84225ZM7.26187 4.00086C7.26169 4.00087 7.2617 4.00087 7.26187 4.00086V4.00086ZM16.7372 4.00087C16.7374 4.00087 16.7374 4.00087 16.7372 4.00087V4.00087ZM16.3986 3.84227C16.3985 3.84214 16.3985 3.84214 16.3986 3.84227V3.84227Z" fill="currentColor" fill-rule="evenodd" />
</svg>