<?xml version='1.0' encoding='utf-8'?>
<svg xmlns="http://www.w3.org/2000/svg" fill="currentColor" height="24" viewBox="0 0 24 24" width="24">
<path clip-rule="evenodd" d="M12.4028 1.18492C12.137 1.13025 11.8628 1.13025 11.597 1.18492C11.2897 1.24812 11.0151 1.40195 10.7967 1.52424L10.7372 1.55749L7.02601 3.61927C7.01754 3.62381 7.00913 3.62849 7.00078 3.63329L3.33721 5.6686L3.27407 5.70347C3.04294 5.83078 2.75232 5.99085 2.52915 6.23303C2.3362 6.44241 2.19017 6.69057 2.10085 6.96093C1.99753 7.27363 1.99874 7.60541 1.9997 7.86928L1.99988 7.94141V16.0585L1.9997 16.1306C1.99874 16.3945 1.99753 16.7263 2.10085 17.039C2.19018 17.3094 2.3362 17.5575 2.52915 17.7669C2.75233 18.0091 3.04295 18.1691 3.27408 18.2965L3.33721 18.3313L10.7372 22.4424L10.7967 22.4757C11.0151 22.598 11.2897 22.7518 11.597 22.815C11.8628 22.8697 12.137 22.8697 12.4028 22.815C12.71 22.7518 12.9847 22.598 13.203 22.4757L13.203 22.4757L13.2626 22.4424L20.6626 18.3313L20.7257 18.2964C20.9568 18.1691 21.2474 18.0091 21.4706 17.7669C21.6636 17.5575 21.8096 17.3094 21.8989 17.039C22.0022 16.7263 22.001 16.3945 22.0001 16.1306L21.9999 16.0585V7.94141L22.0001 7.86928C22.001 7.6054 22.0022 7.27363 21.8989 6.96092C21.8096 6.69057 21.6636 6.44241 21.4706 6.23303C21.2474 5.99085 20.9568 5.83078 20.7257 5.70347L20.6626 5.6686L13.2626 1.55749L13.203 1.52424C12.9847 1.40195 12.7101 1.24812 12.4028 1.18492ZM7.49985 5.64394L5.05902 6.99996L11.9999 10.856L14.4407 9.49996L7.49985 5.64394ZM16.9684 10.3836C16.9805 10.3772 16.9924 10.3706 17.0042 10.3637L19.9999 8.69943V16.0585C19.9999 16.2415 19.9995 16.3351 19.9954 16.403L19.995 16.4087L19.9902 16.4118C19.9329 16.4483 19.8512 16.4941 19.6913 16.583L12.9999 20.3005L12.9999 12.5883L16.9684 10.3836ZM16.4998 8.356L9.55897 4.49998L11.7085 3.3058C11.86 3.22161 11.9374 3.17907 11.9951 3.15124L11.9999 3.14895L12.0047 3.15124C12.0624 3.17907 12.1397 3.22161 12.2913 3.3058L18.9407 6.99994L16.4998 8.356ZM3.99988 8.69947L10.9999 12.5883L10.9999 20.3004L4.3085 16.583C4.14854 16.4941 4.06688 16.4483 4.00958 16.4118L4.00474 16.4087L4.00438 16.403C4.0003 16.3351 3.99988 16.2415 3.99988 16.0585V8.69947Z" fill="currentColor" fill-rule="evenodd" />
</svg>