<?xml version='1.0' encoding='utf-8'?>
<svg xmlns="http://www.w3.org/2000/svg" fill="currentColor" height="24" viewBox="0 0 24 24" width="24">
<path clip-rule="evenodd" d="M7.7587 2H16.2413C17.0463 1.99999 17.7106 1.99998 18.2518 2.04419C18.8139 2.09012 19.3306 2.18868 19.816 2.43597C20.5686 2.81947 21.1805 3.43139 21.564 4.18404C21.8113 4.66937 21.9099 5.18608 21.9558 5.74817C22 6.28936 22 6.95372 22 7.75868V16.2413C22 17.0463 22 17.7106 21.9558 18.2518C21.9099 18.8139 21.8113 19.3306 21.564 19.816C21.1805 20.5686 20.5686 21.1805 19.816 21.564C19.3306 21.8113 18.8139 21.9099 18.2518 21.9558C17.7106 22 17.0463 22 16.2413 22H7.75868C6.95372 22 6.28936 22 5.74817 21.9558C5.18608 21.9099 4.66937 21.8113 4.18404 21.564C3.43139 21.1805 2.81947 20.5686 2.43597 19.816C2.18868 19.3306 2.09012 18.8139 2.04419 18.2518C1.99998 17.7106 1.99999 17.0463 2 16.2413V7.7587C1.99999 6.95373 1.99998 6.28937 2.04419 5.74817C2.09012 5.18608 2.18868 4.66937 2.43597 4.18404C2.81947 3.43139 3.43139 2.81947 4.18404 2.43597C4.66937 2.18868 5.18608 2.09012 5.74817 2.04419C6.28937 1.99998 6.95373 1.99999 7.7587 2ZM5.91104 4.03755C5.47262 4.07337 5.24842 4.1383 5.09202 4.21799C4.7157 4.40973 4.40973 4.7157 4.21799 5.09202C4.1383 5.24842 4.07337 5.47262 4.03755 5.91104C4.00078 6.36113 4 6.94342 4 7.8V16.2C4 17.0566 4.00078 17.6389 4.03755 18.089C4.07337 18.5274 4.1383 18.7516 4.21799 18.908C4.40973 19.2843 4.7157 19.5903 5.09202 19.782C5.24842 19.8617 5.47262 19.9266 5.91104 19.9624C6.36113 19.9992 6.94342 20 7.8 20H16.2C17.0566 20 17.6389 19.9992 18.089 19.9624C18.5274 19.9266 18.7516 19.8617 18.908 19.782C19.2843 19.5903 19.5903 19.2843 19.782 18.908C19.8617 18.7516 19.9266 18.5274 19.9624 18.089C19.9992 17.6389 20 17.0566 20 16.2V7.8C20 6.94342 19.9992 6.36113 19.9624 5.91104C19.9266 5.47262 19.8617 5.24842 19.782 5.09202C19.5903 4.7157 19.2843 4.40973 18.908 4.21799C18.7516 4.1383 18.5274 4.07337 18.089 4.03755C17.6389 4.00078 17.0566 4 16.2 4H7.8C6.94342 4 6.36113 4.00078 5.91104 4.03755ZM11.2451 7.43304C11.2545 7.43911 11.264 7.44517 11.2734 7.45121L15.994 10.4859C16.0026 10.4914 16.0113 10.497 16.02 10.5026C16.171 10.5996 16.3361 10.7057 16.4676 10.8083C16.6071 10.917 16.8273 11.1089 16.9571 11.4162C17.1148 11.7894 17.1148 12.2106 16.9571 12.5838C16.8273 12.8911 16.6071 13.083 16.4676 13.1917C16.3361 13.2943 16.171 13.4004 16.02 13.4974C16.0112 13.503 16.0026 13.5086 15.994 13.5141L11.2734 16.5488C11.264 16.5548 11.2545 16.5609 11.2451 16.567C11.0694 16.68 10.8846 16.7988 10.7219 16.8835C10.5582 16.9687 10.2611 17.1066 9.89314 17.0804C9.45914 17.0494 9.05999 16.8314 8.79923 16.4831C8.57813 16.1878 8.5335 15.8634 8.51665 15.6796C8.4999 15.4969 8.49995 15.2772 8.5 15.0683C8.5 15.057 8.5 15.0458 8.5 15.0347V8.96533C8.5 8.95417 8.5 8.94297 8.5 8.93173C8.49995 8.72279 8.4999 8.50311 8.51665 8.32043C8.5335 8.13665 8.57813 7.81219 8.79923 7.51687C9.05999 7.16856 9.45914 6.95064 9.89314 6.91965C10.2611 6.89336 10.5582 7.03127 10.7219 7.11647C10.8846 7.20117 11.0694 7.32001 11.2451 7.43304ZM10.5 9.33167V14.6683L14.6507 12L10.5 9.33167Z" fill="currentColor" fill-rule="evenodd" />
</svg>