<svg xmlns="http://www.w3.org/2000/svg" fill="none" viewBox="0 0 48 48"><path fill="#3C9AF1" fill-rule="evenodd" d="M20 8a7 7 0 1 0 0 14 7 7 0 0 0 0-14M9 15C9 8.925 13.925 4 20 4s11 4.925 11 11-4.925 11-11 11S9 21.075 9 15m29 13a2 2 0 0 1 2 2v4h4a2 2 0 0 1 0 4h-4v4a2 2 0 0 1-4 0v-4h-4a2 2 0 1 1 0-4h4v-4a2 2 0 0 1 2-2m-23.347 1H24a2 2 0 0 1 0 4h-9c-2.937 0-3.961.022-4.741.258a6 6 0 0 0-4 4C6.022 38.038 6 39.063 6 42a2 2 0 1 1-4 0v-.347c0-2.455-.001-4.131.43-5.556a10 10 0 0 1 6.667-6.666c1.425-.433 3.101-.432 5.556-.431" clip-rule="evenodd"/></svg>