<svg xmlns="http://www.w3.org/2000/svg" fill="none" viewBox="0 0 12 12"><path fill="#514C49" fill-rule="evenodd" d="M3.88 1h4.24c.403 0 .735 0 1.006.022.281.023.54.072.782.196a2 2 0 0 1 .874.874c.124.243.173.501.196.782.022.27.022.603.022 1.005v4.242c0 .402 0 .734-.022 1.005-.023.281-.072.54-.196.782a2 2 0 0 1-.874.874c-.243.124-.501.173-.782.196C8.856 11 8.523 11 8.12 11H3.879c-.402 0-.734 0-1.005-.022-.281-.023-.54-.072-.782-.196a2 2 0 0 1-.874-.874c-.124-.243-.173-.501-.196-.782C1 8.856 1 8.523 1 8.12V3.879c0-.402 0-.734.022-1.005.023-.281.072-.54.196-.782a2 2 0 0 1 .874-.874c.243-.124.501-.173.782-.196C3.144 1 3.477 1 3.88 1m-.924 1.019c-.22.018-.332.05-.41.09a1 1 0 0 0-.437.437c-.04.078-.072.19-.09.41C2 3.18 2 3.472 2 3.9v4.2c0 .428 0 .72.019.944.018.22.05.332.09.41a1 1 0 0 0 .437.437c.078.04.19.072.41.09.225.019.516.019.944.019h4.2c.428 0 .72 0 .944-.019.22-.018.332-.05.41-.09a1 1 0 0 0 .437-.437c.04-.078.072-.19.09-.41C10 8.82 10 8.528 10 8.1V3.9c0-.428 0-.72-.019-.944-.018-.22-.05-.332-.09-.41a1 1 0 0 0-.437-.437c-.078-.04-.19-.072-.41-.09A13 13 0 0 0 8.1 2H3.9c-.428 0-.72 0-.944.019M6 3.5a.5.5 0 0 1 .5.5v2a.5.5 0 0 1-1 0V4a.5.5 0 0 1 .5-.5M5.5 8a.5.5 0 0 1 .5-.5h.005a.5.5 0 0 1 0 1H6a.5.5 0 0 1-.5-.5" clip-rule="evenodd"/></svg>