<svg xmlns="http://www.w3.org/2000/svg" fill="none" viewBox="0 0 16 16" stroke="inherit"><path fill="#A6A19E" fill-rule="evenodd" d="M2 1.333c.368 0 .667.299.667.667v2.667h6.75a2.668 2.668 0 1 1 0 1.333h-6.75v2.8c0 .571 0 .96.025 1.26.024.291.067.441.12.545.128.251.332.455.583.583.104.053.253.096.546.12.3.025.688.025 1.259.025h4.217a2.668 2.668 0 1 1 0 1.334H5.172c-.536 0-.98 0-1.34-.03-.375-.03-.72-.096-1.043-.261a2.67 2.67 0 0 1-1.165-1.165c-.165-.324-.23-.668-.261-1.043-.03-.361-.03-.804-.03-1.34V2c0-.368.299-.667.667-.667M12 4a1.333 1.333 0 1 0 0 2.666A1.333 1.333 0 0 0 12 4m0 6.667a1.333 1.333 0 1 0 0 2.666 1.333 1.333 0 0 0 0-2.666" clip-rule="evenodd"/></svg>