<svg xmlns="http://www.w3.org/2000/svg" fill="none" viewBox="0 0 12 12" stroke="inherit"><path fill="#514C49" fill-rule="evenodd" d="M6.988 2.005A4 4 0 0 0 6.7 2H5.3a4 4 0 0 0-.294.006v.006C5 2.071 5 2.152 5 2.3V10h2V2.3a4 4 0 0 0-.006-.294zM8 5V2.284c0-.126 0-.249-.008-.353a1 1 0 0 0-.101-.385 1 1 0 0 0-.437-.437 1 1 0 0 0-.385-.1C6.965 1 6.842 1 6.716 1H5.284c-.126 0-.249 0-.353.008a1 1 0 0 0-.385.101 1 1 0 0 0-.437.437 1 1 0 0 0-.1.385C4 2.035 4 2.158 4 2.284V3H2.284c-.126 0-.249 0-.353.008a1 1 0 0 0-.385.101 1 1 0 0 0-.437.437 1 1 0 0 0-.1.385C1 4.035 1 4.158 1 4.284v5.432c0 .126 0 .249.008.353.01.114.032.25.101.385a1 1 0 0 0 .437.437c.136.07.27.091.385.1.104.009.227.009.353.009h7.432c.126 0 .249 0 .353-.008.114-.01.25-.032.385-.101a1 1 0 0 0 .437-.437 1 1 0 0 0 .1-.385C11 9.965 11 9.842 11 9.716V6.284c0-.126 0-.249-.008-.353a1 1 0 0 0-.101-.385 1 1 0 0 0-.437-.437 1 1 0 0 0-.385-.1C9.965 5 9.842 5 9.716 5zm0 1v4h1.7a4 4 0 0 0 .294-.006v-.006C10 9.929 10 9.848 10 9.7V6.3a4 4 0 0 0-.006-.294h-.006A4 4 0 0 0 9.7 6zM4 4H2.3a4 4 0 0 0-.294.006v.006C2 4.071 2 4.152 2 4.3v5.4a4 4 0 0 0 .006.294h.006c.059.006.14.006.288.006H4zm-2.454 6.891" clip-rule="evenodd"/></svg>