<svg xmlns="http://www.w3.org/2000/svg" fill="none" viewBox="0 0 44 44"><path fill="#F27B2F" fill-rule="evenodd" d="M7.373 19.08C7.929 11.487 14.265 5.5 22 5.5c7.182 0 13.157 5.162 14.42 11.979a10.08 10.08 0 0 1 5.747 9.105c0 5.568-4.515 10.083-10.084 10.083H11A9.167 9.167 0 0 1 1.833 27.5a9.17 9.17 0 0 1 5.54-8.42M22 9.167c-6.075 0-11 4.925-11 11l.002.198a1.83 1.83 0 0 1-1.377 1.808A5.5 5.5 0 0 0 11 33h21.083a6.417 6.417 0 0 0 2.082-12.489 1.83 1.83 0 0 1-1.229-1.538C32.343 13.46 27.671 9.167 22 9.167" clip-rule="evenodd"/></svg>