<svg xmlns="http://www.w3.org/2000/svg" fill="none" viewBox="0 0 24 24" stroke="inherit"><path fill="#202020" d="m16.917 12.916-.742.115.12.763.758-.14zm-5.833-5.833-.738-.136-.14.759.763.118zM8.417 12.21a.75.75 0 0 0 .832 1.248zM10 12.056h.75a.75.75 0 0 0-1.166-.624zm-.75 3.888a.75.75 0 1 0 1.5 0zM20.25 8a4.25 4.25 0 0 1-3.47 4.179l.273 1.475A5.75 5.75 0 0 0 21.75 8zM16 3.75A4.25 4.25 0 0 1 20.25 8h1.5A5.75 5.75 0 0 0 16 2.25zm-4.179 3.47A4.25 4.25 0 0 1 16 3.75v-1.5a5.75 5.75 0 0 0-5.654 4.697zm-.852.604a6.255 6.255 0 0 1 5.207 5.207l1.482-.23a7.755 7.755 0 0 0-6.459-6.459zm-1.72 5.633 1.167-.777-.832-1.248-1.167.777zm.001-1.401v3.888h1.5v-3.888zm7 1.944A6.25 6.25 0 0 1 10 20.25v1.5A7.75 7.75 0 0 0 17.75 14zM10 20.25A6.25 6.25 0 0 1 3.75 14h-1.5A7.75 7.75 0 0 0 10 21.75zM3.75 14A6.25 6.25 0 0 1 10 7.75v-1.5A7.75 7.75 0 0 0 2.25 14zM10 7.75A6.25 6.25 0 0 1 16.25 14h1.5A7.75 7.75 0 0 0 10 6.25z"/></svg>