<svg xmlns="http://www.w3.org/2000/svg" fill="none" viewBox="0 0 209 243" stroke="inherit"><g clip-path="url(#a)"><path fill="#F1B243" stroke-linecap="round" stroke-linejoin="round" stroke-width="5" d="M53.94 168.201c-1.61 12.489-2.918 39.269 4.588 50.545s13.696 3.613 14.39.488-2.878-30.092-2.878-30.092l-16.093-20.941z"/><path fill="#F9D168" d="M65.648 200.458a13.7 13.7 0 0 1 3.635 5.43 19.7 19.7 0 0 1 3.122 3.455c.466 4.768.75 8.798.505 9.891-.694 3.125-6.883 10.789-14.39-.487-3.422-5.139-5.006-13.504-5.574-22.263 4.147-1.739 9.627 1.196 12.694 3.974z"/><path stroke-linecap="round" stroke-linejoin="round" stroke-width="5" d="M53.94 168.201c-1.61 12.489-2.918 39.269 4.588 50.545s13.696 3.613 14.39.488-2.878-30.092-2.878-30.092l-16.093-20.941z"/><path fill="#DD5534" d="M161.242 193.816s16.093-4.596 20.5-18.887c3.154-10.23.789-17.312-1.576-23.608s15.769-2.361 20.5 12.591 0 20.61 0 20.61 10.25 6.933 4.731 9.294-10.148 0-10.148 0 9.359 7.082 4.628 10.23-10.25-2.361-10.25-2.361 6.308 7.87.789 11.018c-5.52 3.147-10.25-5.509-10.25-5.509s3.153 8.656-1.577 9.443-7.097-7.082-7.097-7.082-1.474 9.026-6.307 7.082-7.885-11.017-7.885-11.017z"/><path fill="#E47A3A" d="M181.742 174.93c3.154-10.231.789-17.313-1.576-23.609-1.806-4.8 8.318-3.643 15.32 3.809a25 25 0 0 1-.852 2.676c.095.031.197.055.292.086a20.7 20.7 0 0 1 3.895 1.787 23 23 0 0 1 1.845 4.241c1.143 3.604 1.727 6.673 1.971 9.247-1.372 1.503-3.225 2.723-5.149 3.691.308.857.489 1.794.513 2.833.15 5.949-4.085 8.53-9.131 9.301.016 1.771-.567 3.549-2.002 5.194-1.64 1.881-3.817 2.786-6.135 2.975-.457.944-1.19 1.786-2.144 2.439-3.162 2.18-7.01 2.078-10.251.165-3.563-2.101-3.161-6.216-.985-8.561 5.038-2.715 11.78-7.783 14.397-16.267z"/><path stroke-linecap="round" stroke-linejoin="round" stroke-width="5" d="M161.242 193.816s16.093-4.596 20.5-18.887c3.154-10.23.789-17.312-1.576-23.608s15.769-2.361 20.5 12.591 0 20.61 0 20.61 10.25 6.933 4.731 9.294-10.148 0-10.148 0 9.359 7.082 4.628 10.23-10.25-2.361-10.25-2.361 6.308 7.87.789 11.018c-5.52 3.147-10.25-5.509-10.25-5.509s3.153 8.656-1.577 9.443-7.097-7.082-7.097-7.082-1.474 9.026-6.307 7.082-7.885-11.017-7.885-11.017z"/><path fill="#E47A3A" d="M72.13 206.643c5.992 8.436 9.185 10.372 9.185 10.372-.702 5.037-.15 8.263 6.939 9.05 5.046.559 8.65-1.81 11.527-5.658.757.055 1.522.11 2.326.173 3.532.283 6.111.15 7.885-.079-.071.748.291 1.456 1.182 2.046 4.731 3.148 37.847 3.888 46.52-4.721s8.673-19.674 3.943-37.774c-3.131-11.977-12.135-18.099-19.468-27.259l-10.392-20.838-30.175-2.149-47.986 10.663-6.118 15.377 6.86 7.24q-.593 2.431-.426 5.194c2.05 7.059 8.365 20.287 10.73 26.654 2.366 6.366 7.475 11.717 7.475 11.717z"/><path fill="#F1B243" d="M116.694 213.096c3.114-1.173 6.836-.464 10.163-.512-6-4.186-11.393-13.212-5.472-18.335.11-.095.221-.166.331-.252-1.608-1.771.804-4.061 1.285-6.87.773-4.572 3.683-5.43 7.885-7.083 5.582-2.203 8.46-2.14 13.404 0 .828-1.149 2.263-4.414 3.651-4.721a10.3 10.3 0 0 1 .575-2.054c1.333-3.305 4.873-4.769 8.24-3.667 2.097 3.045 3.824 6.405 4.873 10.434 2.594 9.916 3.761 17.715 2.862 24.16a5 5 0 0 1-2.31.747c0 .945-.056 1.889-.182 2.817a7.8 7.8 0 0 1-.765 2.527c.229.897.316 1.778.276 2.652-1.017 1.715-2.286 3.336-3.832 4.871-2.917 2.896-8.61 4.729-15.044 5.776-2.136-.047-4.25-.134-6.221-.11-6.512.086-13.033.165-19.546.252-7.104.094-7.467-7.894-.181-10.632zm24.836-.7c-.094-.032-.181-.071-.275-.103-.056.04-.111.071-.166.11h.441zm-1.829-14.016c.103-.205.221-.409.355-.598-.41-.063-.812-.11-1.222-.157q.424.377.859.755z"/><path fill="#F1B243" stroke-linecap="round" stroke-linejoin="round" stroke-width="5" d="M83.523 30.1s-8.153-12.567-15.32-17.28C61.035 8.104 45.25-.08 35.04 2.44c.047 11.166-1.53 18.068-1.53 23.757 0 6.296 1.53 8.515 1.53 8.515s-5.543 4.604-2.318 7.224 8.673.787 8.673.787-11.827 6.296-7.097 8.656c4.731 2.361 6.9 0 6.9 0s-9.265 7.87-5.323 11.018c3.943 3.147 13.404 2.36 13.404 2.36z"/><path fill="#E47A3A" d="M34.937 7.79a176.3 176.3 0 0 1 31.019 21.004c1.908 1.613 1.9 3.675.922 5.288a820 820 0 0 0 7.956 4.809l-7.782 7.869c-3.028-1.377-5.946-2.998-8.847-4.65-.22.235-.473.448-.757.629a5.67 5.67 0 0 1-.993 4.06c-1.838 2.629-5.599 3.707-8.61 4.258q-.71.127-1.42.22c1.593 4.25-2.799 9.105-7.656 8.767-1.49-.103-2.618-.764-3.375-1.684 1.286-2.857 4.645-5.958 5.56-6.768-.671.52-2.824 1.715-6.663-.205-4.731-2.36 7.096-8.656 7.096-8.656s-4.108 1.338-7.27.031c1.199-.7 2.578-1.102 4.021-1.188a79 79 0 0 1-4.612-1.165 5 5 0 0 1-1.782-.913c.355-2.337 3.288-4.776 3.288-4.776s-.962-1.409-1.364-5.139c.142-1.605 1.04-3.1 2.61-3.801-.907-.606-1.806-1.22-2.713-1.826.245-4.241 1.065-9.286 1.356-16.163z"/><path stroke-linecap="round" stroke-linejoin="round" stroke-width="5" d="M83.523 30.1s-8.153-12.567-15.32-17.28C61.035 8.104 45.25-.08 35.04 2.44c.047 11.166-1.53 18.068-1.53 23.757 0 6.296 1.53 8.515 1.53 8.515s-5.543 4.604-2.318 7.224 8.673.787 8.673.787-11.827 6.296-7.097 8.656c4.731 2.361 6.9 0 6.9 0s-9.265 7.87-5.323 11.018c3.943 3.147 13.404 2.36 13.404 2.36z"/><path fill="#F1B243" d="M137.588 143.452c14.981-4.722 7.885-13.378 7.885-13.378s3.942 7.082 7.885 3.934c5.669-4.524-6.308-17.312-6.308-17.312s8.389 10.01 13.404 5.508c6.757-6.067-7.325-21.641-7.325-21.641s9.911 6.367 12.056.394c3.942-11.017-15.667-33.06-15.667-33.06s13.301 13.386 15.288 9.097-5.921-13.81-5.921-13.81 3.942 4.721 5.921 1.29-4.344-9.16-4.344-9.16 6.93 6.957 8.673 0c1.577-6.295-5.519-11.017-5.519-11.017 8.145-4.879 9.461-24.395 10.25-36.2-17.347 0-50.462 14.166-54.405 25.183-10.25-3.935-20.5-4.722-29.962-4.722-14.98 0-28.881 7.382-38.24 17.706-7.491 8.263-10.25 14.952-12.222 22.428 0 0-11.827 9.444-8.673 17.313 1.577 3.935 7.096 0 7.096 0s-9.674 10.624-7.884 17.313 12.615 8.656 12.615 8.656"/><path fill="#DD5534" d="M115.188 144.852c1.119-2.652 4.108-4.399 6.757-3.934-.867-5.721 7.041-9.428 10.904-3.856 1.759 2.541 3.525 5.075 5.283 7.617l4.037 8.106c2.255 2.817 4.676 5.351 7.025 7.853 2.926 4.218 5.764 8.499 8.776 12.654 6.024 8.318-1.664 11.088-6.513 8.074q-.141-.085-.284-.181c-1.111-.157-3.839-.645-4.935-1.55q-1.869-1.549-3.738-3.085c-.079-.055-.157-.102-.228-.157-1.546 2.739-4.968 4.501-8.098 2.416-6.016-4.006-11.141-8.869-15.375-14.716-2.712-2.896-5.393-9.089-7.625-12.379-4.47-6.61-.142-6.649 4.014-6.862"/><path fill="#E47A3A" d="m53.616 140.453 8.681-1.928c1.01 1.141 1.585 2.613 1.349 4.195a7 7 0 0 1 1.332 3.384c2.697.33 5.038 2.675 5.417 5.823.087.724.189 1.44.3 2.164 3.311-.614 7.127 1.243 7.056 5.58l-.307 18.729c-.087 5.367-8.603 8.672-11.023 2.982a108 108 0 0 1-4.857-13.992c-2.066 1.999-5.362 2.086-7.656.418-.063-1.669.07-3.251.434-4.73l-4.093-4.32c-.008-.063-.023-.126-.031-.189-.063-.008-.126-.032-.19-.047l-2.538-2.684 6.118-15.377z"/><path fill="#F9D168" d="M59.443 52.025c4.841.079 9.69.15 14.532.228-7.546-5.705-3.872-18.241 6.031-18.47 7.972-.18 15.935-.37 23.907-.55 10.297-.236 12.56 12.166 6.781 17.777 4.36 2.73 6.93 9.38 3.642 13.968-2.83 3.958-6.276 5.997-10.092 7.028 3.138 5.366.78 14.188-6.032 15.195-2.026.3-4.06.598-6.087.897-.134 1.41-.576 2.77-1.411 3.935C86.1 98.47 78.16 102.43 70.253 99.391c-5.165-1.983-8.728-6.886-7.16-12.583.3-1.086.836-2.125 1.53-3.085-.725-2.376-.773-5.028-.047-7.334-3.674-1.283-7.207-2.943-10.297-5.312-3.675-2.817-6.025-6.776-4.708-11.552 1.183-4.281 5.393-7.579 9.888-7.508zm16.802 27.834c.347.103.268.024 0 0"/><path fill="#F5C345" d="M121.732 106.654c-7.94-2.565-12.284-8.955-13.026-17.076-.709-7.775-.433-15.519.529-23.223a15 15 0 0 1-.261-.842c-1.166-4.242-.638-9.884 1.79-13.646 4.684-7.247 16.385-12.37 24.269-6.35.229.173.442.354.663.527 3.54 1.834 6.142 4.549 7.75 7.814 3.091 4.132 5.189 8.798 6.151 14.118l-.079-.079s.031.04.086.095c.268 1.48.45 2.998.529 4.58.489 9.16-2.957 18.635-8.366 25.945-4.557 6.162-12.04 10.718-20.035 8.137"/><path fill="#E47A3A" d="M132.384 52.961c-3.469-2.754-.552-7.57 3.083-7.972-1.064-2.109-.512-4.934 1.687-6.248-.362-1.141-.291-2.463.363-3.785 2.736-5.556 8.295-8.381 13.956-10.199 6.915-2.227 14.129-3.502 21.336-4.344-.386 3.258-.891 6.563-1.593 9.656a110 110 0 0 0-14.76 3.077q-1.019.283-2.05.59c4.329.37 8.65.748 12.978 1.117.813.04 1.633.103 2.445.158-1.42 4.155-3.383 7.515-6.111 9.207-.875 0-1.75 0-2.626.032 1.388.425 2.768.857 4.108 1.33 1.987 1.817 5.007 5.398 3.927 9.734-.442 1.77-1.222 2.636-2.145 2.951q-2.247-.659-4.494-1.283a16 16 0 0 1-1.727-1.377c.268.26.694.685 1.175 1.228-1.325-.362-2.649-.74-3.982-1.086.915.944 1.743 1.967 2.405 3.148 1.057 1.888.647 3.895-.497 5.288a10 10 0 0 1-.977-.992s.347.417.875 1.11c-.347.393-.749.74-1.199 1.007 1.625 2.33 3.052 4.8 4.219 7.468.796 1.818.441 3.557-.473 4.871-4.463-1.385-12.781-9.75-12.781-9.75s4.746 5.336 9.098 12.072c-1.569.205-3.153-.464-4.013-2.432-4.581-10.466-13.467-17.627-22.219-24.576z"/><path fill="#F5C345" d="M37.452 86.005s-5.519 3.935-7.096 0c-3.154-7.87 8.673-17.313 8.673-17.313C41 61.216 43.76 54.527 51.25 46.264a56 56 0 0 1 8.91-7.9c8.374 2.95 15.265 12.457 11.954 21.625-3.967 10.97-8.721 21.688-14.422 31.87-4.533 8.09-16.321 11.466-24.269 6.351a20 20 0 0 1-2.712-2.1c2.31-5.226 6.75-10.105 6.75-10.105z"/><path stroke-linecap="round" stroke-linejoin="round" stroke-width="5" d="M137.588 143.452c14.981-4.722 7.885-13.378 7.885-13.378s3.942 7.082 7.885 3.934c5.669-4.524-6.308-17.312-6.308-17.312s8.389 10.01 13.404 5.508c6.757-6.067-7.325-21.641-7.325-21.641s9.911 6.367 12.056.394c3.942-11.017-15.667-33.06-15.667-33.06s13.301 13.386 15.288 9.097-5.921-13.81-5.921-13.81 3.942 4.721 5.921 1.29-4.344-9.16-4.344-9.16 6.93 6.957 8.673 0c1.577-6.295-5.519-11.017-5.519-11.017 8.145-4.879 9.461-24.395 10.25-36.2-17.347 0-50.462 14.166-54.405 25.183-10.25-3.935-20.5-4.722-29.962-4.722-14.98 0-28.881 7.382-38.24 17.706-7.491 8.263-10.25 14.952-12.222 22.428 0 0-11.827 9.444-8.673 17.313 1.577 3.935 7.096 0 7.096 0s-9.674 10.624-7.884 17.313 12.615 8.656 12.615 8.656"/><path fill="#FFFEFC" stroke-linecap="round" stroke-linejoin="round" stroke-width="5" d="M91.557 82.952c0 8.963 3.864 17.611 17.299 17.611 8.997 0 15.328-8.743 15.328-17.706s-6.308-15.739-15.328-16.132c-9.54-.417-17.299 7.263-17.299 16.227M46.52 82.07c0 8.043 1.435 14.559 7.096 14.559S67.02 90.113 67.02 82.07s-2.224-15.345-7.885-15.345S46.52 74.028 46.52 82.071"/><path fill="#514D49" d="M91.463 82.605c0 8.122 5.495 17.958 12.615 17.958s13.404-9.978 13.404-18.1c0-8.12-6-14.565-13.12-14.565s-12.9 6.586-12.9 14.707M56.405 67.873c5.006 0 4.307 7.894 4.307 14.197 0 6.304-4.06 11.41-9.067 11.41-1.293 0-2.515-.345-3.627-.951-1.12-2.644-1.498-6.351-1.498-10.459 0-4.501 2.184-8.774 5.101-11.662.954-.339 3.9-2.535 4.783-2.535"/><path stroke-linecap="round" stroke-linejoin="round" stroke-width="5" d="M54.972 161.15c-3.445 8.546 1.664 20.531 11.378 36.608 9.714 16.078 14.973 19.257 14.973 19.257 5.023 1.991 7.033 2.778 7.033 2.778s5.874.157 13.759.787c7.885.629 11.039-.787 11.039-.787"/><path stroke-linecap="round" stroke-linejoin="round" stroke-width="5" d="M53.222 174.142s-2.437-6.051-2.192-13.126 5.921-11.607 5.921-11.607"/><path fill="#F9D168" d="M35.481 131.946c-3.745-4.627-6.308-9.742-6.308-14.857 0-10.23 3.943-14.165 3.943-14.165s1.971-4.328 12.615-8.656 21.872-5.226 21.872-5.226.994-3.439 3.754-3.037c2.76.401 2.365 1.574 2.365 1.574-.126.015 1.577-1.574 3.942-1.574 3.257 0 3.943 3.148 3.943 3.148s1.577-1.574 4.612-1.008c1.94.362 3.273 4.155 3.273 4.155s5.519 0 23.654 4.722c15.028 3.911 25.79 17.36 26.808 27.543"/><path stroke-linecap="round" stroke-linejoin="round" stroke-width="5" d="M35.481 131.946c-3.745-4.627-6.308-9.742-6.308-14.857 0-10.23 3.943-14.165 3.943-14.165s1.971-4.328 12.615-8.656 21.872-5.226 21.872-5.226.994-3.439 3.754-3.037c2.76.401 2.365 1.574 2.365 1.574-.126.015 1.577-1.574 3.942-1.574 3.257 0 3.943 3.148 3.943 3.148s1.577-1.574 4.612-1.008c1.94.362 3.273 4.155 3.273 4.155s5.519 0 23.654 4.722c15.028 3.911 25.79 17.36 26.808 27.543"/><path stroke-linecap="round" stroke-linejoin="round" stroke-width="5" d="M59.19 129.798c-.244 7.075-5.125 9.412-9.233 16.219-4.62 7.665-1.97 15.613 1.041 18.328"/><path fill="#F1B243" d="M78.508 183.759c.308-3.47 3.28-5.508 6.087-5.39 1.27-1.936 3.903-3.014 6.158-2.621.268-1.448.725-2.872 1.522-4.242 1.411-2.423 5.101-3.682 7.553-1.975a20.7 20.7 0 0 1 5.031 4.966c2.854-.134 5.795 1.637 5.771 5.312-.031 4.855-.07 9.718-.102 14.574-.032 4.383.363 9.105-1.995 13.016-2.208 3.667-5.409 6.956-8.074 10.301-1.734 2.18-3.453 4.887-5.488 7.106-1.923 1.055-4.131 1.542-6.71 1.251-7.088-.787-7.64-4.005-6.938-9.05 0 0-.583-.354-1.711-1.408.087-1.267.205-2.503.315-3.652.41-4.627 1.207-9.356.497-13.999-.733-4.801-2.342-9.263-1.908-14.197zm13.554 21.814c-.166.04-.34.079-.505.11-.031.441-.063.882-.11 1.322.205-.48.402-.952.615-1.432"/><path fill="#F1B243" d="M108.155 174.764s3.272 19.8-1.049 30.675-8.634 21.751-18.844 20.618c-10.219-1.133-6.852-7.318-5.74-16.73 1.111-9.412-1.483-26.032-1.483-26.032"/><path stroke-linecap="round" stroke-linejoin="round" stroke-width="5" d="M108.155 174.764s3.272 19.8-1.049 30.675-8.634 21.751-18.844 20.618c-10.219-1.133-6.852-7.318-5.74-16.73 1.111-9.412-1.483-26.032-1.483-26.032"/><path fill="#F9D168" d="M136.011 123.778c0 15.739-11.827 21.248-44.548 23.931-10.684.874-27.203-2.683-42.184-8.979-5.243-2.203-14.98-7.869-14.192-17.313"/><path stroke-linecap="round" stroke-linejoin="round" stroke-width="5" d="M136.011 123.778c0 15.739-11.827 21.248-44.548 23.931-10.684.874-27.203-2.683-42.184-8.979-5.243-2.203-14.98-7.869-14.192-17.313"/><path fill="#F1B243" d="M31.484 126.556c.094-.189.181-.378.283-.551.442-.763.955-1.432 1.514-2.03.04-1.157.253-2.345.655-3.549 2.05-6.091 7.687-9.263 14.003-7.933a144 144 0 0 1 15.572 4.195c2.303-4.667 8.153-8.043 13.31-6.146 1.23.448 2.452.92 3.674 1.393 2.27-5.029 7.964-7.594 13.396-6.304 14.13 3.36 26.792 10.081 37.997 19.225 1.797 1.464 2.807 3.533 3.161 5.761-2.949 9.254-13.025 13.661-33.754 16.132-.796-.457-1.6-.905-2.397-1.346-.158.354-.34.701-.536 1.039-.142.236-.292.456-.45.685-2.058.212-4.194.417-6.442.598-4.32.354-9.61-.032-15.359-1.016a130 130 0 0 0-6.789-3.36 10.7 10.7 0 0 1-.749 1.787 131 131 0 0 1-19.278-6.39c-4.21-1.771-14.366-5.777-17.796-12.174z"/><path fill="#514D49" d="M85.596 97.282c1.246 4.399-7.79 11.772-14.35 11.111-6.56-.653-12.008-5.862-11.582-11.111.433-5.25 10.266-5.25 16.171-4.596 5.906.653 9.02 1.99 9.754 4.596z"/><path fill="#E1737D" d="M79.241 114.335s-4.644 1.613-3.154 11.017c1.222 7.712-8.444 11.418-13.404 7.082-6.307-5.508-4.187-14.755.789-19.673"/><path stroke-linecap="round" stroke-linejoin="round" stroke-width="5" d="M79.241 114.335s-4.644 1.613-3.154 11.017c1.222 7.712-8.444 11.418-13.404 7.082-6.307-5.508-4.187-14.755.789-19.673"/><path stroke-linecap="round" stroke-linejoin="round" stroke-width="5" d="M70.568 111.974s-1.167 1.912-2.365 5.508c-1.577 4.722-.789 7.083-.789 7.083"/><path stroke-linecap="round" stroke-linejoin="round" stroke-width="5" d="M95.01 120.63c-8.672-1.574-14.98-8.656-25.23-8.656s-12.498 2.549-16.519 3.903m17.701-6.657v2.754m65.049 11.804c0 15.739-11.827 21.248-44.548 23.931-10.684.874-27.203-2.683-42.184-8.979-5.243-2.203-14.98-7.869-14.192-17.313"/><path stroke-linecap="round" stroke-linejoin="round" stroke-width="5" d="M35.481 131.946c-3.745-4.627-6.308-9.742-6.308-14.857 0-10.23 3.943-14.165 3.943-14.165s1.971-4.328 12.615-8.656 21.872-5.226 21.872-5.226.994-3.439 3.754-3.037c2.76.401 2.365 1.574 2.365 1.574-.126.015 1.577-1.574 3.942-1.574 3.257 0 3.943 3.148 3.943 3.148s1.577-1.574 4.612-1.008c1.94.362 3.273 4.155 3.273 4.155s5.519 0 23.654 4.722c15.028 3.911 25.79 17.36 26.808 27.543"/><path fill="#E47A3A" d="M107.839 57.935c-.276-.047-.552-.095-.828-.134l1.569.212a18.2 18.2 0 0 0-4.675 0l1.569-.212a18.4 18.4 0 0 0-3.73.928 4.45 4.45 0 0 1-2.357.103 4.4 4.4 0 0 1-2.2-.7c-1.23-.717-2.397-2.117-2.72-3.526-.347-1.511-.268-3.203.599-4.549l.922-1.196a5.96 5.96 0 0 1 2.61-1.519c1.972-.716 4.053-1.046 6.143-1.227s4.186.063 6.244.433a4.4 4.4 0 0 1 2.011 1.054 4.46 4.46 0 0 1 1.522 1.653c.741 1.267 1.056 3.132.599 4.548-.457 1.417-1.348 2.81-2.72 3.526l-1.412.598a5.93 5.93 0 0 1-3.146 0zm-37.823-2.062c-2.704-.756-5.409-1.511-8.113-2.274-1.435-.402-2.783-1.425-3.532-2.715a4.4 4.4 0 0 1-.702-2.196 4.5 4.5 0 0 1 .102-2.353c.465-1.424 1.349-2.81 2.72-3.525 1.373-.717 2.997-1.031 4.558-.599 2.704.756 5.409 1.511 8.113 2.275 1.435.401 2.784 1.424 3.533 2.715.433.676.662 1.408.701 2.195a4.5 4.5 0 0 1-.102 2.353c-.465 1.425-1.348 2.81-2.72 3.526s-2.997 1.03-4.558.598"/><path fill="#F9D168" d="M125.17 224.68c-.245 0-.489-.016-.734-.023.079-.126.158-.252.229-.378z"/><path fill="#F9D168" d="M126.944 213.096s-8.752-8.145-5.307-21.625c2.137.244 4.1 1.362 5.89 2.928.316-2.346 1.759-4.179 5.267-4.746 6.206-.999 11.788 6.178 14.595 10.813 3.438 5.682 5.038 12.402 4.565 19.012a5.6 5.6 0 0 1-.489 1.928c-7.183 2.637-17.717 3.494-26.295 3.282l-.505-.401c-.071.133-.15.259-.229.377-6.402-.204-11.59-1.015-13.254-2.124-4.731-3.148 5.52-9.444 15.77-9.444zm-38.682 12.961c-10.219-1.133-6.852-7.319-5.74-16.73.354-2.999.33-6.729.133-10.419 2.16-.559 4.353-.339 6.482.385.749-1.511 2.168-2.731 4.25-2.967 5.535-.629 12.095.307 14.752 5.808a24.5 24.5 0 0 1-1.033 3.297c-4.313 10.876-8.634 21.751-18.844 20.618zm-2.76-17.273-.047.023c.023-.008.047-.015.063-.023h-.024z"/><path stroke-linecap="round" stroke-linejoin="round" stroke-width="5" d="M108.155 174.764s3.272 19.8-1.049 30.675-8.634 21.751-18.844 20.618c-10.219-1.133-6.852-7.318-5.74-16.73 1.111-9.412-1.483-26.032-1.483-26.032m75.078 7.767c-2.365-7.87-7.498-10.238-13.404-12.591-3.942-1.574-16.558-.787-20.5 11.017-4.896 14.669 4.731 23.608 4.731 23.608-10.25 0-20.5 6.296-15.77 9.444 4.731 3.147 37.847 3.887 46.52-4.722s8.673-19.674 3.943-37.773-22.866-22.822-28.385-44.856"/><path stroke-linecap="round" stroke-linejoin="round" stroke-width="5" d="M156.117 191.062c-2.365-7.87-7.498-10.238-13.404-12.591-3.942-1.574-16.558-.787-20.5 11.017-4.896 14.669 4.731 23.608 4.731 23.608-10.25 0-20.5 6.296-15.77 9.444 4.731 3.147 37.847 3.887 46.52-4.722s8.673-19.674 3.943-37.773-22.866-22.822-28.385-44.856"/><path fill="#E2DEDB" stroke-linecap="round" stroke-linejoin="round" stroke-width="6" d="m114.328 240.639 7.097-5.509v-65.316l-97.77-27.543-7.097 5.509z"/><path fill="#FFFEFC" stroke-linecap="round" stroke-linejoin="round" stroke-width="6" d="m16.558 213.096 97.77 27.543v-65.316l-97.77-27.543z"/><path stroke-linecap="round" stroke-linejoin="round" stroke-width="6" d="m102.501 183.192-21.288-67.677m-25.626 0-25.444 45.714"/></g><path fill="#514D49" d="m37.647 197.172 3.834 1.082v-6.867l6.564 1.851v6.867l3.835 1.082v-16.969l-3.835-1.081v6.843l-6.564-1.851v-6.844l-3.834-1.081zm16.715 4.715 11.324 3.193v-3.258l-7.49-2.112v-3.609l6.88 1.94v-3.258l-6.88-1.94v-3.586l7.467 2.106v-3.258l-11.301-3.187zm13.76 3.88 10.692 3.016v-3.258l-6.857-1.934V189.88l-3.835-1.081zm12.7 3.582 3.834 1.082v-5.321l2.73.77c3.744 1.056 6.057-.6 6.045-4.107.012-3.454-2.255-6.473-5.932-7.51l-6.677-1.883zm3.834-7.403v-5.25l2.03.573c1.816.512 2.775 1.802 2.775 3.384 0 1.605-.959 2.39-2.774 1.866z"/><defs><clipPath id="a"><path fill="#fff" d="M209 0H0v243h209z"/></clipPath></defs></svg>