<svg xmlns="http://www.w3.org/2000/svg" fill="none" viewBox="0 0 12 12" stroke="inherit"><path fill="#514C49" fill-rule="evenodd" d="M5.799.593a1 1 0 0 1 .403 0c.153.031.29.108.4.17l.03.016 3.7 2.055.031.018c.116.063.261.143.373.265q.145.158.214.364c.051.156.05.322.05.454v4.13c0 .132.001.298-.05.455a1 1 0 0 1-.214.364 1.4 1.4 0 0 1-.373.264l-.031.018-3.7 2.055-.03.017c-.11.061-.247.138-.4.17-.133.027-.27.027-.403 0-.154-.032-.291-.109-.4-.17l-.03-.017-3.7-2.055-.032-.018a1.4 1.4 0 0 1-.372-.264 1 1 0 0 1-.214-.364A1.4 1.4 0 0 1 1 8.065v-4.13c0-.132-.002-.298.05-.455a1 1 0 0 1 .214-.364 1.4 1.4 0 0 1 .404-.283L5.369.78l.03-.017c.109-.061.246-.138.4-.17M6 1.575h-.002a3 3 0 0 0-.144.078L2.53 3.5 6 5.428 9.47 3.5 6.147 1.653A3 3 0 0 0 6 1.575m4 2.775v3.68a3 3 0 0 1-.005.176c-.028.018-.07.041-.15.086L6.5 10.15V6.294zM5.5 6.294 2 4.35v3.68c0 .09 0 .138.002.172v.002l.003.002c.029.018.07.041.15.086L5.5 10.15z" clip-rule="evenodd"/></svg>