<svg xmlns="http://www.w3.org/2000/svg" fill="none" viewBox="0 0 24 24"><path stroke="#202020" stroke-linejoin="round" stroke-width="1.5" d="M14.47 7.052a2.004 2.004 0 1 0 2.478 2.477m-2.477-2.477a5.03 5.03 0 0 1-.35-3.083l-.101.001c-1.296 0-2.4-.82-2.822-1.97C6.048 2.417 2 6.727 2 11.984 2 17.515 6.485 22 12.017 22c5.256 0 9.566-4.049 9.983-9.198a3.01 3.01 0 0 1-1.969-2.922 5.03 5.03 0 0 1-3.083-.35m-2.477-2.478a5.03 5.03 0 0 0 2.477 2.477m.077 5.46a2.003 2.003 0 1 1-4.007 0 2.003 2.003 0 0 1 4.007 0Zm-6.01 0a2.003 2.003 0 1 1-4.007 0 2.003 2.003 0 0 1 4.007 0Zm0-6.01a2.003 2.003 0 1 1-4.007 0 2.003 2.003 0 0 1 4.007 0Z"/></svg>