<svg xmlns="http://www.w3.org/2000/svg" fill="none" viewBox="0 0 26 26" stroke="inherit"><circle cx="13" cy="13" r="13" fill="url(#a)"/><circle cx="9.25" cy="9.75" r="1.75" fill="#FEFDFB"/><circle cx="16.75" cy="9.75" r="1.75" fill="#FEFDFB"/><path fill="#FEFDFB" fill-rule="evenodd" d="M9.654 13.52a1.25 1.25 0 0 0-2.315.945L8.5 14l-1.16.466.001.001.002.003.002.007.007.017a2 2 0 0 0 .08.173c.052.102.125.237.224.393.197.311.5.714.942 1.115.902.82 2.322 1.575 4.403 1.575s3.501-.755 4.403-1.575c.441-.4.745-.804.942-1.115a4.5 4.5 0 0 0 .303-.566l.007-.017.003-.007.001-.003v-.001c.001 0 .001-.001-1.16-.466l1.161.465a1.25 1.25 0 1 0-2.328-.916 3 3 0 0 1-.61.777c-.473.43-1.303.924-2.722.924s-2.249-.495-2.722-.925a3 3 0 0 1-.511-.603 2 2 0 0 1-.113-.202" clip-rule="evenodd"/><defs><linearGradient id="a" x1="13" x2="13" y1="0" y2="26" gradientUnits="userSpaceOnUse"><stop stop-color="#FDC433"/><stop offset="1" stop-color="#FE924D"/></linearGradient></defs></svg>