<svg xmlns="http://www.w3.org/2000/svg" fill="none" viewBox="0 0 24 24"><path fill="#202020" d="M10 12.75a.75.75 0 0 0 0-1.5zm-6.5-1.5a.75.75 0 0 0 0 1.5zm18 5.75v.75a.75.75 0 0 0 .75-.75zm0-10.5h.75a.75.75 0 0 0-.75-.75zm-13 0v-.75a.75.75 0 0 0-.75.75zm0 5.5v.75a.75.75 0 0 0 .75-.75zm-6 0-.696-.278A.8.8 0 0 0 1.75 12zm0 5h-.75c0 .414.336.75.75.75zm6-9.25a.75.75 0 0 0 0-1.5zM4.5 7v-.75a.75.75 0 0 0-.696.471zm11.25 10c0-.69.56-1.25 1.25-1.25v-1.5A2.75 2.75 0 0 0 14.25 17zM17 15.75c.69 0 1.25.56 1.25 1.25h1.5A2.75 2.75 0 0 0 17 14.25zM18.25 17c0 .69-.56 1.25-1.25 1.25v1.5A2.75 2.75 0 0 0 19.75 17zM17 18.25c-.69 0-1.25-.56-1.25-1.25h-1.5A2.75 2.75 0 0 0 17 19.75zm-2-2H9v1.5h6zm-5-5H3.5v1.5H10zM8.25 17c0 .69-.56 1.25-1.25 1.25v1.5A2.75 2.75 0 0 0 9.75 17zM7 18.25c-.69 0-1.25-.56-1.25-1.25h-1.5A2.75 2.75 0 0 0 7 19.75zM5.75 17c0-.69.56-1.25 1.25-1.25v-1.5A2.75 2.75 0 0 0 4.25 17zM7 15.75c.69 0 1.25.56 1.25 1.25h1.5A2.75 2.75 0 0 0 7 14.25zm12 2h2.5v-1.5H19zm3.25-.75V6.5h-1.5V17zM21.5 5.75h-13v1.5h13zM7.75 6.5V12h1.5V6.5zm.75 4.75h-6v1.5h6zM1.75 12v5h1.5v-5zm.75 5.75H5v-1.5H2.5zm6-11.5h-4v1.5h4zm-4.696.471-2 5 1.392.557 2-5z"/></svg>