<svg xmlns="http://www.w3.org/2000/svg" fill="none" viewBox="0 0 24 24"><path fill="#202020" d="m9.3 4.375-.585.469zm1.4 1.75-.586.468zM3.254 16.794l-.734-.154zm1.579-7.5.734.154zm17.913.412-.734-.154zM9.5 18.75a.75.75 0 0 0 0-1.5zm12.315-8.261a.75.75 0 0 0 1.468.309zM11.48 7.25H20v-1.5h-8.52zM8.715 4.844l1.4 1.75 1.17-.938-1.4-1.75zM4 4.75h4.52v-1.5H4zM3.75 17V5h-1.5v12zm16.5-9.5V8h1.5v-.5zM9.886 3.907a1.75 1.75 0 0 0-1.367-.657v1.5a.25.25 0 0 1 .196.094zM11.48 5.75a.25.25 0 0 1-.196-.094l-1.17.937a1.75 1.75 0 0 0 1.366.657zM4 17.25a.25.25 0 0 1-.25-.25h-1.5c0 .966.784 1.75 1.75 1.75zm0-14A1.75 1.75 0 0 0 2.25 5h1.5A.25.25 0 0 1 4 4.75zm16 4a.25.25 0 0 1 .25.25h1.5A1.75 1.75 0 0 0 20 5.75zM3.988 16.949l1.579-7.5-1.468-.31-1.579 7.5zM5.81 9.25h15.957v-1.5H5.81zm15.957 0a.25.25 0 0 1 .244.302l1.468.309a1.75 1.75 0 0 0-1.712-2.111zm-16.201.198a.25.25 0 0 1 .244-.198v-1.5A1.75 1.75 0 0 0 4.1 9.14zM2.52 16.64a1.75 1.75 0 0 0 1.712 2.11v-1.5a.25.25 0 0 1-.244-.302zm6.98.61H4.232v1.5H9.5zm-5.268 0H4v1.5h.232zm17.78-7.698-.197.937 1.468.309.197-.937zM15.25 18a.75.75 0 0 1-.75.75v1.5A2.25 2.25 0 0 0 16.75 18zm-.75.75a.75.75 0 0 1-.75-.75h-1.5a2.25 2.25 0 0 0 2.25 2.25zm-.75-.75a.75.75 0 0 1 .75-.75v-1.5A2.25 2.25 0 0 0 12.25 18zm.75-.75a.75.75 0 0 1 .75.75h1.5a2.25 2.25 0 0 0-2.25-2.25zM21.25 15a.75.75 0 0 1-.75.75v1.5A2.25 2.25 0 0 0 22.75 15zm-.75.75a.75.75 0 0 1-.75-.75h-1.5a2.25 2.25 0 0 0 2.25 2.25zm-.75-.75a.75.75 0 0 1 .75-.75v-1.5A2.25 2.25 0 0 0 18.25 15zm.75-.75a.75.75 0 0 1 .75.75h1.5a2.25 2.25 0 0 0-2.25-2.25zm.75 6.75a.75.75 0 0 1-.75.75v1.5A2.25 2.25 0 0 0 22.75 21zm-.75.75a.75.75 0 0 1-.75-.75h-1.5a2.25 2.25 0 0 0 2.25 2.25zm-.75-.75a.75.75 0 0 1 .75-.75v-1.5A2.25 2.25 0 0 0 18.25 21zm.75-.75a.75.75 0 0 1 .75.75h1.5a2.25 2.25 0 0 0-2.25-2.25zm-4.705-2.56 3.5-1.5-.59-1.38-3.5 1.5zm-.59 2 3.5 1.5.59-1.38-3.5-1.5z"/></svg>