<svg xmlns="http://www.w3.org/2000/svg" fill="none" viewBox="0 0 25 24"><path fill="#01111A" d="M12.526 2a9.975 9.975 0 0 0-3.153 19.439c.5.09.679-.218.679-.482 0-.236-.008-.864-.011-1.7-2.775.6-3.361-1.338-3.361-1.338a2.64 2.64 0 0 0-1.107-1.459c-.9-.619.069-.605.069-.605a2.09 2.09 0 0 1 1.527 1.029 2.124 2.124 0 0 0 2.9.828c.046-.506.271-.978.635-1.334-2.214-.25-4.542-1.107-4.542-4.93a3.87 3.87 0 0 1 1.026-2.67 3.6 3.6 0 0 1 .1-2.64s.837-.27 2.742 1.02a9.44 9.44 0 0 1 4.992 0c1.906-1.29 2.742-1.02 2.742-1.02.37.834.405 1.78.1 2.64a3.84 3.84 0 0 1 1.024 2.675c0 3.833-2.33 4.675-4.552 4.922.48.49.725 1.162.675 1.846 0 1.334-.012 2.41-.012 2.736 0 .267.178.578.687.48A9.975 9.975 0 0 0 12.526 2"/></svg>