<svg xmlns="http://www.w3.org/2000/svg" fill="none" viewBox="0 0 24 24" stroke="inherit"><g clip-path="url(#a)"><path fill="#202020" fill-rule="evenodd" d="M16.842 6.548a6.52 6.52 0 0 0-4.603-1.8c-3.13 0-5.79 2.113-6.737 4.957a7.2 7.2 0 0 0 0 4.595h.004c.952 2.84 3.607 4.951 6.737 4.951 1.617 0 3.004-.413 4.08-1.143v-.003a5.55 5.55 0 0 0 2.398-3.647h-6.482v-4.62h11.319c.14.802.207 1.622.207 2.438 0 3.65-1.304 6.735-3.574 8.825l.003.002C18.204 22.937 15.476 24 12.239 24a12 12 0 0 1-10.723-6.61 12.01 12.01 0 0 1 0-10.776A12 12 0 0 1 12.239 0a11.53 11.53 0 0 1 8.03 3.122z" clip-rule="evenodd"/></g><defs><clipPath id="a"><path fill="#fff" d="M0 0h24v24H0z"/></clipPath></defs></svg>