<svg xmlns="http://www.w3.org/2000/svg" fill="none" viewBox="0 0 24 24" stroke="inherit"><path stroke-linejoin="round" stroke-width="1.5" d="m5.5 9 3 3m-3-3L9 5.5M5.5 9a.707.707 0 0 0-1 0l-.5.5a1.414 1.414 0 0 0 0 2l2 2a1.414 1.414 0 0 0 2 0l.5-.5a.707.707 0 0 0 0-1m0 0 1.75-1.75M12 8.5l-3-3m3 3a.707.707 0 0 0 1 0l.5-.5a1.414 1.414 0 0 0 0-2l-2-2a1.414 1.414 0 0 0-2 0l-.5.5a.707.707 0 0 0 0 1m3 3-1.75 1.75m0 0 5.5 5.5m2.5 0 1.5 1.5a1.768 1.768 0 1 1-2.5 2.5l-1.5-1.5a1.768 1.768 0 1 1 2.5-2.5Z"/></svg>