<svg xmlns="http://www.w3.org/2000/svg" fill="none" viewBox="0 0 30 30" stroke="inherit"><g filter="url(#a)"><path stroke-linecap="round" stroke-width="1.5" d="M8 14.5V14a1 1 0 0 0-1-1H6a1 1 0 0 0-1 1v5.5a1 1 0 0 0 1 1h1a1 1 0 0 0 1-1V19m0-4.5.658-.33a6.36 6.36 0 0 1 2.842-.67h.382c.735 0 1.46.171 2.118.5l.14.07c.565.283 1.19.43 1.822.43H17a1 1 0 0 1 1 1m-10-1V19m5-2.5h4a1 1 0 0 0 1-1M8 19l4.187 1.196a8 8 0 0 0 5.48-.397l6.678-3.004a1.111 1.111 0 0 0-.613-2.114L18 15.5m-.556-9.18V4.5a.5.5 0 0 1 .5-.5h2.112a.5.5 0 0 1 .5.5v1.82c0 .068.055.124.125.124H22.5a.5.5 0 0 1 .5.5v2.112a.5.5 0 0 1-.5.5h-1.82a.125.125 0 0 0-.124.125V11.5a.5.5 0 0 1-.5.5h-2.112a.5.5 0 0 1-.5-.5V9.68a.125.125 0 0 0-.125-.124H15.5a.5.5 0 0 1-.5-.5V6.944a.5.5 0 0 1 .5-.5h1.82a.124.124 0 0 0 .124-.125Z"/></g><defs><filter id="a" width="32" height="32" x="-1" y="0" color-interpolation-filters="sRGB" filterUnits="userSpaceOnUse"><feFlood flood-opacity="0" result="BackgroundImageFix"/><feColorMatrix in="SourceAlpha" result="hardAlpha" values="0 0 0 0 0 0 0 0 0 0 0 0 0 0 0 0 0 0 127 0"/><feOffset dy="4"/><feGaussianBlur stdDeviation="2"/><feComposite in2="hardAlpha" operator="out"/><feColorMatrix values="0 0 0 0 0 0 0 0 0 0 0 0 0 0 0 0 0 0 0.25 0"/><feBlend in2="BackgroundImageFix" result="effect1_dropShadow_2993_142"/><feBlend in="SourceGraphic" in2="effect1_dropShadow_2993_142" result="shape"/></filter></defs></svg>