<svg xmlns="http://www.w3.org/2000/svg" fill="none" viewBox="0 0 24 24"><path fill="#202020" d="M12 15.25a.75.75 0 0 0 0 1.5zm.01 1.5a.75.75 0 0 0 0-1.5zM12 12v-.75a.75.75 0 0 0-.75.75zm-2.75-2a.75.75 0 0 0 1.5 0zm2 3.5a.75.75 0 0 0 1.5 0zm.75 3.25h.01v-1.5H12zM21.25 12A9.25 9.25 0 0 1 12 21.25v1.5c5.937 0 10.75-4.813 10.75-10.75zM12 21.25A9.25 9.25 0 0 1 2.75 12h-1.5c0 5.937 4.813 10.75 10.75 10.75zM2.75 12A9.25 9.25 0 0 1 12 2.75v-1.5C6.063 1.25 1.25 6.063 1.25 12zM12 2.75A9.25 9.25 0 0 1 21.25 12h1.5c0-5.937-4.813-10.75-10.75-10.75zM13.25 10c0 .69-.56 1.25-1.25 1.25v1.5A2.75 2.75 0 0 0 14.75 10zm-2.5 0c0-.69.56-1.25 1.25-1.25v-1.5A2.75 2.75 0 0 0 9.25 10zM12 8.75c.69 0 1.25.56 1.25 1.25h1.5A2.75 2.75 0 0 0 12 7.25zM11.25 12v1.5h1.5V12z"/></svg>