<svg xmlns="http://www.w3.org/2000/svg" fill="none" viewBox="0 0 24 24" stroke="inherit"><path fill="#202020" d="M20.75 10a.75.75 0 0 0-1.5 0zM20 22v.75a.75.75 0 0 0 .75-.75zM4 22h-.75c0 .414.336.75.75.75zm.75-12a.75.75 0 0 0-1.5 0zM12 2l.53-.53a.75.75 0 0 0-1.06 0zm-9.53 8.47a.75.75 0 1 0 1.06 1.06zm18 1.06a.75.75 0 1 0 1.06-1.06zM19.25 10v12h1.5V10zM20 21.25H4v1.5h16zM4.75 22V10h-1.5v12zm6 0v-6h-1.5v6zm.25-6.25h2v-1.5h-2zm2.25.25v6h1.5v-6zm-.25-.25a.25.25 0 0 1 .25.25h1.5A1.75 1.75 0 0 0 13 14.25zm-2.25.25a.25.25 0 0 1 .25-.25v-1.5A1.75 1.75 0 0 0 9.25 16zm.72-14.53-9 9 1.06 1.06 9-9zm0 1.06 9 9 1.06-1.06-9-9z"/></svg>