<svg xmlns="http://www.w3.org/2000/svg" fill="none" viewBox="0 0 24 24" stroke="inherit"><path fill="#202020" d="m16 13.5.43-.614a.75.75 0 0 0-.91.038zM13 16l-.43.614a.75.75 0 0 0 .91-.038zm-5-3.5.43-.614a.75.75 0 0 0-.932.057zM4 5.75h16v-1.5H4zM20.25 6v12h1.5V6zM20 18.25H4v1.5h16zM3.75 18V6h-1.5v12zm.25.25a.25.25 0 0 1-.25-.25h-1.5c0 .966.784 1.75 1.75 1.75zM20.25 18a.25.25 0 0 1-.25.25v1.5A1.75 1.75 0 0 0 21.75 18zM20 5.75a.25.25 0 0 1 .25.25h1.5A1.75 1.75 0 0 0 20 4.25zM4 4.25A1.75 1.75 0 0 0 2.25 6h1.5A.25.25 0 0 1 4 5.75zm17.43 12.136-5-3.5-.86 1.228 5 3.5zm-5.91-3.462-3 2.5.96 1.152 3-2.5zm-2.09 2.462-5-3.5-.86 1.228 5 3.5zm-5.932-3.443-5 4.5 1.004 1.114 5-4.5zM17.75 9.5c0 .69-.56 1.25-1.25 1.25v1.5a2.75 2.75 0 0 0 2.75-2.75zm-1.25 1.25c-.69 0-1.25-.56-1.25-1.25h-1.5a2.75 2.75 0 0 0 2.75 2.75zM15.25 9.5c0-.69.56-1.25 1.25-1.25v-1.5a2.75 2.75 0 0 0-2.75 2.75zm1.25-1.25c.69 0 1.25.56 1.25 1.25h1.5a2.75 2.75 0 0 0-2.75-2.75z"/></svg>