<svg xmlns="http://www.w3.org/2000/svg" fill="none" viewBox="0 0 12 12"><path fill="#A6A19E" fill-rule="evenodd" d="M4 4.5a3.5 3.5 0 1 1 3.03 3.469 7 7 0 0 0-.257-.032l-.005.005c-.027.024-.062.059-.125.122l-.79.79A.5.5 0 0 1 5.5 9H5v.5a.5.5 0 0 1-.5.5H4v.5a.5.5 0 0 1-.5.5H2.284c-.126 0-.249 0-.353-.008a1 1 0 0 1-.385-.101 1 1 0 0 1-.437-.437 1 1 0 0 1-.1-.385C1 9.965 1 9.842 1 9.716v-.91c0-.095 0-.215.028-.332a1 1 0 0 1 .12-.29c.063-.103.147-.187.215-.254l.018-.018 2.555-2.555.127-.13-.002-.023-.03-.234a4 4 0 0 1-.03-.47M4 9v-.5a.5.5 0 0 1 .5-.5h.793l.643-.643.026-.026c.09-.09.199-.2.323-.27a.9.9 0 0 1 .346-.117 1 1 0 0 1 .26 0q.11.011.263.032l.01.002Q7.328 7 7.5 7a2.5 2.5 0 1 0-2.477-2.163v.009c.014.1.026.19.033.262.007.07.014.164 0 .26a.9.9 0 0 1-.117.347c-.07.124-.18.233-.27.323l-.026.026-2.555 2.555c-.046.047-.07.07-.085.087L2 8.708V9.7a4 4 0 0 0 .005.294h.006c.059.006.14.006.288.006H3v-.5a.5.5 0 0 1 .5-.5zm3-5.5a.5.5 0 0 1 .5-.5A1.497 1.497 0 0 1 9 4.5a.5.5 0 0 1-1 0 .497.497 0 0 0-.5-.5.5.5 0 0 1-.5-.5" clip-rule="evenodd"/></svg>