<svg xmlns="http://www.w3.org/2000/svg" fill="none" viewBox="0 0 40 38" stroke="inherit"><path fill="#514C49" d="m11.857 11.405 6.996 10.046a1.402 1.402 0 0 0 2.3 0l6.995-10.046A2.803 2.803 0 0 0 25.848 7h-11.69a2.803 2.803 0 0 0-2.3 4.405"/><path fill="#FDC433" d="M22.864 29.545c.497.283 1.07.408 1.64.356L37.3 28.747a1.87 1.87 0 0 0 1.672-2.191 18.7 18.7 0 0 0-6.418-11.048 1.87 1.87 0 0 0-2.731.367L22.48 26.418a2.8 2.8 0 0 0-.503 1.602v-.035c0 .32.082.636.24.915.165.275.398.503.676.662m-5.043-.802a1.87 1.87 0 0 1-.753.802l.04-.023a2.8 2.8 0 0 1-1.64.357L2.7 28.74a1.87 1.87 0 0 1-1.671-2.19 18.7 18.7 0 0 1 6.417-11.048q.063-.052.13-.1a1.87 1.87 0 0 1 2.601.466l7.342 10.543c.327.47.502 1.03.502 1.602v-.046c0 .375-.112.741-.323 1.051"/></svg>