<svg xmlns="http://www.w3.org/2000/svg" fill="none" viewBox="0 0 60 16"><path fill="#514C49" d="m22.115 4.211 2.765 4.923v2.68h1.322v-2.69l2.765-4.913h-1.383l-1.833 3.38-.22.446-.22-.446-1.813-3.38zm9.765 1.765c-1.613 0-2.805 1.209-2.805 2.996s1.192 2.995 2.805 2.995c1.592 0 2.804-1.208 2.804-2.995s-1.212-2.996-2.804-2.996m0 4.894c-.842 0-1.523-.771-1.523-1.898s.681-1.9 1.523-1.9 1.522.773 1.522 1.9-.68 1.898-1.522 1.898m7.662-4.884c-.652 0-1.303.173-1.773.62v-.477h-1.283v5.686h1.283V9.469c0-.558.04-.914.09-1.127.17-.741.841-1.249 1.682-1.208zm5.39 5.829h1.542L43.95 8.799l2.274-2.67h-1.543l-2.003 2.436v-4.32h-1.282v7.57h1.282V9.073zm4.111-5.686h-1.282v5.686h1.282zm-1.342-.63h1.402V4.078h-1.402zm7.457 4.325c-.32.61-.921 1.046-1.602 1.046-.772 0-1.343-.64-1.453-1.411h4.067v-.62c0-1.665-1.132-2.863-2.705-2.863-1.502 0-2.704 1.209-2.704 2.996s1.132 2.995 2.794 2.995c1.042 0 1.974-.559 2.535-1.422zm-3.065-1.441c.16-.813.691-1.31 1.372-1.31.732 0 1.232.548 1.383 1.31zM8.625 5.176l2.77 4.023a.55.55 0 0 0 .91 0l2.77-4.023a1.13 1.13 0 0 0-.276-1.562 1.1 1.1 0 0 0-.634-.201h-4.63c-.612 0-1.11.502-1.11 1.122 0 .23.07.453.2.641"/><path fill="#C2BDBA" d="M12.983 12.44a1.1 1.1 0 0 0 .65.143l5.066-.462a.746.746 0 0 0 .662-.878 7.5 7.5 0 0 0-.886-2.438A7.5 7.5 0 0 0 16.82 6.82a.734.734 0 0 0-1.082.147l-2.907 4.221c-.13.188-.199.412-.199.641v-.013c0 .128.033.254.095.366.066.11.158.201.268.265m-1.997-.321a.75.75 0 0 1-.298.32l.016-.008a1.1 1.1 0 0 1-.65.143L5 12.118l-.064-.008a.75.75 0 0 1-.598-.869 7.5 7.5 0 0 1 .885-2.438 7.5 7.5 0 0 1 1.656-1.986l.051-.04a.735.735 0 0 1 1.03.187l2.907 4.222c.13.188.2.412.2.641v-.018c0 .15-.045.297-.129.42"/></svg>