<svg xmlns="http://www.w3.org/2000/svg" fill="none" viewBox="0 0 24 24"><path fill="#202020" d="m12 2 .263-.702L12 1.199l-.263.099zm10 3.75h.75a.75.75 0 0 0-.487-.702zm-20 0-.263-.702a.75.75 0 0 0-.487.702zm10 8.75.263-.702-.263-.099-.263.099zm0 7.5-.263.702.263.099.263-.099zm10-3.75.263.702a.75.75 0 0 0 .487-.702zm-20 0h-.75a.75.75 0 0 0 .487.702zM21.737 5.048l-10 3.75.526 1.404 10-3.75zM2.263 6.452l10-3.75-.526-1.404-10 3.75zm9.474-3.75 10 3.75.526-1.404-10-3.75zm.526 6.096-10-3.75-.526 1.404 10 3.75zm9.474 8.75-10 3.75.526 1.404 10-3.75zM2.263 18.952l10-3.75-.526-1.404-10 3.75zm9.474-3.75 10 3.75.526-1.404-10-3.75zm.526 6.096-10-3.75-.526 1.404 10 3.75zM21.25 5.75v12.5h1.5V5.75zm-20 0v12.5h1.5V5.75zm10 3.75V22h1.5V9.5z"/></svg>