<svg xmlns="http://www.w3.org/2000/svg" fill="none" viewBox="0 0 24 20" stroke="inherit"><path fill="#514C49" fill-rule="evenodd" d="M6.322.25h11.356c.872 0 1.592 0 2.178.048.61.05 1.169.156 1.695.424a4.33 4.33 0 0 1 1.893 1.894c.259.507.367 1.046.42 1.63.057.178.067.365.033.543.02.487.02 1.051.02 1.7v7.022c0 .873 0 1.592-.048 2.179-.05.608-.157 1.168-.425 1.694a4.33 4.33 0 0 1-1.893 1.894c-.526.268-1.086.374-1.695.424-.586.048-1.306.048-2.178.048H6.322c-.872 0-1.592 0-2.178-.048-.61-.05-1.169-.156-1.695-.424a4.33 4.33 0 0 1-1.893-1.894C.288 16.858.18 16.298.13 15.69c-.048-.587-.048-1.306-.048-2.179V6.49c0-.649 0-1.213.02-1.7a1.1 1.1 0 0 1 .034-.542c.052-.585.16-1.124.419-1.631A4.33 4.33 0 0 1 2.449.722C2.975.454 3.535.348 4.144.298 4.73.25 5.45.25 6.322.25M2.25 6.608v6.859c0 .928 0 1.558.04 2.046.04.475.11.718.196.887.208.408.54.74.947.947.17.086.412.157.887.196.488.04 1.119.04 2.047.04h11.266c.928 0 1.56 0 2.047-.04.475-.04.718-.11.887-.196.408-.207.74-.539.947-.947.086-.17.157-.412.195-.887.04-.488.041-1.118.041-2.046v-6.86l-3.942 2.629-.055.036c-.27.181-.51.34-.776.457a3.3 3.3 0 0 1-.73.22c-.285.052-.572.051-.897.051h-6.7c-.325 0-.612 0-.898-.05a3.3 3.3 0 0 1-.73-.221c-.265-.116-.504-.276-.775-.457l-.055-.036zm19.407-2.543-5.051 3.368c-.356.237-.428.28-.495.31q-.117.051-.244.074c-.072.012-.156.016-.583.016H8.716c-.427 0-.51-.004-.583-.016a1 1 0 0 1-.244-.074c-.067-.03-.14-.073-.495-.31L2.343 4.065c.038-.215.087-.355.143-.465.208-.408.54-.74.947-.947.17-.087.412-.157.887-.196.488-.04 1.119-.04 2.047-.04h11.266c.928 0 1.56 0 2.047.04.475.04.718.11.887.196.408.208.74.539.947.947.056.11.105.25.143.465" clip-rule="evenodd"/></svg>