<svg xmlns="http://www.w3.org/2000/svg" fill="none" viewBox="0 0 12 12" stroke="inherit"><path fill="#807B78" fill-rule="evenodd" d="M3.88 1h4.24c.403 0 .735 0 1.006.022.281.023.54.072.782.196a2 2 0 0 1 .874.874c.124.243.173.501.196.782.022.27.022.603.022 1.005v2.742c0 .402 0 .734-.022 1.005-.023.281-.072.54-.196.782a2 2 0 0 1-.874.874c-.243.124-.501.173-.782.196-.27.022-.603.022-1.005.022H6.84c-.331 0-.428.002-.516.02a1 1 0 0 0-.254.09c-.08.04-.157.099-.416.306l-1.207.966a4 4 0 0 1-.267.202.8.8 0 0 1-.43.146.75.75 0 0 1-.587-.282.8.8 0 0 1-.155-.427A4 4 0 0 1 3 10.185v-.69a2.3 2.3 0 0 1-.518-.063 2 2 0 0 1-1.414-1.414C1 7.762 1 7.466 1 7.068V3.88c0-.403 0-.735.022-1.006.023-.281.072-.54.196-.782a2 2 0 0 1 .874-.874c.243-.124.501-.173.782-.196C3.144 1 3.477 1 3.88 1m-.924 1.019c-.22.018-.332.05-.41.09a1 1 0 0 0-.437.437c-.04.078-.072.19-.09.41C2 3.18 2 3.472 2 3.9V7c0 .497.004.648.034.759a1 1 0 0 0 .707.707c.111.03.262.034.759.034A.5.5 0 0 1 4 9v.96l1.03-.825.034-.026c.211-.17.37-.297.552-.39a2 2 0 0 1 .508-.178c.2-.041.404-.041.675-.041H8.1c.428 0 .72 0 .945-.019.219-.018.33-.05.409-.09a1 1 0 0 0 .437-.437c.04-.078.072-.19.09-.41C10 7.32 10 7.028 10 6.6V3.9c0-.428 0-.72-.019-.944-.018-.22-.05-.332-.09-.41a1 1 0 0 0-.437-.437c-.078-.04-.19-.072-.41-.09A13 13 0 0 0 8.1 2H3.9c-.428 0-.72 0-.944.019M3 5.25a.75.75 0 1 1 1.5 0 .75.75 0 0 1-1.5 0m2.25 0a.75.75 0 1 1 1.5 0 .75.75 0 0 1-1.5 0m2.25 0a.75.75 0 1 1 1.5 0 .75.75 0 0 1-1.5 0" clip-rule="evenodd"/></svg>