<svg xmlns="http://www.w3.org/2000/svg" fill="none" viewBox="0 0 24 24" stroke="inherit"><path fill="#514C49" fill-rule="evenodd" d="M3 11.5a9.5 9.5 0 1 1 6.085 8.868l-.182-.07-.013-.004h-.004l-.157.016-5.121.53q-.017 0-.034.003a7 7 0 0 1-.624.047c-.186.002-.521-.008-.842-.204a1.5 1.5 0 0 1-.7-1.048c-.059-.372.06-.685.132-.856.074-.172.18-.37.283-.559l1.652-3.057c.071-.133.11-.204.135-.257l.004-.008-.007-.024a11 11 0 0 0-.112-.341A9.5 9.5 0 0 1 3 11.5M12.5 4a7.5 7.5 0 0 0-7.11 9.897l.025.073c.081.239.177.519.197.772a1.9 1.9 0 0 1-.056.652c-.062.245-.19.479-.292.668l-.03.054-1.455 2.695 4.744-.49.033-.004c.12-.013.267-.028.412-.023.132.005.243.02.372.05.142.033.296.092.425.142l.04.015A7.5 7.5 0 1 0 12.5 4M8.25 9a1.5 1.5 0 1 1 3 0 1.5 1.5 0 0 1-3 0m5.5 0a1.5 1.5 0 1 1 3 0 1.5 1.5 0 0 1-3 0M9 14c-.753.659-.753.659-.752.66l.001.001.003.004.008.008.02.022.066.07q.082.083.226.215c.192.172.47.396.828.619.714.445 1.77.901 3.1.901a5.85 5.85 0 0 0 3.099-.901 6 6 0 0 0 1.054-.835q.042-.041.066-.069l.02-.022.008-.008.003-.004.001-.001s.001-.002-.751-.66l.752.659a1 1 0 0 0-1.5-1.323l-.002.002-.026.027q-.04.041-.13.124c-.123.11-.31.26-.553.412a3.85 3.85 0 0 1-2.041.599 3.84 3.84 0 0 1-2.042-.599 4 4 0 0 1-.683-.536l-.026-.027-.002-.002a1 1 0 0 0-1.5 1.323zm.75-.66v-.002l-.003-.002m5.504 0v.002l-.002.001-.001.001z" clip-rule="evenodd"/></svg>