<svg xmlns="http://www.w3.org/2000/svg" fill="none" viewBox="0 0 24 24"><path fill="#202020" d="M17.75 12a.75.75 0 0 0-1.5 0zm-10 0a.75.75 0 0 0-1.5 0zm3.5 9a.75.75 0 0 0 1.5 0zm3-9A2.25 2.25 0 0 1 12 14.25v1.5A3.75 3.75 0 0 0 15.75 12zM12 14.25A2.25 2.25 0 0 1 9.75 12h-1.5A3.75 3.75 0 0 0 12 15.75zM15.75 12V6h-1.5v6zm-6 0V6h-1.5v6zm0-6A2.25 2.25 0 0 1 12 3.75v-1.5A3.75 3.75 0 0 0 8.25 6zM12 3.75A2.25 2.25 0 0 1 14.25 6h1.5A3.75 3.75 0 0 0 12 2.25zM16.25 12A4.25 4.25 0 0 1 12 16.25v1.5A5.75 5.75 0 0 0 17.75 12zM12 16.25A4.25 4.25 0 0 1 7.75 12h-1.5A5.75 5.75 0 0 0 12 17.75zm-.75.75v4h1.5v-4z"/></svg>