<svg xmlns="http://www.w3.org/2000/svg" fill="none" viewBox="0 0 24 24" stroke="inherit"><path fill="#202020" d="M17.75 12a.75.75 0 0 0-1.5 0zm-6.5 9a.75.75 0 0 0 1.5 0zm3-12a.75.75 0 0 0 1.5 0zm-5.045 5.5a.75.75 0 0 0 1.118-1zm-1.311 1.525a.75.75 0 0 0 1.07-1.05zM7.75 12a.75.75 0 0 0-1.5 0zm2.975 4.056a.75.75 0 1 0-.45 1.43zM3.47 19.47a.75.75 0 1 0 1.06 1.06zM20.53 4.53a.75.75 0 0 0-1.06-1.06zM9.75 12V6h-1.5v6zm0-6A2.25 2.25 0 0 1 12 3.75v-1.5A3.75 3.75 0 0 0 8.25 6zM12 3.75A2.25 2.25 0 0 1 14.25 6h1.5A3.75 3.75 0 0 0 12 2.25zM16.25 12A4.25 4.25 0 0 1 12 16.25v1.5A5.75 5.75 0 0 0 17.75 12zm-5 5v4h1.5v-4zm4.5-8V6h-1.5v3zm-5.427 4.5A2.24 2.24 0 0 1 9.75 12h-1.5c0 .96.362 1.837.955 2.5zm-1.358 1.475A4.23 4.23 0 0 1 7.75 12h-1.5c0 1.567.628 2.989 1.644 4.025zM12 16.25a4.3 4.3 0 0 1-1.275-.194l-.45 1.43A5.8 5.8 0 0 0 12 17.75zm-7.47 4.28 16-16-1.06-1.06-16 16z"/></svg>