<svg xmlns="http://www.w3.org/2000/svg" fill="none" viewBox="0 0 44 44"><path fill="#F27B2F" fill-rule="evenodd" d="M21.261 2.173c.488-.1.99-.1 1.478 0 .563.115 1.066.397 1.467.622l.109.06 13.567 7.538.115.064c.424.233.957.526 1.366.97.354.384.621.84.785 1.335.19.573.188 1.181.186 1.665v15.146c.002.484.004 1.092-.186 1.665a3.7 3.7 0 0 1-.785 1.335c-.41.444-.942.737-1.366.97l-.115.065-13.567 7.537-.11.06c-.4.225-.903.507-1.466.623-.488.1-.99.1-1.478 0-.563-.116-1.066-.398-1.467-.622q-.055-.032-.109-.061L6.118 33.608l-.115-.064c-.424-.234-.957-.527-1.366-.971a3.7 3.7 0 0 1-.785-1.335c-.19-.573-.187-1.181-.186-1.665V14.427c-.001-.483-.004-1.092.186-1.665.164-.496.431-.95.785-1.335.41-.444.942-.737 1.366-.97l.115-.064 13.567-7.537.11-.061c.4-.225.903-.507 1.466-.622m.739 3.6-.009.005c-.105.05-.247.129-.525.283l-12.19 6.773L22 19.903l12.725-7.07-12.19-6.772c-.279-.154-.42-.232-.526-.284zM36.667 15.95v13.492a12 12 0 0 1-.01.642l-.008.006c-.105.066-.255.15-.548.313l-12.268 6.816v-14.14zm-16.5 7.13L7.333 15.95v13.492a12 12 0 0 0 .01.642l.008.006c.105.066.255.15.548.313l12.268 6.816z" clip-rule="evenodd"/><path fill="#F27B2F" fill-rule="evenodd" d="M12.147 7.36a1.833 1.833 0 0 1 2.493-.712l16.5 9.166a1.833 1.833 0 0 1-1.78 3.206l-16.5-9.167a1.833 1.833 0 0 1-.713-2.493" clip-rule="evenodd"/></svg>