<svg xmlns="http://www.w3.org/2000/svg" fill="none" viewBox="0 0 36 36"><rect width="36" height="36" fill="#514C49" rx="8"/><g clip-path="url(#a)"><path fill="#514C49" stroke="#FEFDFB" stroke-width=".5" d="m9.732 23.39.25.024-.25-.024a2.95 2.95 0 0 0 2.653 3.21l.024-.25-.024.25a3.8 3.8 0 0 0 1.584-.188l5.461-1.883c.291-.1.562-.252.8-.448l9.048-7.48a1.58 1.58 0 0 0 .37-1.988 21.5 21.5 0 0 0-4.898-5.925l-.16.192.16-.192a1.58 1.58 0 0 0-2.02-.009l-9.05 7.48a2.6 2.6 0 0 0-.59.701l-2.876 5.01.217.125-.216-.125a3.8 3.8 0 0 0-.483 1.52Z"/><path fill="#514C49" stroke="#FEFDFB" stroke-width=".5" d="M12.876 26.374c-.212.2-.35.256-.565.345l-.096-.23.096.23-.01.004c-.763.315-1.347.556-1.792.706-.432.146-.79.227-1.072.164A1.58 1.58 0 0 1 8.202 26.1c-.01-.29.138-.626.363-1.023.231-.409.577-.937 1.03-1.627l.005-.009c.129-.195.21-.32.446-.49.14-.102.368-.179.567-.227.2-.047.438-.082.608-.055.121.02.2.034.256.05zm0 0c.126-.118.245-.328.329-.515s.163-.414.168-.586a3 3 0 0 0 0-.261.5.5 0 0 0-.031-.15m-.466 1.512.466-1.512m0 0a3.8 3.8 0 0 0-.68-1.193m.68 1.193-.68-1.193m0 0c-.344-.417-.71-.7-1.044-.892z"/><path fill="#FEFDFB" d="M19.55 20.859a.935.935 0 0 1-1.414-.268 6.1 6.1 0 0 0-1.422-1.72.935.935 0 0 1 .004-1.438l7.01-5.796c.319-.263.478-.395.632-.478a1.78 1.78 0 0 1 1.967.187c.135.11.267.27.53.588s.395.477.478.632a1.78 1.78 0 0 1-.187 1.966c-.11.136-.27.267-.588.53z"/></g><defs><clipPath id="a"><path fill="#fff" d="M11 36 .239 22.983 24.9 2.593 35.663 15.61z"/></clipPath></defs></svg>