<svg xmlns="http://www.w3.org/2000/svg" fill="none" viewBox="0 0 12 12" stroke="inherit"><g clip-path="url(#a)"><path fill="#A6A19E" fill-rule="evenodd" d="m6.415.515.025.003a5.5 5.5 0 0 1 5.043 5.043l.002.024c.008.091.027.286-.053.468a.76.76 0 0 1-.33.357.75.75 0 0 1-.294.084 2 2 0 0 1-.196.006H6.39c-.06 0-.131 0-.194-.005a.8.8 0 0 1-.285-.077.75.75 0 0 1-.328-.327.8.8 0 0 1-.077-.286C5.5 5.742 5.5 5.671 5.5 5.612V1.388c0-.058 0-.131.006-.196A.75.75 0 0 1 5.59.898a.76.76 0 0 1 .358-.33.94.94 0 0 1 .467-.053M6.5 1.528V5.5h3.972A4.5 4.5 0 0 0 6.5 1.528m-2.042-.313a.5.5 0 0 1-.258.658 4.5 4.5 0 1 0 5.945 5.877.5.5 0 1 1 .92.39A5.5 5.5 0 1 1 3.8.957a.5.5 0 0 1 .658.258" clip-rule="evenodd"/></g><defs><clipPath id="a"><path fill="#fff" d="M0 0h12v12H0z"/></clipPath></defs></svg>