<svg xmlns="http://www.w3.org/2000/svg" fill="none" viewBox="0 0 24 24"><path fill="#202020" d="m9 8 .335-.67A.75.75 0 0 0 8.25 8zm8 4 .335.67a.75.75 0 0 0 0-1.34zm-8 4h-.75a.75.75 0 0 0 1.085.67zm-.335-7.33 8 4 .67-1.34-8-4zm8 2.66-8 4 .67 1.34 8-4zM8.25 8v8h1.5V8zm13 4A9.25 9.25 0 0 1 12 21.25v1.5c5.937 0 10.75-4.813 10.75-10.75zM12 21.25A9.25 9.25 0 0 1 2.75 12h-1.5c0 5.937 4.813 10.75 10.75 10.75zM2.75 12A9.25 9.25 0 0 1 12 2.75v-1.5C6.063 1.25 1.25 6.063 1.25 12zM12 2.75A9.25 9.25 0 0 1 21.25 12h1.5c0-5.937-4.813-10.75-10.75-10.75z"/></svg>