<svg xmlns="http://www.w3.org/2000/svg" fill="none" viewBox="0 0 24 24" stroke="inherit"><path fill="#202020" d="M5.5 14.75a.75.75 0 0 0 0 1.5zm13 1.5a.75.75 0 0 0 0-1.5zm-10.5.5a.75.75 0 0 0 0 1.5zm8 1.5a.75.75 0 0 0 0-1.5zm-8 .5a.75.75 0 0 0 0 1.5zm8 1.5a.75.75 0 0 0 0-1.5zm-10-2.5H4.5v1.5H6zm-1.5 0a.25.25 0 0 1-.25-.25h-1.5c0 .966.784 1.75 1.75 1.75zm-.25-.25v-10h-1.5v10zm0-10a.25.25 0 0 1 .25-.25v-1.5A1.75 1.75 0 0 0 2.75 7.5zm.25-.25h15v-1.5h-15zm15 0a.25.25 0 0 1 .25.25h1.5a1.75 1.75 0 0 0-1.75-1.75zm.25.25v10h1.5v-10zm0 10a.25.25 0 0 1-.25.25v1.5a1.75 1.75 0 0 0 1.75-1.75zm-.25.25H18v1.5h1.5zm-2.25-2.25v5h1.5v-5zm0 5a.25.25 0 0 1-.25.25v1.5a1.75 1.75 0 0 0 1.75-1.75zm-.25.25H7v1.5h10zm-10 0a.25.25 0 0 1-.25-.25h-1.5c0 .966.784 1.75 1.75 1.75zm-.25-.25v-5h-1.5v5zm0-14v-3h-1.5v3zm0-3A.25.25 0 0 1 7 3.25v-1.5A1.75 1.75 0 0 0 5.25 3.5zM7 3.25h10v-1.5H7zm10 0a.25.25 0 0 1 .25.25h1.5A1.75 1.75 0 0 0 17 1.75zm.25.25v3h1.5v-3zM5.5 16.25h13v-1.5h-13zm2.5 2h8v-1.5H8zm0 2h8v-1.5H8z"/></svg>