<svg xmlns="http://www.w3.org/2000/svg" fill="none" viewBox="0 0 12 12" stroke="inherit"><path fill="#A6A19E" fill-rule="evenodd" d="M6.177 2.073a.25.25 0 1 0-.354.354.25.25 0 0 0 .354-.354m-1.06-.707a1.25 1.25 0 0 1 2.131.818l1.855.696.013-.014a1.25 1.25 0 1 1-.364.95L6.897 3.12l-.013.014a1.25 1.25 0 0 1-1.5.204L3.216 4.963a1.25 1.25 0 1 1-.6-.8l2.166-1.626a1.25 1.25 0 0 1 .333-1.17m5.06 2.207a.25.25 0 1 0-.354.354.25.25 0 0 0 .354-.354m-8 1.5a.25.25 0 1 0-.354.354.25.25 0 0 0 .354-.354M6 4.5a.5.5 0 0 1 .5.5v5a.5.5 0 0 1-1 0V5a.5.5 0 0 1 .5-.5M10 6a.5.5 0 0 1 .5.5V10a.5.5 0 0 1-1 0V6.5A.5.5 0 0 1 10 6M2 7.5a.5.5 0 0 1 .5.5v2a.5.5 0 0 1-1 0V8a.5.5 0 0 1 .5-.5" clip-rule="evenodd"/></svg>