<svg xmlns="http://www.w3.org/2000/svg" fill="none" viewBox="0 0 24 24"><path fill="#514C49" fill-rule="evenodd" d="M5 3a2 2 0 1 0 0 4 2 2 0 0 0 0-4M1 5a4 4 0 1 1 8 0 4 4 0 0 1-8 0m14.353 1.065C14.57 6.001 13.477 6 11.934 6H11.5a1 1 0 1 1 0-2h.485c1.48 0 2.657 0 3.532.072.445.036.858.094 1.219.197.36.102.731.265 1.035.552a3 3 0 0 1 .88 2.767c-.082.41-.291.758-.526 1.049-.236.292-.54.578-.882.865-.673.564-1.633 1.243-2.842 2.098l-4.106 2.904c-1.26.89-2.151 1.522-2.753 2.027a4.6 4.6 0 0 0-.61.589.7.7 0 0 0-.122.187 1 1 0 0 0 .291.917c.006.004.057.04.208.083.182.052.45.096.838.128.783.064 1.876.065 3.419.065h.934a1 1 0 1 1 0 2h-.985c-1.48 0-2.656 0-3.532-.072a6.5 6.5 0 0 1-1.219-.197c-.36-.102-.731-.265-1.035-.552a3 3 0 0 1-.88-2.767c.082-.41.291-.758.526-1.049.236-.292.54-.578.882-.865.673-.564 1.633-1.243 2.842-2.098l4.106-2.904c1.26-.89 2.151-1.522 2.753-2.027.299-.25.492-.441.61-.589a.7.7 0 0 0 .122-.187 1 1 0 0 0-.291-.917.7.7 0 0 0-.208-.083 4.6 4.6 0 0 0-.838-.128M19 17a2 2 0 1 0 0 4 2 2 0 0 0 0-4m-4 2a4 4 0 1 1 8 0 4 4 0 0 1-8 0" clip-rule="evenodd"/></svg>