<svg xmlns="http://www.w3.org/2000/svg" fill="none" viewBox="0 0 24 24"><path stroke="#202020" stroke-width="1.5" d="M8.676 7.324a5.74 5.74 0 0 1 6.648 0m1.352 1.352a5.74 5.74 0 0 1 0 6.648m-9.352 0a5.74 5.74 0 0 1 0-6.648m8 8a5.74 5.74 0 0 1-6.648 0m-3.903 1.097a9.25 9.25 0 0 1 0-11.546m1.454-1.454a9.25 9.25 0 0 1 11.546 0m1.454 1.454a9.25 9.25 0 0 1 0 11.546m-1.454 1.454a9.25 9.25 0 0 1-11.546 0M8.464 8.464a1 1 0 0 1-1.414 0l-2.12-2.12a1 1 0 0 1 1.414-1.415l2.12 2.121a1 1 0 0 1 0 1.414Zm10.607 10.607a1 1 0 0 1-1.414 0l-2.121-2.121a1 1 0 0 1 1.414-1.414l2.121 2.12a1 1 0 0 1 0 1.415ZM15.535 8.464a1 1 0 0 1 0-1.414l2.122-2.121a1 1 0 1 1 1.414 1.414L16.95 8.464a1 1 0 0 1-1.414 0ZM4.93 19.071a1 1 0 0 1 0-1.414l2.121-2.121a1 1 0 0 1 1.414 1.414l-2.12 2.121a1 1 0 0 1-1.415 0Z"/></svg>