<svg xmlns="http://www.w3.org/2000/svg" fill="none" viewBox="0 0 152 40"><rect width="40" height="40" x="56" fill="url(#a)" rx="20"/><path fill="#FEFDFB" fill-rule="evenodd" d="M76 12.889a3.111 3.111 0 1 0 0 6.222 3.111 3.111 0 0 0 0-6.222m-4.889 3.11a4.889 4.889 0 1 1 9.778 0 4.889 4.889 0 0 1-9.778 0m4.89 8.445c-2.837 0-5.429 1.235-7.354 3.277a.889.889 0 0 1-1.294-1.22c2.228-2.362 5.274-3.835 8.647-3.835s6.42 1.473 8.647 3.835a.889.889 0 0 1-1.294 1.22c-1.925-2.042-4.516-3.277-7.353-3.277" clip-rule="evenodd"/><rect width="40" height="40" fill="url(#b)" rx="20"/><path fill="#FEFDFB" fill-rule="evenodd" d="M20 12.889a3.111 3.111 0 1 0 0 6.222 3.111 3.111 0 0 0 0-6.222m-4.889 3.11a4.889 4.889 0 1 1 9.778 0 4.889 4.889 0 0 1-9.778 0m4.89 8.445c-2.837 0-5.429 1.235-7.354 3.277a.889.889 0 0 1-1.293-1.22c2.227-2.362 5.273-3.835 8.646-3.835s6.42 1.473 8.647 3.835a.889.889 0 0 1-1.293 1.22c-1.926-2.042-4.517-3.277-7.354-3.277" clip-rule="evenodd"/><rect width="40" height="40" x="112" fill="url(#c)" rx="20"/><path fill="#FEFDFB" fill-rule="evenodd" d="M132 12.889a3.111 3.111 0 1 0 0 6.222 3.111 3.111 0 0 0 0-6.222m-4.889 3.11a4.89 4.89 0 1 1 9.778.001 4.89 4.89 0 0 1-9.778 0M132 24.445c-2.836 0-5.428 1.235-7.353 3.277a.89.89 0 0 1-1.294-1.22c2.228-2.362 5.274-3.835 8.647-3.835s6.42 1.473 8.647 3.835a.889.889 0 1 1-1.294 1.22c-1.925-2.042-4.516-3.277-7.353-3.277" clip-rule="evenodd"/><defs><linearGradient id="a" x1="76" x2="76" y1="0" y2="40" gradientUnits="userSpaceOnUse"><stop stop-color="#FC94D8"/><stop offset="1" stop-color="#F44954"/></linearGradient><linearGradient id="b" x1="20" x2="20" y1="0" y2="40" gradientUnits="userSpaceOnUse"><stop stop-color="#FDC433"/><stop offset="1" stop-color="#FE924D"/></linearGradient><linearGradient id="c" x1="132" x2="132" y1="0" y2="40" gradientUnits="userSpaceOnUse"><stop stop-color="#84B5FF"/><stop offset="1" stop-color="#855CF9"/></linearGradient></defs></svg>