<svg xmlns="http://www.w3.org/2000/svg" fill="none" viewBox="0 0 24 24" stroke="inherit"><rect width="24" height="24" fill="url(#a)" rx="12"/><path fill="#FEFDFB" fill-rule="evenodd" d="M12 7.733a1.867 1.867 0 1 0 0 3.733 1.867 1.867 0 0 0 0-3.733M9.065 9.6a2.933 2.933 0 1 1 5.867 0 2.933 2.933 0 0 1-5.867 0m2.933 5.066c-1.702 0-3.257.741-4.412 1.966a.533.533 0 1 1-.776-.732c1.337-1.417 3.164-2.3 5.188-2.3s3.852.883 5.188 2.3a.533.533 0 1 1-.776.732c-1.155-1.225-2.71-1.966-4.412-1.966" clip-rule="evenodd"/><defs><linearGradient id="a" x1="12" x2="12" y1="0" y2="24" gradientUnits="userSpaceOnUse"><stop stop-color="#84B5FF"/><stop offset="1" stop-color="#855CF9"/></linearGradient></defs></svg>