<svg xmlns="http://www.w3.org/2000/svg" fill="none" viewBox="0 0 24 24"><path stroke="#202020" stroke-linecap="round" stroke-width="1.5" d="M16 12a4 4 0 1 1-8 0 4 4 0 0 1 8 0Z"/><path stroke="#202020" stroke-linecap="round" stroke-width="1.5" d="m10.482 3.272-.794.925a2 2 0 0 1-1.74.686l-.963-.107a2 2 0 0 0-2.209 2.209l.107.964a2 2 0 0 1-.686 1.74l-.925.793a2 2 0 0 0 0 3.037l.925.793a2 2 0 0 1 .686 1.74l-.107.963a2 2 0 0 0 2.209 2.209l.964-.107a2 2 0 0 1 1.74.686l.793.925a2 2 0 0 0 3.037 0l.793-.925a2 2 0 0 1 1.74-.686l.963.107a2 2 0 0 0 2.209-2.209l-.107-.964a2 2 0 0 1 .686-1.74l.925-.793a2 2 0 0 0 0-3.036l-.925-.794a2 2 0 0 1-.686-1.74l.107-.963a2 2 0 0 0-2.209-2.209l-.964.107a2 2 0 0 1-1.74-.686l-.792-.925a2 2 0 0 0-3.037 0Z"/></svg>