<svg xmlns="http://www.w3.org/2000/svg" fill="none" viewBox="0 0 462 216"><rect width="177.146" height="99" x=".5" y=".5" fill="#FEFDFB" rx="7.5"/><circle cx="52" cy="50" r="20" fill="#F27B2F"/><path fill="#764AF3" d="M71.072 32h36v36h-36z"/><circle cx="126.146" cy="50" r="20" fill="#F27B2F"/><rect width="177.146" height="99" x=".5" y=".5" stroke="#C2BDBA" rx="7.5"/><rect width="177.146" height="99" x="89.572" y="116.5" fill="#FEFDFB" rx="7.5"/><circle cx="141.072" cy="166" r="20" fill="#F27B2F"/><path fill="#764AF3" d="M160.145 148h36v36h-36z"/><circle cx="215.219" cy="166" r="20" fill="#F27B2F"/><rect width="177.146" height="99" x="89.572" y="116.5" stroke="#C2BDBA" rx="7.5"/><rect width="177.146" height="99" x="194.48" y=".5" fill="#FEFDFB" rx="7.5"/><circle cx="245.98" cy="50" r="20" fill="#F27B2F"/><path fill="#764AF3" d="M265.053 32h36v36h-36z"/><circle cx="320.127" cy="50" r="20" fill="#F27B2F"/><rect width="177.146" height="99" x="194.48" y=".5" stroke="#C2BDBA" rx="7.5"/><rect width="177.146" height="99" x="283.555" y="116.5" fill="#FEFDFB" rx="7.5"/><circle cx="335.055" cy="166" r="20" fill="#F27B2F"/><path fill="#764AF3" d="M354.127 148h36v36h-36z"/><circle cx="409.201" cy="166" r="20" fill="#F27B2F"/><rect width="177.146" height="99" x="283.555" y="116.5" stroke="#C2BDBA" rx="7.5"/></svg>