<svg xmlns="http://www.w3.org/2000/svg" fill="none" viewBox="0 0 459 216"><path fill="#FDA36A" d="M28 123h16.186v64H28zm32.185-64h16.186v128H60.185zm32.188 80h16.186v48H92.373zm32.186 0h16.186v48h-16.186zm32.187-16h16.186v64h-16.186zm32.186 0h16.186v64h-16.186zm32.187-24h16.186v88h-16.186zm32.186-70h16.186v158h-16.186zm32.187 30h16.186v128h-16.186zm32.186 56h16.186v72h-16.186zm32.185-56h16.186v128h-16.186zm32.188-30h16.186v158h-16.186zm32.185 86h16.186v72h-16.186z"/><path stroke="#E93D47" stroke-width=".5" d="M430.424 187.25H28"/><rect width="457.423" height="215" x=".5" y=".5" stroke="#C2BDBA" rx="7.5"/></svg>