<svg xmlns="http://www.w3.org/2000/svg" fill="none" viewBox="0 0 16 16" stroke="inherit"><g clip-path="url(#a)"><path fill="#FEFDFB" fill-rule="evenodd" d="M10 .667c.276 0 .523.17.622.427l.786 2.043c.2.52.263.67.35.792q.13.183.313.314c.121.086.271.149.792.349l2.043.786a.667.667 0 0 1 0 1.244l-2.043.786c-.52.2-.67.263-.792.35a1.3 1.3 0 0 0-.314.313c-.086.121-.149.271-.35.792l-.785 2.043a.667.667 0 0 1-1.244 0l-.786-2.043c-.2-.52-.263-.67-.35-.792a1.3 1.3 0 0 0-.313-.314c-.121-.086-.272-.149-.792-.35l-2.043-.785a.667.667 0 0 1 0-1.244l2.043-.786c.52-.2.67-.263.792-.35q.183-.13.314-.313c.086-.121.149-.272.349-.792l.786-2.043A.67.67 0 0 1 10 .667m0 2.523-.164.425-.026.068c-.162.423-.285.743-.48 1.018a2.7 2.7 0 0 1-.629.628c-.275.196-.595.319-1.018.481l-.068.026L7.19 6l.425.163.069.027c.422.162.742.285 1.017.48q.367.261.628.628c.196.276.319.595.481 1.018l.026.068.164.425.163-.425.027-.068c.162-.423.285-.742.48-1.018.173-.243.386-.455.628-.628.276-.195.595-.318 1.018-.48l.068-.027L12.81 6l-.425-.164-.068-.026c-.423-.162-.742-.285-1.018-.48a2.7 2.7 0 0 1-.627-.629c-.196-.275-.32-.595-.481-1.018l-.027-.068zM4.333 8c.253 0 .484.143.596.368l.523 1.046c.189.377.246.485.316.576q.105.136.242.242c.09.07.199.127.575.315l1.046.523a.667.667 0 0 1 0 1.193l-1.046.523c-.376.188-.485.245-.575.315q-.136.105-.242.242c-.07.09-.127.2-.316.576l-.523 1.046a.667.667 0 0 1-1.192 0l-.523-1.046c-.188-.377-.246-.485-.316-.576a1.3 1.3 0 0 0-.242-.242c-.09-.07-.198-.127-.575-.315l-1.046-.523a.667.667 0 0 1 0-1.193l1.046-.523c.377-.188.485-.245.575-.315q.138-.105.242-.242c.07-.09.128-.199.316-.576l.523-1.046A.67.67 0 0 1 4.333 8m0 2.157a4 4 0 0 1-.379.647q-.21.273-.484.484a4 4 0 0 1-.646.378c.26.13.463.238.646.38q.274.21.484.483c.142.183.249.387.38.647.13-.26.237-.464.378-.647q.21-.273.484-.484c.183-.141.387-.248.646-.379a4 4 0 0 1-.646-.378 2.7 2.7 0 0 1-.484-.484 4 4 0 0 1-.379-.647" clip-rule="evenodd"/></g><defs><clipPath id="a"><path fill="#fff" d="M0 0h16v16H0z"/></clipPath></defs></svg>