<svg xmlns="http://www.w3.org/2000/svg" fill="none" viewBox="0 0 22 21"><path fill="#FDC433" d="M10.283 2.454c.23-.467.345-.7.502-.775a.5.5 0 0 1 .43 0c.157.074.272.308.502.775l2.187 4.43c.068.137.102.206.152.26a.5.5 0 0 0 .155.113c.067.03.143.042.295.064l4.891.715c.515.075.773.113.892.239a.5.5 0 0 1 .133.409c-.023.172-.21.353-.582.717l-3.54 3.446c-.11.107-.165.16-.2.225a.5.5 0 0 0-.06.183c-.009.072.004.148.03.3l.835 4.867c.088.514.132.77.05.923a.5.5 0 0 1-.349.253c-.17.031-.4-.09-.862-.332l-4.373-2.3a1.1 1.1 0 0 0-.276-.122.5.5 0 0 0-.192 0c-.072.015-.14.05-.276.122l-4.373 2.3c-.461.242-.692.363-.862.332a.5.5 0 0 1-.348-.253c-.083-.153-.039-.41.05-.923l.834-4.867c.026-.152.039-.228.03-.3a.5.5 0 0 0-.06-.183c-.035-.064-.09-.118-.2-.225L2.16 9.4c-.373-.364-.56-.545-.582-.717a.5.5 0 0 1 .132-.41c.12-.125.377-.163.892-.238l4.891-.715c.152-.022.228-.033.295-.064a.5.5 0 0 0 .155-.113c.05-.054.084-.123.152-.26z"/><path fill="#FDC433" d="m7.494 7.321.145.99zm.295-.064-.422-.907zm.307-.373-.897-.443zm-.152.26.733.68zM2.161 9.4l-.698.716zm-.582-.717.99-.13zm1.024-.648-.145-.99zm-.892.239-.726-.688zm4.218 5.28-.986-.17zm.03-.3.993-.12zm-.26-.408.697-.717zm.2.225.874-.487zm.356 6.194.465.885zm-.862.332-.182.983zm-.299-1.176.986.17zm-.05.923-.878.477zm6.328-2.379-.465.885zm-.276-.122.193-.98zm-.468.122-.466-.885zm.276-.122.192.982zm6.002 1.578.986-.169zm.05.923-.88-.478zm-1.21-.08.465-.884zm.861.333-.182-.983zm-.306-6.751.698.716zm-.2.225.873.486zm-.03.483-.986.169zm-.03-.3-.993-.12zm3.356-5.22.145-.989zm.892.24.726-.688zm-.45 1.126-.697-.717zm.583-.717-.992-.13zm-6.518-1.8.897-.443zm.152.26-.733.68zm.45.177-.145.99zm-.295-.064.422-.907zm-2.494-4.803-.896.442zm-.502-.775.43-.903zm-.932.775.896.442zm.502-.775-.43-.903zm.036 1.217 2.186 4.43 1.794-.885-2.187-4.43zm3.54 5.414 4.891.715.29-1.979-4.892-.714zm4.78.374-3.537 3.446 1.395 1.433 3.538-3.446zm-4.055 5.04.834 4.867 1.972-.338-.835-4.867zm1.125 4.657-4.373-2.3-.931 1.77 4.373 2.3zm-6.049-2.3-4.373 2.3.931 1.77 4.373-2.3zM6.08 18.59l.834-4.867-1.97-.338-.836 4.867zm.316-6.46L2.858 8.683l-1.395 1.433L5 13.563zM2.748 9.024l4.89-.715-.288-1.978-4.892.714zm6.245-1.699 2.186-4.43-1.793-.885-2.187 4.43zm-1.354.984c.092-.013.341-.04.571-.146L7.367 6.35l.078-.03.03-.008-.01.002-.064.01-.051.008zm-.44-1.87-.023.047-.034.067.017-.026.053-.065 1.465 1.361c.172-.185.275-.415.316-.498zM8.21 8.165a1.5 1.5 0 0 0 .467-.34l-1.465-1.36a.5.5 0 0 1 .155-.114zm-5.352.52-.233-.229a3 3 0 0 1-.127-.135c-.026-.03-.018-.025 0 .005a.7.7 0 0 1 .072.228l-1.983.262c.051.388.27.663.391.806.133.155.313.328.485.496zm-.4-1.638c-.237.035-.485.07-.683.118-.183.044-.52.14-.79.423l1.452 1.375a.6.6 0 0 1-.193.142c-.031.015-.04.014-.002.005.037-.01.093-.02.182-.035l.324-.049zm.112 1.507a.5.5 0 0 1-.133.41L.985 7.586a1.5 1.5 0 0 0-.398 1.228zm4.344 5.171c.016-.091.068-.338.038-.59l-1.986.241-.004-.084q.001-.032.002-.03l-.006.035-.015.09zm-1.913-.161.037.036.028.028.018.018.007.007-.02-.023-.045-.07 1.747-.974c-.123-.222-.31-.39-.377-.455zm1.95-.429a1.5 1.5 0 0 0-.178-.549l-1.747.973a.5.5 0 0 1-.06-.183zM5.79 18.381c-.117.061-.21.11-.29.15-.08.041-.132.065-.167.08-.037.015-.03.01.004.002a.6.6 0 0 1 .24.002L5.21 20.58c.384.071.714-.05.887-.123.189-.078.41-.195.622-.307zm-1.68-.128c-.041.237-.084.483-.1.687-.015.187-.03.538.157.882l1.757-.955a.6.6 0 0 1 .076.228c.004.034 0 .042.003.003.003-.038.01-.095.024-.184.014-.088.031-.192.054-.323zm1.466.361a.5.5 0 0 1 .348.253l-1.757.955a1.5 1.5 0 0 0 1.045.759zm6.263-2.533c-.082-.043-.3-.169-.55-.218l-.384 1.963-.081-.022q-.03-.012-.029-.01l.01.003.022.012.035.018.046.024zm-.745 1.77.046-.024.035-.018.023-.012.009-.004-.029.011-.08.022-.386-1.963c-.249.05-.467.175-.549.218zm.196-1.988a1.5 1.5 0 0 0-.578 0l.385 1.963a.5.5 0 0 1-.192 0zm4.631 2.728c.023.131.04.235.054.323.014.09.02.146.024.184.003.04 0 .031.003-.003a.6.6 0 0 1 .076-.228l1.757.955c.187-.344.172-.695.158-.882-.017-.204-.06-.45-.1-.687zm-.64 1.56c.213.112.433.229.622.307.173.072.503.194.887.123l-.364-1.966c.113-.022.2-.01.24-.002.033.007.04.013.003-.002a3 3 0 0 1-.167-.08c-.08-.04-.173-.089-.29-.15zm.797-1.284a.5.5 0 0 1 .348-.253l.364 1.967a1.5 1.5 0 0 0 1.045-.759zm-.473-6.737c-.067.065-.254.233-.377.455l1.747.973-.046.07-.019.024.007-.007.018-.018.028-.028.037-.036zm1.453 1.256-.009-.051-.006-.039-.004-.025-.002-.01q.001-.002.002.03l-.004.084-1.986-.24c-.03.252.022.498.037.589zm-1.83-.8a1.5 1.5 0 0 0-.179.548l1.986.241a.5.5 0 0 1-.06.183zm4.025-3.56.324.048c.089.015.145.026.181.035.039.009.03.01-.001-.005a.6.6 0 0 1-.193-.142l1.452-1.375c-.27-.284-.607-.379-.79-.423-.198-.048-.446-.083-.683-.118zm1.285 1.091c.172-.168.352-.341.485-.496.122-.143.34-.418.39-.806l-1.982-.262a.6.6 0 0 1 .073-.228c.017-.03.025-.035-.001-.005-.024.029-.063.07-.127.135-.063.064-.138.137-.233.23zm-.974-1.155a.5.5 0 0 1-.133-.409l1.983.262a1.5 1.5 0 0 0-.398-1.228zm-6.556-1.636c.041.083.144.313.316.498l1.465-1.36.053.064.017.026-.005-.009-.012-.023-.017-.035-.023-.046zm1.643-.994-.05-.008-.065-.01-.01-.002.03.008.078.03-.843 1.814c.23.107.48.133.571.146zm-1.327 1.492a1.5 1.5 0 0 0 .467.34l.843-1.814a.5.5 0 0 1 .155.113zm-.709-5.813a8 8 0 0 0-.323-.614c-.098-.16-.292-.453-.645-.621l-.861 1.805a.6.6 0 0 1-.194-.14c-.024-.025-.026-.034-.005 0 .02.032.047.082.088.163.042.08.088.173.147.292zm-1.435.885c.06-.119.105-.213.146-.292.042-.08.07-.13.09-.163.02-.034.018-.025-.005 0a.6.6 0 0 1-.195.14l-.86-1.805c-.354.168-.548.46-.646.62-.107.175-.217.4-.323.615zm.467-2.12a1.5 1.5 0 0 0-1.292 0l.861 1.805a.5.5 0 0 1-.43 0z"/></svg>