<svg xmlns="http://www.w3.org/2000/svg" fill="none" viewBox="0 0 24 24" stroke="inherit"><path fill="#332E2B" fill-rule="evenodd" d="M16 3a5 5 0 0 0-4.858 6.188l.005.02c.055.228.104.428.137.59.03.153.067.364.052.584-.02.298-.082.518-.22.783-.146.283-.394.53-.6.734l-.06.06-6.249 6.248a1.121 1.121 0 0 0 1.586 1.586l6.248-6.248.06-.06c.205-.206.452-.455.734-.601.266-.138.485-.2.784-.22.219-.015.43.022.584.053.161.032.361.08.59.136l.019.005q.57.14 1.188.142a5 5 0 0 0 4.97-5.555l-1.654 1.653a9 9 0 0 1-.511.488 2 2 0 0 1-.687.402 2 2 0 0 1-1.236 0 2 2 0 0 1-.686-.402 9 9 0 0 1-.512-.488l-.782-.782c-.178-.179-.352-.352-.487-.512a2 2 0 0 1-.403-.686 2 2 0 0 1 0-1.236 2 2 0 0 1 .402-.686c.136-.16.31-.333.488-.512l1.654-1.654A5 5 0 0 0 16 3M9 8a7 7 0 0 1 9.882-6.38 1 1 0 0 1 .295 1.617L16.34 6.076c-.21.21-.324.325-.4.414l-.008.01.008.01c.076.09.19.205.4.414l.737.738c.21.21.325.323.414.4l.01.008.01-.009c.09-.076.205-.19.414-.4l2.839-2.838a1 1 0 0 1 1.618.295 7 7 0 0 1-8.043 9.683 16 16 0 0 0-.583-.134l-.012.011a9 9 0 0 0-.288.281l-6.248 6.248a3.121 3.121 0 1 1-4.414-4.414l6.248-6.248a9 9 0 0 0 .281-.287l.01-.013-.01-.053a16 16 0 0 0-.123-.53A7 7 0 0 1 9 8m.35 2.229-.005.016v.002l-.005.017v.001" clip-rule="evenodd"/></svg>