<svg xmlns="http://www.w3.org/2000/svg" fill="none" viewBox="0 0 32 32"><rect width="30" height="30" x="1" y="1" fill="#FEFDFB" rx="6"/><path fill="#A6A19E" fill-rule="evenodd" d="M9.214 0h13.572c1.288 0 2.351 0 3.217.07.9.074 1.726.232 2.503.628a6.4 6.4 0 0 1 2.796 2.796c.396.777.554 1.604.627 2.503C32 6.863 32 7.926 32 9.214v13.572c0 1.288 0 2.351-.07 3.217-.074.9-.232 1.726-.628 2.503a6.4 6.4 0 0 1-2.796 2.796c-.777.396-1.604.554-2.503.627-.866.071-1.929.071-3.217.071H9.214c-1.288 0-2.351 0-3.217-.07-.9-.074-1.726-.232-2.503-.628a6.4 6.4 0 0 1-2.796-2.796c-.396-.777-.554-1.604-.627-2.503C0 25.137 0 24.074 0 22.786V9.214c0-1.288 0-2.351.07-3.217.074-.9.232-1.726.628-2.503A6.4 6.4 0 0 1 3.494.698C4.271.302 5.098.144 5.997.07 6.863 0 7.926 0 9.214 0M6.258 3.26c-.702.057-1.06.161-1.31.289a3.2 3.2 0 0 0-1.4 1.398c-.127.25-.23.61-.288 1.31-.059.72-.06 1.652-.06 3.023v13.44c0 1.37.001 2.302.06 3.022.057.702.161 1.06.289 1.31a3.2 3.2 0 0 0 1.398 1.4c.25.127.61.23 1.31.288.72.059 1.652.06 3.023.06h13.44c1.37 0 2.302-.001 3.022-.06.702-.057 1.06-.161 1.31-.289a3.2 3.2 0 0 0 1.4-1.398c.127-.25.23-.61.288-1.31.059-.72.06-1.652.06-3.023V9.28c0-1.37-.001-2.302-.06-3.022-.057-.702-.161-1.06-.289-1.31a3.2 3.2 0 0 0-1.398-1.4c-.25-.127-.61-.23-1.31-.288-.72-.059-1.652-.06-3.023-.06H9.28c-1.37 0-2.302.001-3.022.06m8.61 5.209a1.6 1.6 0 0 1 2.263 0l6.4 6.4a1.6 1.6 0 0 1-2.262 2.262L17.6 13.463V22.4a1.6 1.6 0 1 1-3.2 0v-8.937l-3.669 3.668A1.6 1.6 0 0 1 8.47 14.87z" clip-rule="evenodd"/></svg>