<svg xmlns="http://www.w3.org/2000/svg" fill="none" viewBox="0 0 12 12"><g clip-path="url(#a)"><path fill="#6E6966" fill-rule="evenodd" d="M5.646.646a.5.5 0 0 1 .708 0l1.5 1.5a.5.5 0 1 1-.708.708L6.5 2.207V5.5h3.293l-.647-.646a.5.5 0 1 1 .708-.708l1.5 1.5a.5.5 0 0 1 0 .708l-1.5 1.5a.5.5 0 1 1-.708-.708l.647-.646H6.5v3.293l.646-.647a.5.5 0 1 1 .708.708l-1.5 1.5a.5.5 0 0 1-.708 0l-1.5-1.5a.5.5 0 1 1 .708-.708l.646.647V6.5H2.207l.647.646a.5.5 0 1 1-.708.708l-1.5-1.5a.5.5 0 0 1 0-.708l1.5-1.5a.5.5 0 1 1 .708.708l-.647.646H5.5V2.207l-.646.647a.5.5 0 1 1-.708-.708z" clip-rule="evenodd"/></g><defs><clipPath id="a"><path fill="#fff" d="M0 0h12v12H0z"/></clipPath></defs></svg>