<svg xmlns="http://www.w3.org/2000/svg" fill="none" viewBox="0 0 12 12"><path fill="#E93D47" fill-rule="evenodd" d="M5.58.5h.84c.263 0 .49 0 .678.015.197.016.394.052.583.148a1.5 1.5 0 0 1 .656.656c.096.19.132.386.148.583.013.168.015.368.015.598h2a.5.5 0 0 1 0 1H10v5.12c0 .403 0 .735-.022 1.006-.023.281-.072.54-.196.782a2 2 0 0 1-.874.874c-.243.124-.501.173-.782.196-.27.022-.603.022-1.005.022H4.879c-.402 0-.734 0-1.005-.022-.281-.023-.54-.072-.782-.196a2 2 0 0 1-.874-.874c-.124-.243-.173-.501-.196-.782C2 9.356 2 9.023 2 8.62V3.5h-.5a.5.5 0 0 1 0-1h2c0-.23.002-.43.015-.598.016-.197.052-.394.148-.583A1.5 1.5 0 0 1 4.32.663c.19-.096.386-.132.583-.148A9 9 0 0 1 5.581.5M3 3.5v5.1c0 .428 0 .72.019.944.018.22.05.332.09.41a1 1 0 0 0 .437.437c.078.04.19.072.41.09.225.019.516.019.944.019h2.2c.428 0 .72 0 .944-.019.22-.018.332-.05.41-.09a1 1 0 0 0 .437-.437c.04-.078.072-.19.09-.41C9 9.32 9 9.028 9 8.6V3.5zm4.5-1h-3c0-.233.002-.392.012-.516a.6.6 0 0 1 .043-.211.5.5 0 0 1 .218-.218.6.6 0 0 1 .21-.043c.143-.012.329-.012.617-.012h.8c.288 0 .474 0 .616.012a.6.6 0 0 1 .211.042.5.5 0 0 1 .218.219.6.6 0 0 1 .043.21c.01.125.012.284.012.517M5 5.25a.5.5 0 0 1 .5.5v2.5a.5.5 0 0 1-1 0v-2.5a.5.5 0 0 1 .5-.5m2 0a.5.5 0 0 1 .5.5v2.5a.5.5 0 0 1-1 0v-2.5a.5.5 0 0 1 .5-.5" clip-rule="evenodd"/></svg>