<svg xmlns="http://www.w3.org/2000/svg" fill="none" viewBox="0 0 24 24"><path fill="#202020" d="M14.438 4.85a.75.75 0 1 0 1.124-.992zM6 10.75h12v-1.5H6zm12.25.25v9h1.5v-9zM18 20.25H6v1.5h12zM5.75 20v-9h-1.5v9zm.25.25a.25.25 0 0 1-.25-.25h-1.5c0 .966.784 1.75 1.75 1.75zM18.25 20a.25.25 0 0 1-.25.25v1.5A1.75 1.75 0 0 0 19.75 20zM18 10.75a.25.25 0 0 1 .25.25h1.5A1.75 1.75 0 0 0 18 9.25zM6 9.25A1.75 1.75 0 0 0 4.25 11h1.5a.25.25 0 0 1 .25-.25zm6-7A4.75 4.75 0 0 0 7.25 7h1.5A3.25 3.25 0 0 1 12 3.75zM8.75 10V7h-1.5v3zM12 3.75c.97 0 1.841.425 2.438 1.1l1.124-.992A4.74 4.74 0 0 0 12 2.25z"/></svg>