<svg xmlns="http://www.w3.org/2000/svg" fill="none" viewBox="0 0 12 12"><path fill="#A6A19E" fill-rule="evenodd" d="M4.75 2a1.5 1.5 0 1 0 0 3 1.5 1.5 0 0 0 0-3m-2.5 1.5a2.5 2.5 0 1 1 5 0 2.5 2.5 0 0 1-5 0m5.037-2.042a.5.5 0 0 1 .65-.276 2.5 2.5 0 0 1 0 4.636.5.5 0 0 1-.375-.927 1.5 1.5 0 0 0 0-2.782.5.5 0 0 1-.275-.651M3.982 7h1.536c.45 0 .814 0 1.11.02a2.6 2.6 0 0 1 .829.17A2.5 2.5 0 0 1 8.81 8.543a2.6 2.6 0 0 1 .17.829c.02.296.02.66.02 1.11v.018a.5.5 0 0 1-1 0c0-.473 0-.802-.018-1.06-.017-.254-.05-.401-.096-.514a1.5 1.5 0 0 0-.812-.812c-.113-.046-.26-.079-.514-.096A17 17 0 0 0 5.5 8H4c-.473 0-.802 0-1.06.018-.254.017-.401.05-.514.096a1.5 1.5 0 0 0-.812.812c-.047.113-.079.26-.096.514-.018.258-.018.587-.018 1.06a.5.5 0 0 1-1 0v-.018c0-.45 0-.814.02-1.11a2.6 2.6 0 0 1 .17-.829A2.5 2.5 0 0 1 2.043 7.19a2.6 2.6 0 0 1 .829-.17C3.168 7 3.532 7 3.982 7m5.034.438a.5.5 0 0 1 .609-.36A2.5 2.5 0 0 1 11.5 9.5v1a.5.5 0 0 1-1 0v-1a1.5 1.5 0 0 0-1.125-1.453.5.5 0 0 1-.36-.609" clip-rule="evenodd"/></svg>