<svg xmlns="http://www.w3.org/2000/svg" fill="none" viewBox="0 0 32 32" stroke="inherit"><path fill="#A6A19E" fill-rule="evenodd" d="M12.506 9.334h6.988c.537 0 .98 0 1.34.029.375.03.72.096 1.043.261.502.256.91.664 1.166 1.165.165.324.23.668.26 1.043.03.361.03.804.03 1.34v5.656c0 .536 0 .98-.03 1.34-.03.375-.096.72-.26 1.043-.256.502-.664.91-1.166 1.165-.323.165-.668.23-1.043.261-.36.03-.803.03-1.34.03h-6.988c-.537 0-.98 0-1.34-.03-.375-.03-.72-.096-1.043-.26a2.67 2.67 0 0 1-1.166-1.166c-.165-.324-.23-.668-.26-1.043-.03-.36-.03-.804-.03-1.34v-5.655c0-.537 0-.98.03-1.34.03-.376.095-.72.26-1.043a2.67 2.67 0 0 1 1.166-1.166c.323-.165.668-.23 1.042-.261.361-.03.804-.03 1.34-.03M10 14.667V18.8c0 .571 0 .96.025 1.26.024.292.067.441.12.546.128.25.332.454.583.582.104.053.254.097.546.12.3.025.688.026 1.26.026h6.933c.57 0 .959-.001 1.259-.026.292-.023.442-.067.546-.12.25-.128.455-.332.583-.582.053-.105.096-.254.12-.547.024-.3.025-.688.025-1.259v-4.133zm12-1.333H10V13.2c0-.57 0-.96.025-1.26.024-.291.067-.44.12-.545.128-.251.332-.455.583-.583.104-.053.254-.096.546-.12.3-.025.688-.025 1.26-.025h6.933c.57 0 .959 0 1.259.025.292.024.442.067.546.12.25.128.455.332.583.583.053.104.096.254.12.546.024.3.025.688.025 1.26z" clip-rule="evenodd"/></svg>