<svg xmlns="http://www.w3.org/2000/svg" fill="none" viewBox="0 0 16 16" stroke="inherit"><path fill="#3C9AF1" fill-rule="evenodd" d="M3.045 1.333h2.576c.169 0 .332 0 .471.012.153.012.332.041.513.134.251.127.455.331.583.582.092.181.122.361.134.514.011.138.011.302.011.47v2.576c0 .168 0 .332-.011.471a1.4 1.4 0 0 1-.134.513 1.34 1.34 0 0 1-.583.583c-.18.092-.36.122-.513.134-.139.011-.302.011-.47.011H3.044c-.168 0-.332 0-.47-.011a1.4 1.4 0 0 1-.514-.134 1.33 1.33 0 0 1-.582-.583 1.4 1.4 0 0 1-.134-.513c-.012-.139-.012-.302-.012-.47V3.044c0-.168 0-.332.012-.47.012-.153.041-.333.134-.514.127-.25.331-.455.582-.582.181-.093.361-.122.514-.134.138-.012.302-.012.47-.012m-.37 1.341-.001.01a6 6 0 0 0-.007.383V5.6a6 6 0 0 0 .007.392l.01.001C2.76 6 2.868 6 3.066 6H5.6a6 6 0 0 0 .392-.008l.001-.008C6 5.906 6 5.798 6 5.6V3.067a6 6 0 0 0-.008-.393h-.008a6 6 0 0 0-.384-.007H3.067a6 6 0 0 0-.393.007m7.704-1.34h2.576c.168 0 .332 0 .47.01.153.013.333.042.514.135.25.127.454.331.582.582.093.181.122.361.134.514.012.138.012.302.012.47v2.576c0 .169 0 .332-.012.471a1.4 1.4 0 0 1-.134.513 1.33 1.33 0 0 1-.582.583 1.3 1.3 0 0 1-.514.134c-.138.011-.302.011-.47.011h-2.576c-.168 0-.332 0-.471-.011a1.4 1.4 0 0 1-.513-.134 1.33 1.33 0 0 1-.583-.583 1.4 1.4 0 0 1-.134-.513c-.011-.139-.011-.302-.011-.47V3.044c0-.168 0-.332.011-.47.012-.153.042-.333.134-.514.128-.25.332-.455.583-.582.18-.093.36-.122.513-.134.139-.012.303-.012.47-.012m-.371 1.34-.001.01a5 5 0 0 0-.007.383V5.6c0 .198 0 .306.007.384v.008l.01.001c.077.006.185.007.383.007h2.533c.198 0 .306 0 .384-.007h.009v-.01c.007-.077.007-.185.007-.383V3.067c0-.198 0-.306-.007-.384v-.009h-.01a6 6 0 0 0-.383-.007H10.4c-.198 0-.306 0-.384.007zM3.045 8.667h2.576c.169 0 .332 0 .471.01.153.013.332.043.513.135.251.128.455.332.583.583.092.18.122.36.134.513.011.139.011.303.011.47v2.577c0 .168 0 .332-.011.47a1.4 1.4 0 0 1-.134.514c-.128.25-.332.454-.583.582-.18.092-.36.122-.513.134-.139.012-.302.012-.47.012H3.044c-.168 0-.332 0-.47-.012a1.4 1.4 0 0 1-.514-.134 1.33 1.33 0 0 1-.582-.582 1.4 1.4 0 0 1-.134-.514c-.012-.138-.012-.302-.012-.47v-2.576c0-.168 0-.332.012-.471.012-.153.041-.332.134-.513.127-.251.331-.455.582-.583.181-.092.361-.122.514-.134.138-.011.302-.011.47-.011m-.37 1.34-.001.01a6 6 0 0 0-.007.383v2.533c0 .198 0 .306.007.384v.009h.01c.077.007.185.007.383.007H5.6c.198 0 .306 0 .384-.007h.008l.001-.01C6 13.24 6 13.132 6 12.934V10.4a6 6 0 0 0-.008-.392l-.008-.001A5 5 0 0 0 5.6 10H3.067c-.198 0-.306 0-.384.007zm7.704-1.34h2.576c.168 0 .332 0 .47.01.153.013.333.043.514.135.25.128.454.332.582.583.093.18.122.36.134.513.012.139.012.303.012.47v2.577c0 .168 0 .332-.012.47a1.4 1.4 0 0 1-.134.514c-.128.25-.331.454-.582.582a1.4 1.4 0 0 1-.514.134c-.138.012-.302.012-.47.012h-2.576c-.168 0-.332 0-.471-.012a1.4 1.4 0 0 1-.513-.134 1.33 1.33 0 0 1-.583-.582 1.4 1.4 0 0 1-.134-.514c-.011-.138-.011-.302-.011-.47v-2.576c0-.168 0-.332.011-.471a1.3 1.3 0 0 1 .134-.513c.128-.251.332-.455.583-.583.18-.092.36-.122.513-.134.139-.011.303-.011.47-.011m-.371 1.34-.001.01A5 5 0 0 0 10 10.4v2.533c0 .198 0 .306.007.384v.009h.01c.077.007.185.007.383.007h2.533c.198 0 .306 0 .384-.007h.009v-.01c.007-.077.007-.185.007-.383V10.4c0-.198 0-.306-.007-.384v-.008l-.01-.001a5 5 0 0 0-.383-.007H10.4c-.198 0-.306 0-.384.007z" clip-rule="evenodd"/></svg>