<svg xmlns="http://www.w3.org/2000/svg" fill="none" viewBox="0 0 24 24"><path fill="#FEFDFB" fill-rule="evenodd" d="M12 1a1 1 0 0 1 1 1v1a1 1 0 1 1-2 0V2a1 1 0 0 1 1-1M4.193 4.193a1 1 0 0 1 1.414 0l.6.6a1 1 0 0 1-1.414 1.414l-.6-.6a1 1 0 0 1 0-1.414m15.614 0a1 1 0 0 1 0 1.414l-.6.6a1 1 0 1 1-1.414-1.414l.6-.6a1 1 0 0 1 1.414 0M12 7a5 5 0 1 0 0 10 5 5 0 0 0 0-10m-7 5a7 7 0 1 1 10 6.326V20a3 3 0 1 1-6 0v-1.674A7 7 0 0 1 5 12m6 6.93V20a1 1 0 1 0 2 0v-1.07a7 7 0 0 1-2 0M1 12a1 1 0 0 1 1-1h1a1 1 0 1 1 0 2H2a1 1 0 0 1-1-1m19 0a1 1 0 0 1 1-1h1a1 1 0 1 1 0 2h-1a1 1 0 0 1-1-1" clip-rule="evenodd"/></svg>