<svg xmlns="http://www.w3.org/2000/svg" fill="none" viewBox="0 0 12 12"><g clip-path="url(#a)"><path fill="#807B78" fill-rule="evenodd" d="M6 1.5a4.5 4.5 0 1 0 0 9 4.5 4.5 0 0 0 0-9M.5 6a5.5 5.5 0 1 1 11 0 5.5 5.5 0 0 1-11 0m3.646-1.854a.5.5 0 0 1 .708 0L6 5.293l1.146-1.147a.5.5 0 1 1 .708.708L6.707 6l1.147 1.146a.5.5 0 1 1-.708.708L6 6.707 4.854 7.854a.5.5 0 1 1-.708-.708L5.293 6 4.146 4.854a.5.5 0 0 1 0-.708" clip-rule="evenodd"/></g><defs><clipPath id="a"><path fill="#fff" d="M0 0h12v12H0z"/></clipPath></defs></svg>