<svg xmlns="http://www.w3.org/2000/svg" fill="none" viewBox="0 0 24 24" stroke="inherit"><path fill="#202020" d="M10.084 9.876a.75.75 0 1 0 .832 1.248zM12 9.5h.75a.75.75 0 0 0-1.166-.624zm-.75 5a.75.75 0 0 0 1.5 0zm-.334-3.376 1.5-1-.832-1.248-1.5 1zM11.25 9.5v5h1.5v-5zm9 2.5A8.25 8.25 0 0 1 12 20.25v1.5A9.75 9.75 0 0 0 21.75 12zM12 20.25A8.25 8.25 0 0 1 3.75 12h-1.5A9.75 9.75 0 0 0 12 21.75zM3.75 12A8.25 8.25 0 0 1 12 3.75v-1.5A9.75 9.75 0 0 0 2.25 12zM12 3.75A8.25 8.25 0 0 1 20.25 12h1.5A9.75 9.75 0 0 0 12 2.25z"/></svg>