<svg xmlns="http://www.w3.org/2000/svg" fill="none" viewBox="0 0 168 99" stroke="inherit"><rect width="30" height="30" x="69" y="35" fill="url(#a)" rx="15"/><path fill="#fff" fill-rule="evenodd" d="M84 44.667a2.333 2.333 0 1 0 0 4.666 2.333 2.333 0 0 0 0-4.666M80.335 47a3.667 3.667 0 1 1 7.333 0 3.667 3.667 0 0 1-7.333 0m3.667 6.333c-2.128 0-4.072.926-5.515 2.458a.667.667 0 1 1-.97-.915C79.186 53.104 81.47 52 84 52s4.814 1.104 6.485 2.876a.667.667 0 1 1-.97.915c-1.444-1.532-3.388-2.458-5.515-2.458" clip-rule="evenodd"/><rect width="30" height="30" x="31" y="35" fill="url(#b)" rx="15"/><path fill="#fff" fill-rule="evenodd" d="M46 44.667a2.333 2.333 0 1 0 0 4.666 2.333 2.333 0 0 0 0-4.666M42.335 47a3.667 3.667 0 1 1 7.333 0 3.667 3.667 0 0 1-7.333 0m3.667 6.333c-2.128 0-4.072.926-5.515 2.458a.667.667 0 1 1-.97-.915C41.186 53.104 43.47 52 46 52s4.814 1.104 6.485 2.876a.667.667 0 1 1-.97.915c-1.444-1.532-3.388-2.458-5.515-2.458" clip-rule="evenodd"/><rect width="30" height="30" x="107" y="35" fill="url(#c)" rx="15"/><path fill="#fff" fill-rule="evenodd" d="M122.001 44.667a2.334 2.334 0 1 0 0 4.667 2.334 2.334 0 0 0 0-4.667M118.334 47a3.667 3.667 0 1 1 7.334 0 3.667 3.667 0 0 1-7.334 0m3.667 6.333c-2.128 0-4.071.926-5.515 2.458a.667.667 0 0 1-.97-.915c1.67-1.772 3.955-2.876 6.485-2.876s4.814 1.104 6.485 2.876a.667.667 0 0 1-.97.915c-1.444-1.532-3.388-2.458-5.515-2.458" clip-rule="evenodd"/><defs><linearGradient id="a" x1="84" x2="84" y1="35" y2="65" gradientUnits="userSpaceOnUse"><stop stop-color="#FC94D8"/><stop offset="1" stop-color="#F44954"/></linearGradient><linearGradient id="b" x1="46" x2="46" y1="35" y2="65" gradientUnits="userSpaceOnUse"><stop stop-color="#D7E38B"/><stop offset="1" stop-color="#23C176"/></linearGradient><linearGradient id="c" x1="122" x2="122" y1="35" y2="65" gradientUnits="userSpaceOnUse"><stop stop-color="#84B5FF"/><stop offset="1" stop-color="#855CF9"/></linearGradient></defs></svg>