<svg xmlns="http://www.w3.org/2000/svg" fill="none" viewBox="0 0 168 99"><rect width="56" height="56" x="22" y="40.5" stroke="url(#a)" stroke-dasharray="8 8" stroke-linecap="round" stroke-width="2" rx="16"/><rect width="56" height="56" x="90" y="40.5" stroke="url(#b)" stroke-dasharray="8 8" stroke-linecap="round" stroke-width="2" rx="16"/><rect width="30" height="30" x="22" y="2.5" fill="url(#c)" rx="15"/><path fill="#fff" fill-rule="evenodd" d="M37 12.167a2.333 2.333 0 1 0 0 4.666 2.333 2.333 0 0 0 0-4.666M33.334 14.5a3.667 3.667 0 1 1 7.333 0 3.667 3.667 0 0 1-7.334 0M37 20.833c-2.127 0-4.071.926-5.515 2.458a.667.667 0 1 1-.97-.915C32.185 20.604 34.47 19.5 37 19.5s4.815 1.104 6.485 2.876a.667.667 0 1 1-.97.915c-1.444-1.532-3.387-2.458-5.515-2.458" clip-rule="evenodd"/><rect width="30" height="30" x="90" y="2.5" fill="url(#d)" rx="15"/><path fill="#fff" fill-rule="evenodd" d="M105 12.167a2.333 2.333 0 1 0 .001 4.667 2.333 2.333 0 0 0-.001-4.667m-3.667 2.333a3.667 3.667 0 1 1 7.334 0 3.667 3.667 0 0 1-7.334 0M105 20.833c-2.127 0-4.071.926-5.515 2.458a.667.667 0 1 1-.97-.915c1.671-1.772 3.955-2.876 6.485-2.876s4.815 1.104 6.485 2.876a.666.666 0 1 1-.97.915c-1.444-1.532-3.387-2.458-5.515-2.458" clip-rule="evenodd"/><rect width="40" height="40" x="30" y="48.5" fill="#FDC433" rx="8"/><rect width="40" height="40" x="98" y="48.5" fill="#FDC433" rx="8"/><defs><linearGradient id="a" x1="50" x2="50" y1="40.5" y2="96.5" gradientUnits="userSpaceOnUse"><stop stop-color="#84B5FF"/><stop offset="1" stop-color="#855CF9"/></linearGradient><linearGradient id="b" x1="118" x2="118" y1="40.5" y2="96.5" gradientUnits="userSpaceOnUse"><stop stop-color="#FC94D8"/><stop offset="1" stop-color="#F44954"/></linearGradient><linearGradient id="c" x1="37" x2="37" y1="2.5" y2="32.5" gradientUnits="userSpaceOnUse"><stop stop-color="#84B5FF"/><stop offset="1" stop-color="#855CF9"/></linearGradient><linearGradient id="d" x1="105" x2="105" y1="2.5" y2="32.5" gradientUnits="userSpaceOnUse"><stop stop-color="#FC94D8"/><stop offset="1" stop-color="#F44954"/></linearGradient></defs></svg>