<svg xmlns="http://www.w3.org/2000/svg" fill="none" viewBox="0 0 168 99" stroke="inherit"><path fill="#A385FB" fill-opacity=".24" d="M15.002 24h90v22h-90z"/><path fill="#764AF3" d="M16.096 40h1.23v-4.416h5.236v4.415h1.245v-9.898h-1.244v4.402h-5.237v-4.402h-1.23zm12.77.15c2.016.007 3.37-1.524 3.362-3.828.007-2.318-1.346-3.842-3.363-3.842-2.023 0-3.39 1.524-3.39 3.842 0 2.303 1.367 3.835 3.39 3.828m-2.216-3.828c.007-1.477.705-2.803 2.215-2.803 1.497 0 2.188 1.326 2.188 2.803 0 1.483-.69 2.789-2.188 2.789-1.51 0-2.208-1.306-2.215-2.79m8.545 3.677h1.176l1.6-5.66h.11L39.692 40h1.163l2.255-7.423h-1.23l-1.586 5.633h-.082l-1.545-5.633H37.41l-1.572 5.66h-.069l-1.585-5.66H32.94zm12.729 0H49.1v-4.634c0-1.08.779-1.832 1.668-1.832.854 0 1.456.56 1.449 1.394V40h1.19v-4.826c.006-.943.594-1.64 1.626-1.64.814 0 1.497.423 1.504 1.517V40h1.176v-4.963c0-1.75-.95-2.557-2.27-2.557-1.066 0-1.852.492-2.228 1.258h-.082c-.349-.793-1.012-1.258-1.983-1.258-.97 0-1.688.465-1.996 1.258h-.095v-1.162h-1.135zM59.6 40h1.175v-7.423H59.6zm-.233-9.433c-.007.43.37.78.82.78.452 0 .828-.35.835-.78-.007-.438-.383-.786-.834-.78-.452-.006-.828.342-.82.78m6.29 12.373c1.81 0 3.219-.82 3.226-2.734v-7.63h-1.149v1.176h-.095c-.267-.396-.732-1.271-2.174-1.271-1.866 0-3.172 1.422-3.172 3.705 0 2.338 1.354 3.698 3.158 3.705 1.436-.007 1.907-.848 2.16-1.258h.096v1.504c0 1.224-.78 1.778-2.05 1.778-1.053 0-1.758-.376-1.915-1.135h-1.23c.13 1.374 1.346 2.16 3.144 2.16m-2.175-6.713c0-1.497.704-2.693 2.133-2.693 1.381 0 2.113 1.1 2.12 2.693-.007 1.634-.76 2.611-2.12 2.611-1.408 0-2.133-1.073-2.133-2.61m8.45-.684c0-1.285.82-2.01 1.927-2.01 1.067 0 1.71.664 1.71 1.833v4.634h1.175v-4.716c0-1.907-1.012-2.803-2.53-2.803-1.175 0-1.838.492-2.187 1.258h-.095V30.1h-1.176V40h1.176zm9.94-2.966h-1.56V30.8h-1.189v1.778h-1.121v.984h1.121v4.607c.007 1.313 1.046 1.928 2.037 1.928.349 0 .636-.027.82-.054v-1.094c-.17.007-.485.027-.697.027-.499 0-.977-.157-.97-1.107V33.56h1.558zm6.698 7.423h1.176l1.6-5.66h.11L93.067 40h1.163l2.255-7.423h-1.23l-1.586 5.633h-.082l-1.545-5.633h-1.258l-1.572 5.66h-.069l-1.585-5.66h-1.245zm12.086.15c1.532.008 2.632-.758 2.981-1.886h-1.258c-.274.458-.834.848-1.723.848-1.32 0-2.235-.861-2.297-2.434h5.387v-.492c.007-2.748-1.641-3.705-3.199-3.705-2.017 0-3.363 1.586-3.363 3.87 0 2.276 1.326 3.807 3.472 3.8m-2.29-4.47c.082-1.148.896-2.16 2.181-2.16 1.224 0 2.003.923 2.01 2.16z"/><g filter="url(#a)"><rect width="1.5" height="20.5" x="104.752" y="24.75" fill="url(#b)" stroke-width=".5" rx=".75"/><rect width="41" height="24" x="115.002" y="44.999" fill="url(#c)" rx="2"/><path fill="#FEFDFB" d="m123.213 52.515 3.07 5.156V61h1.289v-3.328l3.082-5.156h-1.465l-2.214 3.844h-.094l-2.203-3.844zm10.055 8.613c1.793 0 2.964-1.312 2.964-3.28 0-1.981-1.171-3.294-2.964-3.294-1.805 0-2.983 1.313-2.977 3.293-.006 1.969 1.172 3.281 2.977 3.281m-1.723-3.28c0-1.22.557-2.257 1.723-2.263 1.148.006 1.699 1.043 1.699 2.262 0 1.213-.551 2.238-1.699 2.238-1.166 0-1.723-1.025-1.723-2.238m5.918 3.151h1.254V57.12c0-.832.644-1.436 1.512-1.43.257-.006.55.047.656.07v-1.195a5 5 0 0 0-.528-.024c-.744-.005-1.382.422-1.617 1.102h-.07v-1.008h-1.207zm4.359 0h1.254v-2.261l.604-.598 2.162 2.86h1.535l-2.748-3.633 2.572-2.73h-1.5l-2.519 2.683h-.106v-4.805h-1.254z"/></g><path stroke-linecap="round" stroke-width="4" d="M15.019 48.974c7-4.5 8 2 11.5 2 3.501-.002 3.5-4 7-4 3.502 0 4 4 6.5 4s3.5-4 6.5-4 4.715 4 7 4 4.5-6 10.22.538"/><g filter="url(#d)"><path fill="url(#e)" stroke-width=".5" d="m64.342 48.717.249.023-.25-.023a2.95 2.95 0 0 0 2.654 3.21l.024-.25-.024.25a3.8 3.8 0 0 0 1.583-.189l5.462-1.882c.29-.1.561-.252.799-.448l9.048-7.481a1.58 1.58 0 0 0 .371-1.987 21.5 21.5 0 0 0-4.898-5.925 1.58 1.58 0 0 0-2.021-.01l-9.049 7.481a2.6 2.6 0 0 0-.59.7l-2.876 5.011.217.125-.217-.125a3.8 3.8 0 0 0-.482 1.52Z"/><path fill="url(#f)" stroke-width=".5" d="M67.486 51.7c-.213.2-.35.257-.566.346l-.095-.231.095.231-.01.004c-.762.314-1.346.555-1.791.705-.433.146-.79.228-1.073.164a1.58 1.58 0 0 1-1.235-1.493c-.009-.289.139-.625.364-1.023.23-.408.577-.937 1.029-1.626l.006-.01c.128-.195.21-.32.446-.49.139-.1.367-.178.566-.226.2-.048.439-.082.608-.055.121.019.2.033.257.049zm0 0c.125-.118.244-.327.328-.514s.163-.415.169-.587a3 3 0 0 0 0-.26.5.5 0 0 0-.032-.15 3.8 3.8 0 0 0-.679-1.194m.214 2.705-.214-2.705m0 0a3.8 3.8 0 0 0-1.044-.891z"/><path fill="#FEFDFB" d="M74.159 46.185a.935.935 0 0 1-1.414-.267 6.1 6.1 0 0 0-1.421-1.72.935.935 0 0 1 .003-1.438l7.01-5.796c.32-.263.478-.395.632-.478a1.78 1.78 0 0 1 1.967.187c.136.11.267.27.53.588.264.318.395.477.478.631a1.78 1.78 0 0 1-.186 1.967c-.11.135-.27.267-.588.53z"/></g><g filter="url(#g)"><rect width="38" height="24" x="82.504" y="53.745" fill="url(#h)" rx="2" shape-rendering="crispEdges"/><path fill="#FEFDFB" d="m92.098 69.745.773-2.239h3.305l.773 2.239h1.371l-3.058-8.485h-1.489l-3.046 8.485zm1.142-3.317 1.248-3.62h.059l1.254 3.62zm7.307-5.168h-1.254v8.485h1.254zm4.5 2.121h-1.301v-1.523h-1.242v1.523h-.938v.996h.938v3.75c-.012 1.16.873 1.7 1.851 1.7.346 0 .616-.024.786-.047v-1.09a8 8 0 0 1-.633.035c-.404-.006-.756-.135-.762-.855v-3.493h1.301zm3.844 6.493c1.793 0 2.964-1.313 2.964-3.282 0-1.98-1.171-3.293-2.964-3.293-1.805 0-2.983 1.313-2.977 3.293-.006 1.969 1.172 3.282 2.977 3.282m-1.723-3.282c0-1.218.557-2.256 1.723-2.261 1.148.005 1.699 1.043 1.699 2.261 0 1.213-.551 2.239-1.699 2.239-1.166 0-1.723-1.026-1.723-2.239"/></g><defs><linearGradient id="b" x1="105.502" x2="105.502" y1="25" y2="44.999" gradientUnits="userSpaceOnUse"><stop stop-color="#84B5FF"/><stop offset="1" stop-color="#855CF9"/></linearGradient><linearGradient id="c" x1="135.502" x2="135.502" y1="44.999" y2="68.999" gradientUnits="userSpaceOnUse"><stop stop-color="#84B5FF"/><stop offset="1" stop-color="#855CF9"/></linearGradient><linearGradient id="e" x1="65.197" x2="81.883" y1="50.711" y2="36.916" gradientUnits="userSpaceOnUse"><stop stop-color="#D7E38B"/><stop offset="1" stop-color="#23C176"/></linearGradient><linearGradient id="f" x1="63.366" x2="67.08" y1="52.224" y2="49.155" gradientUnits="userSpaceOnUse"><stop stop-color="#D7E38B"/><stop offset="1" stop-color="#23C176"/></linearGradient><linearGradient id="h" x1="101.504" x2="101.504" y1="53.745" y2="77.745" gradientUnits="userSpaceOnUse"><stop stop-color="#D7E38B"/><stop offset="1" stop-color="#23C176"/></linearGradient><filter id="a" width="67.5" height="60.5" x="96.502" y="24.5" color-interpolation-filters="sRGB" filterUnits="userSpaceOnUse"><feFlood flood-opacity="0" result="BackgroundImageFix"/><feColorMatrix in="SourceAlpha" result="hardAlpha" values="0 0 0 0 0 0 0 0 0 0 0 0 0 0 0 0 0 0 127 0"/><feOffset dy="8"/><feGaussianBlur stdDeviation="4"/><feComposite in2="hardAlpha" operator="out"/><feColorMatrix values="0 0 0 0 0 0 0 0 0 0 0 0 0 0 0 0 0 0 0.08 0"/><feBlend in2="BackgroundImageFix" result="effect1_dropShadow_6322_46628"/><feBlend in="SourceGraphic" in2="effect1_dropShadow_6322_46628" result="shape"/></filter><filter id="d" width="38.149" height="35.797" x="54.561" y="33.394" color-interpolation-filters="sRGB" filterUnits="userSpaceOnUse"><feFlood flood-opacity="0" result="BackgroundImageFix"/><feColorMatrix in="SourceAlpha" result="hardAlpha" values="0 0 0 0 0 0 0 0 0 0 0 0 0 0 0 0 0 0 127 0"/><feOffset dy="8"/><feGaussianBlur stdDeviation="4"/><feComposite in2="hardAlpha" operator="out"/><feColorMatrix values="0 0 0 0 0 0 0 0 0 0 0 0 0 0 0 0 0 0 0.08 0"/><feBlend in2="BackgroundImageFix" result="effect1_dropShadow_6322_46628"/><feBlend in="SourceGraphic" in2="effect1_dropShadow_6322_46628" result="shape"/></filter><filter id="g" width="54" height="40" x="74.504" y="53.745" color-interpolation-filters="sRGB" filterUnits="userSpaceOnUse"><feFlood flood-opacity="0" result="BackgroundImageFix"/><feColorMatrix in="SourceAlpha" result="hardAlpha" values="0 0 0 0 0 0 0 0 0 0 0 0 0 0 0 0 0 0 127 0"/><feOffset dy="8"/><feGaussianBlur stdDeviation="4"/><feComposite in2="hardAlpha" operator="out"/><feColorMatrix values="0 0 0 0 0 0 0 0 0 0 0 0 0 0 0 0 0 0 0.08 0"/><feBlend in2="BackgroundImageFix" result="effect1_dropShadow_6322_46628"/><feBlend in="SourceGraphic" in2="effect1_dropShadow_6322_46628" result="shape"/></filter></defs></svg>