<svg xmlns="http://www.w3.org/2000/svg" fill="none" viewBox="0 0 24 24" stroke="inherit"><path stroke-linecap="round" stroke-linejoin="round" stroke-width="1.5" d="m15.345 11.339.851.85c.42.42 1.1.42 1.518 0l.63-.628a1.076 1.076 0 0 0 0-1.518l-.852-.851 2.952-2.952a1.898 1.898 0 1 0-2.683-2.684l-2.953 2.952m.537 4.83-2.684-2.683m2.684 2.684-5.18 5.18m2.496-7.864-.85-.851a1.074 1.074 0 0 1 0-1.518l.628-.63a1.076 1.076 0 0 1 1.518 0l.851.852m-2.147 2.147-7.863 7.863m10.01-10.01 1.074 1.073M4.798 16.518l-.993.993a1.9 1.9 0 0 0-.524.993m1.517-1.986h5.368m0 0-3.677 3.677c-.46.46-1.097.634-1.69.523a1.073 1.073 0 0 1-1.517-1.517 1.9 1.9 0 0 1 0-.697m0 0H8.18"/></svg>