<svg xmlns="http://www.w3.org/2000/svg" fill="none" viewBox="0 0 24 24" stroke="inherit"><path fill="#202020" d="M16.53 9.53a.75.75 0 0 0-1.06-1.06zm-6.883 5.823-.53.53a.75.75 0 0 0 1.06 0zM8.53 13.176a.75.75 0 0 0-1.06 1.06zM21.25 12A9.25 9.25 0 0 1 12 21.25v1.5c5.937 0 10.75-4.813 10.75-10.75zM12 21.25A9.25 9.25 0 0 1 2.75 12h-1.5c0 5.937 4.813 10.75 10.75 10.75zM2.75 12A9.25 9.25 0 0 1 12 2.75v-1.5C6.063 1.25 1.25 6.063 1.25 12zM12 2.75A9.25 9.25 0 0 1 21.25 12h1.5c0-5.937-4.813-10.75-10.75-10.75zm3.47 5.72-6.353 6.353 1.06 1.06L16.53 9.53zm-5.293 6.353L8.53 13.176l-1.06 1.06 1.647 1.647z"/></svg>