<svg xmlns="http://www.w3.org/2000/svg" fill="none" viewBox="0 0 24 24" stroke="inherit"><path fill="#202020" d="M5.25 7.5a.75.75 0 0 0 1.5 0zm1.5-5a.75.75 0 0 0-1.5 0zm10.5 5a.75.75 0 0 0 1.5 0zm1.5-5a.75.75 0 0 0-1.5 0zM4.5 5.25h15v-1.5h-15zM20.75 6.5v13h1.5v-13zM19.5 20.75h-15v1.5h15zM3.25 19.5v-13h-1.5v13zm1.25 1.25c-.69 0-1.25-.56-1.25-1.25h-1.5a2.75 2.75 0 0 0 2.75 2.75zm16.25-1.25c0 .69-.56 1.25-1.25 1.25v1.5a2.75 2.75 0 0 0 2.75-2.75zM19.5 5.25c.69 0 1.25.56 1.25 1.25h1.5a2.75 2.75 0 0 0-2.75-2.75zm-15-1.5A2.75 2.75 0 0 0 1.75 6.5h1.5c0-.69.56-1.25 1.25-1.25zM6.75 7.5v-5h-1.5v5zm12 0v-5h-1.5v5zM3 11.75h18v-1.5H3z"/></svg>