<svg xmlns="http://www.w3.org/2000/svg" fill="none" viewBox="0 0 24 24" stroke="inherit"><path fill="#202020" d="M5 3.75a.75.75 0 0 0 0 1.5zm14 1.5a.75.75 0 0 0 0-1.5zM9.75 8.5a.75.75 0 0 0-1.5 0zm-1.5 9a.75.75 0 0 0 1.5 0zm4.5-9a.75.75 0 0 0-1.5 0zm-1.5 9a.75.75 0 0 0 1.5 0zm4.5-9a.75.75 0 0 0-1.5 0zm-1.5 9a.75.75 0 0 0 1.5 0zm2.5-13v15h1.5v-15zm-9.5 15v-15h-1.5v15zM6.5 5.25h11v-1.5h-11zm-1.5 0h1.5v-1.5H5zm12.5 0H19v-1.5h-1.5zm-2 15.5h-7v1.5h7zm-5-17.5h3v-1.5h-3zm3 0c.69 0 1.25.56 1.25 1.25h1.5a2.75 2.75 0 0 0-2.75-2.75zm-3-1.5A2.75 2.75 0 0 0 7.75 4.5h1.5c0-.69.56-1.25 1.25-1.25zM8.25 8.5v9h1.5v-9zm3 0v9h1.5v-9zm3 0v9h1.5v-9zm-8.5 11a2.75 2.75 0 0 0 2.75 2.75v-1.5c-.69 0-1.25-.56-1.25-1.25zm11 0c0 .69-.56 1.25-1.25 1.25v1.5a2.75 2.75 0 0 0 2.75-2.75z"/></svg>