<svg xmlns="http://www.w3.org/2000/svg" fill="none" viewBox="0 0 24 24" stroke="inherit"><path fill="#202020" d="m15.293 2.293-.53.53zm3.414 3.414.53-.53zM8 16.25a.75.75 0 0 0 0 1.5zm8 1.5a.75.75 0 0 0 0-1.5zm-8-9.5a.75.75 0 0 0 0 1.5zm4 1.5a.75.75 0 0 0 0-1.5zm-4 2.5a.75.75 0 0 0 0 1.5zm8 1.5a.75.75 0 0 0 0-1.5zm-10 9h12v-1.5H6zM19.75 21V6.414h-1.5V21zM14.586 1.25H6v1.5h8.586zm.177 1.573 3.414 3.414 1.06-1.06-3.414-3.414zM4.25 3v18h1.5V3zM6 1.25A1.75 1.75 0 0 0 4.25 3h1.5A.25.25 0 0 1 6 2.75zm8.586 1.5a.25.25 0 0 1 .177.073l1.06-1.06a1.75 1.75 0 0 0-1.237-.513zm5.164 3.664c0-.464-.184-.909-.513-1.237l-1.06 1.06a.25.25 0 0 1 .073.177zM18 22.75A1.75 1.75 0 0 0 19.75 21h-1.5a.25.25 0 0 1-.25.25zm-12-1.5a.25.25 0 0 1-.25-.25h-1.5c0 .966.784 1.75 1.75 1.75zm8.25-19.16V5h1.5V2.09zM16 6.75h2.91v-1.5H16zM14.25 5c0 .966.784 1.75 1.75 1.75v-1.5a.25.25 0 0 1-.25-.25zM8 17.75h8v-1.5H8zm0-8h4v-1.5H8zm0 4h8v-1.5H8z"/></svg>