<svg xmlns="http://www.w3.org/2000/svg" fill="none" viewBox="0 0 24 24"><path fill="#EA4C89" d="M12 23.625c6.42 0 11.625-5.205 11.625-11.625S18.42.375 12 .375.375 5.58.375 12 5.58 23.625 12 23.625"/><path fill="#C32361" fill-rule="evenodd" d="M12 0C5.375 0 0 5.375 0 12s5.375 12 12 12c6.612 0 12-5.375 12-12S18.612 0 12 0m7.926 5.531a10.2 10.2 0 0 1 2.317 6.378c-.338-.065-3.722-.755-7.132-.325-.079-.17-.144-.352-.222-.534a31 31 0 0 0-.676-1.484c3.774-1.536 5.492-3.748 5.713-4.035M12 1.771c2.603 0 4.985.975 6.794 2.576-.182.26-1.731 2.33-5.375 3.696-1.68-3.084-3.54-5.61-3.827-6A10.4 10.4 0 0 1 12 1.77m-4.36.962c.273.365 2.095 2.903 3.8 5.922-4.79 1.276-9.02 1.25-9.475 1.25.664-3.176 2.812-5.818 5.675-7.172m-5.896 9.28V11.7c.443.013 5.414.078 10.53-1.458.299.573.572 1.158.832 1.744-.13.039-.273.078-.403.117-5.284 1.705-8.096 6.365-8.33 6.755a10.23 10.23 0 0 1-2.629-6.846M12 22.256a10.18 10.18 0 0 1-6.286-2.16c.182-.378 2.264-4.387 8.043-6.404.026-.013.04-.013.065-.026 1.445 3.735 2.03 6.872 2.187 7.77-1.237.534-2.59.82-4.009.82m5.714-1.757c-.104-.625-.651-3.618-1.992-7.302 3.215-.507 6.026.326 6.378.443-.443 2.85-2.083 5.31-4.386 6.859" clip-rule="evenodd"/></svg>