<svg xmlns="http://www.w3.org/2000/svg" fill="none" viewBox="0 0 248 289" stroke="inherit"><g clip-path="url(#a)"><path fill="#F1B243" stroke-linecap="round" stroke-linejoin="round" stroke-width="5" d="M183.996 200.042c1.908 14.853 3.461 46.702-5.446 60.113s-16.251 4.296-17.074.581 3.415-35.79 3.415-35.79l19.095-24.904z"/><path fill="#F9D168" d="M170.102 238.405a16.3 16.3 0 0 0-4.313 6.458c-1.394 1.207-2.629 2.601-3.705 4.108-.552 5.672-.889 10.464-.599 11.765.824 3.715 8.168 12.831 17.075-.581 4.061-6.111 5.941-16.06 6.615-26.477-4.921-2.068-11.424 1.423-15.063 4.727z"/><path stroke-linecap="round" stroke-linejoin="round" stroke-width="5" d="M183.996 200.042c1.908 14.853 3.461 46.702-5.446 60.113s-16.251 4.296-17.074.581 3.415-35.79 3.415-35.79l19.095-24.904z"/><path fill="#DD5534" d="M56.67 230.506s-19.096-5.466-24.326-22.462c-3.742-12.167-.936-20.59 1.871-28.078s-18.712-2.807-24.326 14.975c-5.613 17.782 0 24.512 0 24.512s-12.162 8.245-5.613 11.053c6.55 2.807 12.041 0 12.041 0s-11.106 8.423-5.492 12.167 12.163-2.808 12.163-2.808-7.485 9.359-.936 13.103 12.163-6.552 12.163-6.552-3.742 10.295 1.871 11.231c5.614.936 8.42-8.423 8.42-8.423s1.75 10.735 7.486 8.423 9.356-13.103 9.356-13.103z"/><path fill="#E47A3A" d="M32.344 208.044c-3.743-12.167-.936-20.59 1.87-28.078 2.144-5.709-9.87-4.333-18.178 4.53.28 1.077.608 2.143 1.01 3.182-.112.038-.233.066-.345.103a24.6 24.6 0 0 0-4.622 2.125 27.4 27.4 0 0 0-2.19 5.044c-1.356 4.287-2.049 7.937-2.339 10.997 1.628 1.788 3.827 3.239 6.11 4.39a10.6 10.6 0 0 0-.608 3.369c-.178 7.076 4.846 10.145 10.834 11.063-.019 2.105.674 4.22 2.376 6.177 1.946 2.236 4.529 3.313 7.28 3.537.542 1.123 1.412 2.125 2.544 2.902 3.752 2.592 8.318 2.47 12.163.196 4.229-2.499 3.752-7.394 1.17-10.183-5.979-3.228-13.978-9.256-17.085-19.345z"/><path stroke-linecap="round" stroke-linejoin="round" stroke-width="5" d="M56.67 230.506s-19.096-5.466-24.326-22.462c-3.742-12.167-.936-20.59 1.871-28.078s-18.712-2.807-24.326 14.975c-5.613 17.782 0 24.512 0 24.512s-12.162 8.245-5.613 11.053c6.55 2.807 12.041 0 12.041 0s-11.106 8.423-5.492 12.167 12.163-2.808 12.163-2.808-7.485 9.359-.936 13.103 12.163-6.552 12.163-6.552-3.742 10.295 1.871 11.231c5.614.936 8.42-8.423 8.42-8.423s1.75 10.735 7.486 8.423 9.356-13.103 9.356-13.103z"/><path fill="#E47A3A" d="M162.411 245.761c-7.11 10.033-10.9 12.335-10.9 12.335.833 5.99.178 9.827-8.233 10.763-5.988.665-10.263-2.153-13.678-6.729-.899.065-1.806.131-2.76.206-4.192.337-7.251.178-9.356-.094.084.889-.347 1.732-1.404 2.434-5.613 3.743-44.909 4.623-55.2-5.616s-10.292-23.398-4.678-44.924c3.714-14.244 14.399-21.526 23.1-32.42l12.33-24.783 35.806-2.555 56.941 12.682 7.26 18.288-8.139 8.61q.701 2.892.505 6.177c-2.433 8.395-9.927 24.128-12.734 31.699-2.806 7.572-8.869 13.936-8.869 13.936z"/><path fill="#F1B243" d="M109.531 253.435c-3.696-1.394-8.112-.552-12.06-.608 7.12-4.979 13.52-15.714 6.493-21.807-.131-.112-.262-.196-.393-.299 1.909-2.106-.954-4.829-1.525-8.171-.917-5.437-4.37-6.457-9.356-8.423-6.624-2.62-10.039-2.546-15.905 0-.983-1.366-2.685-5.25-4.332-5.615a12.2 12.2 0 0 0-.683-2.443c-1.581-3.931-5.782-5.672-9.777-4.361-2.489 3.622-4.538 7.618-5.782 12.41-3.078 11.792-4.463 21.067-3.396 28.732.804.496 1.73.824 2.741.889a25 25 0 0 0 .215 3.351 9.4 9.4 0 0 0 .908 3.004 10.8 10.8 0 0 0-.328 3.154c1.207 2.04 2.714 3.968 4.547 5.793 3.462 3.445 10.217 5.625 17.852 6.87 2.535-.056 5.043-.159 7.382-.131 7.728.103 15.465.197 23.193.3 8.43.112 8.86-9.388.215-12.645zm-29.472-.833c.113-.037.216-.084.328-.121.066.047.131.084.196.131h-.523zm2.171-16.668a5.4 5.4 0 0 0-.42-.711c.486-.075.963-.131 1.45-.188-.338.3-.674.599-1.02.899z"/><path fill="#F1B243" stroke-linecap="round" stroke-linejoin="round" stroke-width="5" d="M148.892 35.798s9.674-14.946 18.178-20.552S194.306-.094 206.422 2.9c-.056 13.28 1.815 21.489 1.815 28.255 0 7.488-1.815 10.127-1.815 10.127s6.577 5.475 2.75 8.591c-3.826 3.117-10.291.936-10.291.936s14.034 7.488 8.42 10.295c-5.613 2.808-8.186 0-8.186 0s10.993 9.36 6.315 13.103-15.905 2.808-15.905 2.808z"/><path fill="#E47A3A" d="M206.544 9.266a209 209 0 0 0-36.807 24.98c-2.264 1.918-2.255 4.37-1.095 6.288a969 969 0 0 1-9.44 5.719l9.235 9.359c3.592-1.638 7.054-3.566 10.497-5.531.262.28.561.533.898.748a6.76 6.76 0 0 0 1.179 4.83c2.18 3.126 6.643 4.408 10.217 5.063.561.103 1.123.187 1.684.262-1.89 5.054 3.321 10.829 9.085 10.426 1.768-.121 3.106-.908 4.004-2.003-1.525-3.397-5.511-7.085-6.596-8.049.795.618 3.349 2.04 7.906-.243 5.613-2.808-8.421-10.295-8.421-10.295s4.875 1.591 8.627.038c-1.422-.833-3.06-1.31-4.772-1.414a94 94 0 0 0 5.473-1.385 5.9 5.9 0 0 0 2.115-1.085c-.421-2.78-3.902-5.681-3.902-5.681s1.142-1.676 1.619-6.112c-.168-1.91-1.235-3.687-3.097-4.52 1.076-.721 2.143-1.451 3.219-2.172-.29-5.044-1.264-11.044-1.61-19.223z"/><path stroke-linecap="round" stroke-linejoin="round" stroke-width="5" d="M148.892 35.798s9.674-14.946 18.178-20.552S194.306-.094 206.422 2.9c-.056 13.28 1.815 21.489 1.815 28.255 0 7.488-1.815 10.127-1.815 10.127s6.577 5.475 2.75 8.591c-3.826 3.117-10.291.936-10.291.936s14.034 7.488 8.42 10.295c-5.613 2.808-8.186 0-8.186 0s10.993 9.36 6.315 13.103-15.905 2.808-15.905 2.808z"/><path fill="#F1B243" d="M84.738 170.607c-17.777-5.615-9.356-15.91-9.356-15.91s-4.679 8.423-9.357 4.679c-6.727-5.381 7.485-20.59 7.485-20.59s-9.955 11.905-15.905 6.551c-8.018-7.215 8.692-25.737 8.692-25.737s-11.76 7.571-14.306.468c-4.678-13.103 18.59-39.318 18.59-39.318s-15.783 15.92-18.14 10.82c-2.358-5.101 7.026-16.426 7.026-16.426s-4.678 5.616-7.026 1.535c-2.349-4.08 5.155-10.894 5.155-10.894s-8.224 8.273-10.292 0c-1.871-7.487 6.55-13.103 6.55-13.103C44.187 46.88 42.625 23.67 41.69 9.63c20.584 0 59.879 16.847 64.557 29.95 12.163-4.68 24.326-5.616 35.553-5.616 17.776 0 34.271 8.779 45.377 21.058 8.888 9.827 12.162 17.782 14.501 26.673 0 0 14.034 11.232 10.292 20.591-1.871 4.679-8.42 0-8.42 0s11.479 12.634 9.356 20.59c-2.124 7.955-14.97 10.295-14.97 10.295"/><path fill="#DD5534" d="M111.318 172.273c-1.329-3.154-4.875-5.231-8.018-4.679 1.029-6.804-8.355-11.212-12.94-4.586-2.086 3.023-4.182 6.036-6.268 9.059l-4.79 9.64c-2.676 3.351-5.549 6.365-8.337 9.341-3.47 5.016-6.839 10.108-10.413 15.049-7.148 9.893 1.974 13.187 7.728 9.603a7 7 0 0 0 .337-.216c1.32-.187 4.557-.767 5.857-1.843 1.478-1.226 2.956-2.452 4.435-3.669.093-.066.187-.122.271-.187 1.834 3.257 5.894 5.353 9.609 2.873 7.138-4.764 13.22-10.548 18.244-17.502 3.218-3.444 6.399-10.809 9.047-14.722 5.305-7.861.169-7.908-4.762-8.161"/><path fill="#E47A3A" d="m184.379 167.042-10.301-2.293c-1.197 1.357-1.88 3.107-1.6 4.988a8.4 8.4 0 0 0-1.581 4.024c-3.2.393-5.978 3.182-6.427 6.926a81 81 0 0 1-.356 2.574c-3.929-.73-8.458 1.479-8.374 6.635l.365 22.275c.103 6.383 10.208 10.314 13.08 3.547a128 128 0 0 0 5.763-16.64c2.452 2.377 6.362 2.48 9.085.496.075-1.984-.084-3.866-.515-5.625l4.856-5.138c.01-.075.028-.15.038-.225.074-.009.149-.037.224-.056l3.013-3.191-7.26-18.288z"/><path fill="#F9D168" d="M177.465 61.873c-5.744.094-11.498.178-17.243.272 8.954-6.786 4.594-21.695-7.157-21.966-9.459-.216-18.909-.44-28.368-.656-12.219-.28-14.904 14.47-8.046 21.143-5.174 3.247-8.224 11.156-4.322 16.612 3.358 4.708 7.447 7.132 11.975 8.358-3.723 6.383-.926 16.874 7.158 18.072l7.222 1.067c.159 1.675.683 3.295 1.675 4.68 5.473 7.656 14.895 12.363 24.279 8.751 6.128-2.359 10.357-8.19 8.495-14.966-.355-1.291-.991-2.527-1.815-3.668.861-2.827.917-5.98.056-8.723 4.36-1.526 8.552-3.5 12.219-6.318 4.36-3.35 7.148-8.058 5.586-13.739-1.404-5.091-6.4-9.013-11.733-8.928zm-19.938 33.103c-.411.122-.318.028 0 0"/><path fill="#F5C345" d="M103.552 126.844c9.422-3.051 14.577-10.651 15.457-20.309.842-9.247.514-18.456-.627-27.62.112-.327.215-.664.308-1 1.385-5.045.758-11.756-2.123-16.23-5.558-8.619-19.442-14.712-28.798-7.552-.272.206-.524.421-.786.627-4.201 2.18-7.288 5.41-9.197 9.294-3.668 4.913-6.156 10.463-7.298 16.79l.094-.094s-.038.047-.103.113a42 42 0 0 0-.627 5.447c-.58 10.894 3.508 22.162 9.927 30.857 5.407 7.328 14.286 12.747 23.773 9.677"/><path fill="#E47A3A" d="M90.913 62.987c4.116-3.276.655-9.004-3.659-9.481 1.263-2.508.609-5.868-2.002-7.431.43-1.357.346-2.93-.43-4.502-3.247-6.608-9.843-9.968-16.56-12.13-8.205-2.648-16.766-4.164-25.318-5.166.459 3.875 1.058 7.806 1.89 11.484 5.913.814 11.76 2.04 17.515 3.66.804.224 1.618.458 2.432.701-5.136.44-10.263.89-15.4 1.33-.963.046-1.936.121-2.9.187 1.684 4.941 4.014 8.937 7.25 10.95 1.04 0 2.078 0 3.116.037a124 124 0 0 0-4.874 1.582c-2.358 2.162-5.941 6.42-4.66 11.577.524 2.106 1.45 3.135 2.545 3.51q2.667-.784 5.333-1.526a19 19 0 0 0 2.05-1.638c-.319.31-.824.814-1.395 1.46 1.572-.43 3.144-.88 4.725-1.291-1.085 1.123-2.068 2.34-2.853 3.743-1.254 2.247-.768 4.633.589 6.29.702-.627 1.16-1.18 1.16-1.18s-.412.496-1.038 1.32c.411.468.888.88 1.422 1.198-1.928 2.77-3.621 5.71-5.006 8.882-.945 2.162-.524 4.23.562 5.793C60.702 90.7 70.573 80.75 70.573 80.75s-5.633 6.346-10.797 14.357c1.862.243 3.742-.552 4.762-2.892 5.436-12.448 15.98-20.964 26.365-29.228z"/><path fill="#F5C345" d="M203.559 102.286s6.549 4.679 8.42 0c3.743-9.36-10.291-20.59-10.291-20.59-2.339-8.892-5.614-16.847-14.502-26.674a66.4 66.4 0 0 0-10.572-9.396c-9.936 3.51-18.114 14.815-14.184 25.718 4.706 13.047 10.348 25.794 17.112 37.905 5.38 9.621 19.367 13.636 28.798 7.553a23.7 23.7 0 0 0 3.218-2.499c-2.741-6.215-8.008-12.017-8.008-12.017z"/><path stroke-linecap="round" stroke-linejoin="round" stroke-width="5" d="M84.738 170.607c-17.777-5.615-9.356-15.91-9.356-15.91s-4.679 8.423-9.357 4.679c-6.727-5.381 7.485-20.59 7.485-20.59s-9.955 11.905-15.905 6.551c-8.018-7.215 8.692-25.737 8.692-25.737s-11.76 7.571-14.306.468c-4.678-13.103 18.59-39.318 18.59-39.318s-15.783 15.92-18.14 10.82c-2.358-5.101 7.026-16.426 7.026-16.426s-4.678 5.616-7.026 1.535c-2.349-4.08 5.155-10.894 5.155-10.894s-8.224 8.273-10.292 0c-1.871-7.487 6.55-13.103 6.55-13.103C44.187 46.88 42.625 23.67 41.69 9.63c20.584 0 59.879 16.847 64.557 29.95 12.163-4.68 24.326-5.616 35.553-5.616 17.776 0 34.271 8.779 45.377 21.058 8.888 9.827 12.162 17.782 14.501 26.673 0 0 14.034 11.232 10.292 20.591-1.871 4.679-8.42 0-8.42 0s11.479 12.634 9.356 20.59c-2.124 7.955-14.97 10.295-14.97 10.295"/><path fill="#FFFEFC" stroke-linecap="round" stroke-linejoin="round" stroke-width="5" d="M139.358 98.654c0 10.66-4.585 20.946-20.527 20.946-10.676 0-18.188-10.398-18.188-21.058s7.484-18.718 18.188-19.186c11.32-.496 20.527 8.638 20.527 19.298m53.441-1.048c0 9.565-1.703 17.315-8.42 17.315-6.718 0-15.905-7.75-15.905-17.315s2.638-18.25 9.356-18.25c6.717 0 14.969 8.685 14.969 18.25"/><path fill="#514D49" d="M139.47 98.243c0 9.658-6.521 21.357-14.97 21.357-8.448 0-15.905-11.867-15.905-21.526s7.12-17.323 15.569-17.323c8.448 0 15.306 7.833 15.306 17.492M183.443 83.1c-5.941 0-7.485 7.01-7.485 14.506s4.819 13.571 10.76 13.571c1.534 0 2.984-.412 4.304-1.133 1.328-3.144 1.777-7.552 1.777-12.438 0-5.353-2.591-10.435-6.053-13.87-1.132-.402-2.255-.636-3.303-.636"/><path stroke-linecap="round" stroke-linejoin="round" stroke-width="5" d="M182.77 191.656c4.089 10.164-1.974 24.418-13.501 43.538-11.526 19.121-17.767 22.902-17.767 22.902-5.96 2.368-8.345 3.304-8.345 3.304s-6.971.187-16.327.936c-9.356.748-13.098-.936-13.098-.936"/><path stroke-linecap="round" stroke-linejoin="round" stroke-width="5" d="M184.847 207.108s2.891-7.198 2.601-15.611-7.027-13.805-7.027-13.805"/><path fill="#F9D168" d="M205.898 156.924c4.444-5.503 7.485-11.586 7.485-17.67 0-12.167-4.678-16.846-4.678-16.846s-2.339-5.148-14.97-10.295-25.953-6.215-25.953-6.215-1.179-4.089-4.454-3.612-2.807 1.872-2.807 1.872c.15.018-1.871-1.872-4.678-1.872-3.864 0-4.678 3.743-4.678 3.743s-1.871-1.871-5.473-1.198c-2.302.431-3.883 4.942-3.883 4.942s-6.549 0-28.068 5.616c-17.832 4.651-30.603 20.646-31.81 32.756"/><path stroke-linecap="round" stroke-linejoin="round" stroke-width="5" d="M205.898 156.924c4.444-5.503 7.485-11.586 7.485-17.67 0-12.167-4.678-16.846-4.678-16.846s-2.339-5.148-14.97-10.295-25.953-6.215-25.953-6.215-1.179-4.089-4.454-3.612-2.807 1.872-2.807 1.872c.15.018-1.871-1.872-4.678-1.872-3.864 0-4.678 3.743-4.678 3.743s-1.871-1.871-5.473-1.198c-2.302.431-3.883 4.942-3.883 4.942s-6.549 0-28.068 5.616c-17.832 4.651-30.603 20.646-31.81 32.756"/><path stroke-linecap="round" stroke-linejoin="round" stroke-width="5" d="M177.764 154.369c.29 8.414 6.082 11.194 10.956 19.289 5.483 9.116 2.339 18.569-1.235 21.798"/><path fill="#F1B243" d="M154.842 218.545c-.365-4.128-3.892-6.552-7.223-6.411-1.506-2.303-4.631-3.585-7.307-3.117-.318-1.722-.86-3.416-1.805-5.045-1.675-2.882-6.054-4.38-8.963-2.349a24.5 24.5 0 0 0-5.97 5.906c-3.387-.159-6.876 1.947-6.848 6.317.037 5.775.084 11.559.121 17.333.038 5.213-.43 10.829 2.367 15.48 2.62 4.362 6.419 8.274 9.581 12.251 2.058 2.593 4.098 5.812 6.512 8.452 2.283 1.254 4.902 1.834 7.962 1.488 8.411-.936 9.066-4.764 8.233-10.763 0 0 .692-.421 2.03-1.675a158 158 0 0 0-.374-4.343c-.486-5.503-1.431-11.128-.589-16.65.87-5.709 2.778-11.016 2.264-16.884zm-16.083 25.943c.197.047.402.094.599.131.037.524.075 1.048.131 1.572-.243-.571-.477-1.132-.73-1.703"/><path fill="#F1B243" d="M119.664 207.847s-3.883 23.548 1.244 36.482 10.245 25.869 22.361 24.521c12.125-1.348 8.13-8.704 6.811-19.898s1.759-30.96 1.759-30.96"/><path stroke-linecap="round" stroke-linejoin="round" stroke-width="5" d="M119.664 207.847s-3.883 23.548 1.244 36.482 10.245 25.869 22.361 24.521c12.125-1.348 8.13-8.704 6.811-19.898s1.759-30.96 1.759-30.96"/><path fill="#F9D168" d="M86.609 147.21c0 18.718 14.034 25.269 52.861 28.461 12.678 1.039 32.279-3.192 50.055-10.679 6.222-2.621 17.777-9.359 16.841-20.59"/><path stroke-linecap="round" stroke-linejoin="round" stroke-width="5" d="M86.609 147.21c0 18.718 14.034 25.269 52.861 28.461 12.678 1.039 32.279-3.192 50.055-10.679 6.222-2.621 17.777-9.359 16.841-20.59"/><path fill="#F1B243" d="M210.641 150.513c-.112-.224-.215-.449-.337-.655a13.2 13.2 0 0 0-1.796-2.415 15 15 0 0 0-.776-4.221c-2.433-7.244-9.123-11.015-16.617-9.434a171 171 0 0 0-18.478 4.989c-2.732-5.55-9.674-9.565-15.793-7.31-1.459.534-2.91 1.095-4.36 1.657-2.694-5.981-9.449-9.032-15.896-7.497-16.766 3.997-31.791 11.989-45.086 22.865-2.133 1.74-3.331 4.202-3.752 6.85 3.5 11.007 15.456 16.248 40.053 19.187.945-.543 1.899-1.077 2.844-1.601.187.421.403.833.637 1.236.168.28.346.543.533.814 2.442.253 4.977.496 7.644.711 5.127.421 11.405-.037 18.225-1.207a153 153 0 0 1 8.056-3.996c.234.73.524 1.441.889 2.124a155 155 0 0 0 22.875-7.6c4.996-2.105 17.047-6.869 21.117-14.478z"/><path fill="#514D49" d="M146.431 115.697c-1.478 5.232 9.244 14.002 17.028 13.215 7.784-.776 14.249-6.972 13.744-13.215-.515-6.242-12.182-6.242-19.189-5.465-7.008.777-10.704 2.368-11.574 5.465z"/><path fill="#E1737D" d="M153.972 135.979s5.51 1.918 3.742 13.103c-1.45 9.171 10.02 13.58 15.905 8.423 7.485-6.552 4.968-17.549-.935-23.398"/><path stroke-linecap="round" stroke-linejoin="round" stroke-width="5" d="M153.972 135.979s5.51 1.918 3.742 13.103c-1.45 9.171 10.02 13.58 15.905 8.423 7.485-6.552 4.968-17.549-.935-23.398"/><path stroke-linecap="round" stroke-linejoin="round" stroke-width="5" d="M164.263 133.171s1.385 2.274 2.807 6.551c1.871 5.616.936 8.423.936 8.423"/><path stroke-linecap="round" stroke-linejoin="round" stroke-width="5" d="M135.26 143.466c10.291-1.872 17.776-10.295 29.939-10.295s14.829 3.032 19.601 4.642m-21.005-7.918v3.276M86.609 147.21c0 18.718 14.034 25.269 52.861 28.461 12.678 1.039 32.279-3.192 50.055-10.679 6.222-2.621 17.777-9.359 16.841-20.59"/><path stroke-linecap="round" stroke-linejoin="round" stroke-width="5" d="M205.898 156.924c4.444-5.503 7.485-11.586 7.485-17.67 0-12.167-4.678-16.846-4.678-16.846s-2.339-5.148-14.97-10.295-25.953-6.215-25.953-6.215-1.179-4.089-4.454-3.612-2.807 1.872-2.807 1.872c.15.018-1.871-1.872-4.678-1.872-3.864 0-4.678 3.743-4.678 3.743s-1.871-1.871-5.473-1.198c-2.302.431-3.883 4.942-3.883 4.942s-6.549 0-28.068 5.616c-17.832 4.651-30.603 20.646-31.81 32.756"/><path fill="#E47A3A" d="M120.038 68.902c.327-.056.655-.112.982-.16l-1.862.254a21.6 21.6 0 0 1 5.548 0l-1.861-.253a21.7 21.7 0 0 1 4.425 1.104c.936.29 1.862.337 2.797.122a5.25 5.25 0 0 0 2.611-.833c1.459-.852 2.844-2.518 3.228-4.193.411-1.797.318-3.809-.711-5.41l-1.095-1.422a7.1 7.1 0 0 0-3.097-1.806c-2.339-.852-4.809-1.245-7.288-1.46-2.48-.216-4.968.075-7.41.514a5.25 5.25 0 0 0-2.386 1.255 5.3 5.3 0 0 0-1.806 1.965c-.879 1.507-1.253 3.725-.711 5.41.543 1.684 1.6 3.34 3.228 4.192l1.675.712a7 7 0 0 0 3.733 0zm44.849.58c3.209-.898 6.418-1.797 9.627-2.705 1.703-.477 3.303-1.694 4.192-3.229a5.25 5.25 0 0 0 .833-2.61 5.37 5.37 0 0 0-.122-2.8c-.552-1.693-1.6-3.34-3.228-4.192s-3.555-1.226-5.408-.711q-4.814 1.345-9.627 2.704c-1.703.478-3.303 1.694-4.191 3.23a5.25 5.25 0 0 0-.833 2.61 5.37 5.37 0 0 0 .122 2.799c.552 1.694 1.599 3.341 3.227 4.193s3.556 1.226 5.408.711"/><path fill="#F9D168" d="M99.473 267.212c.29 0 .58-.019.87-.028-.093-.15-.187-.299-.271-.449z"/><path fill="#F9D168" d="M97.368 253.435s10.385-9.686 6.297-25.718c-2.536.29-4.866 1.619-6.99 3.481-.374-2.789-2.086-4.969-6.25-5.643-7.362-1.189-13.986 7.347-17.317 12.859-4.08 6.757-5.979 14.75-5.417 22.612.065.861.271 1.619.58 2.293 8.523 3.135 21.023 4.155 31.202 3.902l.599-.477c.084.159.178.309.271.449 7.597-.243 13.754-1.207 15.728-2.527 5.613-3.743-6.55-11.231-18.712-11.231zm45.901 15.415c12.125-1.348 8.13-8.704 6.811-19.898-.421-3.566-.393-8.002-.159-12.391-2.564-.665-5.165-.403-7.691.458-.889-1.797-2.573-3.247-5.043-3.528-6.568-.749-14.352.365-17.505 6.907.337 1.385.739 2.705 1.226 3.921 5.118 12.935 10.245 25.869 22.361 24.521zm3.274-20.544.056.029c-.028-.01-.056-.019-.074-.029h.028z"/><path stroke-linecap="round" stroke-linejoin="round" stroke-width="5" d="M119.664 207.847s-3.883 23.548 1.244 36.482 10.245 25.869 22.361 24.521c12.125-1.348 8.13-8.704 6.811-19.898s1.759-30.96 1.759-30.96M62.75 227.23c2.808-9.359 8.898-12.176 15.906-14.975 4.678-1.871 19.648-.936 24.326 13.103 5.81 17.446-5.614 28.077-5.614 28.077 12.163 0 24.326 7.488 18.712 11.231-5.613 3.744-44.909 4.624-55.2-5.615s-10.292-23.398-4.678-44.924 27.132-27.141 33.681-53.347"/><path stroke-linecap="round" stroke-linejoin="round" stroke-width="5" d="M62.75 227.23c2.808-9.359 8.898-12.176 15.906-14.975 4.678-1.871 19.648-.936 24.326 13.103 5.81 17.446-5.614 28.077-5.614 28.077 12.163 0 24.326 7.488 18.712 11.231-5.613 3.744-44.909 4.624-55.2-5.615s-10.292-23.398-4.678-44.924 27.132-27.141 33.681-53.347"/><path fill="#E2DEDB" stroke-linecap="round" stroke-linejoin="round" stroke-width="6" d="m112.338 286.192-8.421-6.551V201.96l116.015-32.757 8.421 6.552z"/><path fill="#FFFEFC" stroke-linecap="round" stroke-linejoin="round" stroke-width="6" d="m228.353 253.436-116.015 32.756v-77.68l116.015-32.757z"/><path stroke-linecap="round" stroke-linejoin="round" stroke-width="6" d="m126.372 217.871 25.261-80.489m30.407 0 30.192 54.367"/><path fill="#514D49" d="M142.739 257.995c6.933-2.054 11.486-7.972 11.38-14.365-.098-5.921-4.18-8.959-9.59-7.335-2.777.801-5.102 2.74-6.082 4.734l-.206.06.577-7.629 13.289-3.937-.098-5.92-19.05 5.642-1.179 18.63 6.295-1.864c.775-1.89 2.2-3.196 4.319-3.823 2.86-.847 4.91.636 4.94 3.667.07 3.019-1.891 5.669-4.689 6.477-2.427.74-4.407-.226-4.548-2.49l-6.83 2.023c.195 5.504 4.951 8.062 11.472 6.13m27.648-8.19c7.735-2.291 12.392-9.448 12.202-19.653-.148-10.153-4.996-14.559-12.731-12.268s-12.371 9.464-12.202 19.653c.169 10.19 4.996 14.559 12.731 12.268m-5.531-14.4c-.092-6.785 1.953-10.646 5.1-11.6 3.169-.917 5.321 1.701 5.433 8.48.135 6.88-1.933 10.618-5.101 11.556-3.168.939-5.338-1.544-5.432-8.436m34.249 5.894c7.735-2.292 12.392-9.449 12.202-19.654-.148-10.153-4.996-14.559-12.731-12.267s-12.371 9.463-12.202 19.653 4.996 14.559 12.731 12.268m-5.531-14.401c-.091-6.785 1.953-10.646 5.1-11.6 3.169-.917 5.321 1.701 5.433 8.48.135 6.88-1.932 10.618-5.1 11.557-3.169.938-5.339-1.545-5.433-8.437"/></g><defs><clipPath id="a"><path fill="#fff" d="M0 0h248v289H0z"/></clipPath></defs></svg>