<svg xmlns="http://www.w3.org/2000/svg" fill="none" viewBox="0 0 367 294" stroke="inherit"><g clip-path="url(#a)"><path fill="#E47A3A" d="M80.404 157.777s7.948 16.526 12.996 16.694c5.047.167 10.078 0 10.078 0s81.747 70.177 104.804 47.12c14.254-14.254-24.314-31.861-24.314-31.861s17.8-3.781 25.153-8.384c0 0 32.581 26.712 41.083 19.284s3.354-20.961-27.668-31.861-119.067-96.42-119.067-96.42"/><path fill="#DD5534" d="M53.96 72.114S39.126 55.06 44.677 35.617C48.652 21.699 56.55 15.402 63.87 10.003c7.319-5.4-16.107-14.279-32.482-.805C15.014 22.67 16.196 32.565 16.196 32.565s-16.71.327-12.208 7.06c4.511 6.74 11.487 7.47 11.487 7.47S-.338 48.244 2.689 55.287c3.026 7.042 13.34 4.863 13.34 4.863S3.09 64.434 7.014 72.064s15.662 1.29 15.662 1.29-9.952 7.496-5.173 11.873c4.77 4.377 13.256-2.809 13.256-2.809s-4.99 11.32 1.92 12.67c6.908 1.349 17.045-6.692 17.045-6.692l4.243-16.29z"/><path fill="#E47A3A" d="M44.678 35.608C48.652 21.69 56.55 15.394 63.87 9.994c5.584-4.117-6.724-10.254-20.148-6.95a33 33 0 0 0-1.006 3.655c-.134-.034-.26-.084-.394-.117a28.2 28.2 0 0 0-5.726-.847 30 30 0 0 0-5.207 3.454c-3.95 3.253-6.875 6.288-9.047 9.039.445 2.708 1.643 5.458 3.11 7.973a12.2 12.2 0 0 0-2.665 2.834c-4.553 6.632-1.669 12.686 3.47 17.272-1.324 1.995-1.97 4.444-1.559 7.37.47 3.345 2.264 5.97 4.754 7.89-.176 1.408.034 2.909.62 4.342 1.97 4.796 6.398 7.513 11.479 7.73 5.584.236 8.158-4.728 7.428-8.987-3.706-6.792-7.596-17.498-4.3-29.044"/><path stroke-linecap="round" stroke-linejoin="round" stroke-width="4.523" d="M53.96 72.114S39.126 55.06 44.677 35.617C48.652 21.699 56.55 15.402 63.87 10.003c7.319-5.4-16.107-14.279-32.482-.805C15.014 22.67 16.196 32.565 16.196 32.565s-16.71.327-12.208 7.06c4.511 6.74 11.487 7.47 11.487 7.47S-.338 48.244 2.689 55.287c3.026 7.042 13.34 4.863 13.34 4.863S3.09 64.434 7.014 72.064s15.662 1.29 15.662 1.29-9.952 7.496-5.173 11.873c4.77 4.377 13.256-2.809 13.256-2.809s-4.99 11.32 1.92 12.67c6.908 1.35 17.045-6.692 17.045-6.692l4.243-16.29z"/><path fill="#E47A3A" d="M51.486 104.209c10.732-12.19 37.78-3.479 37.73 15.931s-15.772 21.271-15.772 21.271c6.867-2.205 27.929 4.301 29.807 15.318s-23.745 10.875-37.931 5.743-38.577-18.823-38.987-35.633c-.42-17.188 10.9-46.953 26.41-54.08s50.726-.419 50.726-.419l-15.98 80.708-25.523-8.183-.838-20.122"/><path fill="#DD5534" d="M108.273 74.73c-13.943-4.746-28.724-4.033-43.196-3.019-7.143.495-7.974 10.506-2.373 12.309-.964 3.689.906 7.982 5.786 7.671.251-.016.503-.025.746-.042.084 3.036 2.096 5.962 6.062 5.962.737 0 1.467-.017 2.205-.025 4.913.05 9.55.863 14.287 2.473 3.915 1.333 6.682-1.174 7.453-4.293 1.744-.26 3.497-.545 5.232-.855 4.335-.788 5.232-4.813 3.916-8.091 6.296-1.492 5.324-10.229-.126-12.09z"/><path fill="#F1B243" d="M211.409 215.445c-.075-.118-.142-.243-.226-.361-4.259-6.037-8.669-12.174-13.692-17.657-6.799-4.62-13.532-7.689-13.532-7.689s1.66-.352 4.167-.972c-2.842-2.164-5.877-4.084-9.189-5.651-3.824-1.82-7.404.327-8.879 3.261-2.004-1.551-4.092-2.985-6.356-4.15-5.357-2.767-13.155-5.291-18.965-2.407-2.054 1.023-3.253 2.424-3.832 4-2.599-1.4-5.391-2.306-8.619-2.13-8.049.453-8.099 13.038 0 12.577 2.968-.168 5.4 2.305 7.68 3.991a314 314 0 0 0 8.854 6.33 284 284 0 0 0 17.046 10.849c3.63 2.138 7.663 4.737 11.922 7.043 12.744 4.704 23.963 5.643 30.486-.88 2.004-2.004 2.959-4.067 3.135-6.146zm13.792-45.703c-1.098.612-2.163 1.517-3.202 2.792a22 22 0 0 0-1.77 2.507c-.436 0-.872 0-1.308.016-5.609.168-7.336 6.289-5.148 9.927.99.747 2.113 1.577 3.321 2.457.553.143 1.157.21 1.827.193h.017c.352.704.788 1.383 1.317 2.046 10.27 7.118 24.683 15.528 29.932 10.95 8.25-7.211 3.639-20.165-24.994-30.888z"/><path fill="#F9D168" d="M198.565 198.165a9.5 9.5 0 0 0-3.111 1.257c-2.616-1.224-5.441-2.07-8.149-2.557-4.93-.888-8.494 1.912-9.533 5.509-1.275-.294-2.599-.294-3.823.042-4.402 1.207-6.406 5.567-5.568 9.801.596 3.01 2.046 5.693 3.974 8.074 14.933 6.481 28.482 8.745 35.919 1.308 7.982-7.982-.612-17.02-9.709-23.426zm51.63 2.465c6.506-5.676 5.006-14.924-9.91-23.837-3.446 1.065-5.567 4.226-6.515 7.89-4.142 1.66-7.034 6.254-3.924 11.067l.059.084c8.208 4.737 16.567 8.049 20.299 4.787z"/><path stroke-linecap="round" stroke-linejoin="round" stroke-width="4.523" d="M80.404 157.777s7.948 16.526 12.996 16.694c5.047.167 10.078 0 10.078 0s81.747 70.177 104.804 47.12c14.254-14.254-24.314-31.861-24.314-31.861s17.8-3.781 25.153-8.384c0 0 32.581 26.712 41.083 19.284s3.354-20.961-27.668-31.861-119.067-96.42-119.067-96.42"/><path fill="#F1B243" stroke-linecap="round" stroke-linejoin="round" stroke-width="4.523" d="M182.567 47.841s7.898-13.86 15.226-19.3c7.328-5.45 23.602-15.092 34.585-13.03.621 11.88 2.709 19.133 3.052 25.187.378 6.699-1.115 9.155-1.115 9.155s6.154 4.57 2.893 7.547c-3.22 2.934-9.164 1.358-9.164 1.358s12.937 5.986 8.049 8.787c-4.88 2.791-7.32.41-7.32.41s10.305 7.815 6.305 11.403c-3.999 3.58-14.086 3.312-14.086 3.312l-38.425-34.812z"/><path fill="#E47A3A" d="M232.807 21.204a187.5 187.5 0 0 0-31.677 24.197c-1.928 1.828-1.802 4.025-.662 5.677-2.708 1.878-5.433 3.74-8.158 5.592l8.728 7.906c3.128-1.651 6.129-3.546 9.114-5.474.252.234.528.452.847.62a6.08 6.08 0 0 0 1.291 4.26c2.113 2.682 6.163 3.605 9.391 4.015.503.067 1.014.11 1.517.143-1.434 4.611 3.522 9.516 8.653 8.862 1.576-.201 2.733-.972 3.479-1.995-1.534-2.968-5.282-6.062-6.305-6.867.746.511 3.102 1.652 7.06-.612 4.88-2.792-8.049-8.787-8.049-8.787s4.435 1.174 7.722-.402c-1.308-.671-2.809-1.023-4.343-1.023a84 84 0 0 0 4.829-1.51 5.3 5.3 0 0 0 1.836-1.073c-.511-2.465-3.781-4.888-3.781-4.888s.939-1.56 1.14-5.542c-.243-1.694-1.291-3.236-3.001-3.89.93-.696 1.844-1.4 2.775-2.105-.512-4.502-1.685-9.81-2.406-17.112z"/><path stroke-linecap="round" stroke-linejoin="round" stroke-width="4.523" d="M182.567 47.841s7.898-13.86 15.226-19.3c7.328-5.45 23.602-15.092 34.585-13.03.621 11.88 2.709 19.133 3.052 25.187.378 6.699-1.115 9.155-1.115 9.155s6.154 4.57 2.893 7.547c-3.22 2.934-9.164 1.358-9.164 1.358s12.937 5.986 8.049 8.787c-4.88 2.791-7.32.41-7.32.41s10.305 7.815 6.305 11.403c-3.999 3.58-14.086 3.312-14.086 3.312l-38.425-34.812z"/><path fill="#F1B243" d="M133.108 169.733c-16.157-4.242-9.072-13.826-9.072-13.826s-3.815 7.748-8.166 4.603c-6.263-4.519 5.793-18.755 5.793-18.755s-8.384 11.092-13.943 6.565c-7.495-6.104 6.641-23.41 6.641-23.41s-10.196 7.295-12.778 1.048c-4.763-11.52 14.907-36.002 14.907-36.002s-13.423 14.941-15.754 10.48c-2.33-4.46 5.567-15.008 5.567-15.008s-3.94 5.232-6.229 1.686 4.142-9.978 4.142-9.978-7.001 7.764-9.215.453c-2.004-6.615 5.282-12.015 5.282-12.015-8.904-4.762-11.327-25.463-12.786-37.981 18.421-.905 54.339 12.434 59.102 23.946 10.681-4.72 21.522-6.096 31.575-6.59 15.914-.788 31.064 6.347 41.545 16.836 8.392 8.4 11.671 15.376 14.152 23.224 0 0 13.055 9.433 10.12 17.968-1.467 4.268-7.537.369-7.537.369s10.832 10.799 9.281 18.009-12.945 9.869-12.945 9.869"/><path fill="#F9D168" d="M209.439 69.725c-5.139.368-10.279.746-15.41 1.115 7.663-6.515 3.018-19.637-7.512-19.293-8.469.285-16.937.562-25.413.847-10.95.36-12.602 13.7-6.138 19.318-4.46 3.169-6.791 10.388-3.027 15.075 3.245 4.04 7.018 6.003 11.135 6.875-3.01 5.894.017 15.134 7.319 15.804 2.172.202 4.344.394 6.515.596.226 1.492.78 2.909 1.736 4.1 5.282 6.565 13.951 10.304 22.16 6.607 5.366-2.415 8.853-7.84 6.85-13.818-.386-1.132-1.015-2.213-1.803-3.186.62-2.574.52-5.4-.394-7.797 3.832-1.585 7.479-3.555 10.615-6.264 3.731-3.21 5.994-7.57 4.309-12.568-1.509-4.485-6.179-7.739-10.942-7.395zm-16.173 30.611c-.361.134-.277.042 0 0"/><path fill="#F5C345" d="M148.024 129.74c8.292-3.144 12.576-10.179 12.937-18.848.344-8.318-.352-16.543-1.786-24.684.084-.293.159-.603.226-.914 1.023-4.57.16-10.547-2.616-14.42-5.349-7.463-18.051-12.31-26.109-5.493-.234.193-.444.394-.67.596-3.664 2.13-6.28 5.164-7.814 8.72-3.061 4.552-5.056 9.633-5.786 15.351.051-.05.084-.092.084-.092l-.084.109a41 41 0 0 0-.327 4.896c-.033 9.777 4.117 19.679 10.246 27.166 5.165 6.322 13.356 10.774 21.707 7.613zm88.421-26.378s6.071 3.899 7.538-.368c2.934-8.536-10.12-17.968-10.12-17.968-2.482-7.856-5.769-14.824-14.153-23.225a60 60 0 0 0-9.877-7.948c-8.736 3.58-15.561 14.06-11.562 23.644 4.788 11.47 10.397 22.621 16.995 33.16 5.241 8.368 17.943 11.344 26.109 5.492a21 21 0 0 0 2.767-2.373c-2.725-5.442-7.697-10.405-7.697-10.405z"/><path fill="#FFFEFC" stroke-linecap="round" stroke-linejoin="round" stroke-width="4.523" d="M182.224 107.06c.536 9.533-3.044 18.965-17.305 19.77-9.55.537-16.794-8.384-17.331-17.917s5.752-17.12 15.301-18.077c10.112-1.014 18.798 6.691 19.335 16.232z"/><path fill="#514D49" d="M182.308 106.683c.486 8.644-4.754 19.426-12.317 19.854s-14.832-9.81-15.318-18.454c-.487-8.644 5.5-15.855 13.063-16.282 7.562-.428 14.085 6.237 14.572 14.873z"/><path fill="#FFFEFC" stroke-linecap="round" stroke-linejoin="round" stroke-width="4.523" d="M229.955 102.725c1.032 8.502.344 15.578-5.626 16.308-5.978.721-14.983-5.182-16.014-13.683-1.031-8.502.386-16.518 6.364-17.239 5.978-.72 14.253 6.113 15.285 14.623z"/><path fill="#514D49" d="M220.07 90.828c-5.29.637-5.902 7.043-5.097 13.708.804 6.666 5.743 11.554 11.033 10.908 1.359-.167 2.608-.687 3.706-1.475.847-2.943.772-6.909.243-11.252-.578-4.763-3.429-9.005-6.875-11.688-1.048-.235-2.071-.319-3.01-.21z"/><path fill="#E47A3A" d="M163.442 82.25c.285-.066.579-.133.872-.192l-1.66.319a19 19 0 0 1 4.972-.277l-1.685-.134c1.366.109 2.708.369 4.016.763a4.8 4.8 0 0 0 2.507-.025 4.6 4.6 0 0 0 2.289-.88c1.257-.84 2.414-2.399 2.674-3.916.277-1.627.092-3.43-.905-4.805l-1.057-1.215a6.2 6.2 0 0 0-2.859-1.46c-2.138-.645-4.368-.871-6.59-.938s-4.444.318-6.607.83a4.75 4.75 0 0 0-2.071 1.24 4.7 4.7 0 0 0-1.517 1.854c-.713 1.391-.931 3.395-.361 4.871s1.602 2.901 3.094 3.589l1.534.544a6.36 6.36 0 0 0 3.337-.184zm42.543-2.766c2.825-.965 5.651-1.937 8.476-2.901 1.501-.512 2.868-1.686 3.589-3.094a4.7 4.7 0 0 0 .612-2.373 4.7 4.7 0 0 0-.252-2.498c-.578-1.493-1.601-2.901-3.094-3.589-1.492-.687-3.244-.922-4.871-.36-2.825.964-5.651 1.936-8.476 2.9-1.501.512-2.868 1.686-3.589 3.094a4.7 4.7 0 0 0-.612 2.373 4.7 4.7 0 0 0 .252 2.499c.578 1.492 1.601 2.9 3.093 3.588 1.493.688 3.245.922 4.872.36"/><path fill="#F1B243" d="M103.251 156.738c-1.753-10.305-20.265-16.652-28.28-15.637 3.94-1.048 14.202-5.274 14.244-20.953.042-15.603-17.422-24.281-29.848-20.76l4.318-2.64c-18.328 7.176-31.475 24.716-31.475 43.523 0 .226.017.444.017.67 8.191 10.137 23.149 17.951 33.101 21.548 14.187 5.123 39.809 5.274 37.931-5.743z"/><path stroke-linecap="round" stroke-linejoin="round" stroke-width="4.523" d="M51.486 104.209c10.732-12.19 37.78-3.479 37.73 15.931s-15.772 21.271-15.772 21.271c6.867-2.205 27.929 4.301 29.807 15.318s-23.745 10.875-37.931 5.743-38.577-18.823-38.987-35.633c-.42-17.188 10.9-46.953 26.41-54.08s50.726-.419 50.726-.419"/><path fill="#E47A3A" d="M133.887 73.17c3.539-3.11.193-8.082-3.689-8.317 1.023-2.297.285-5.282-2.121-6.556.327-1.233.176-2.641-.578-4.008-3.195-5.769-9.248-8.485-15.361-10.129-7.462-2.003-15.192-2.984-22.889-3.512.579 3.445 1.291 6.933 2.205 10.186a117 117 0 0 1 15.838 2.499c.73.168 1.467.335 2.205.52-4.578.62-9.147 1.25-13.725 1.87-.864.083-1.727.192-2.59.301 1.727 4.352 3.982 7.815 6.975 9.483.931-.05 1.861-.092 2.792-.109a97 97 0 0 0-4.293 1.635c-2.02 2.037-5.039 6.012-3.655 10.564.561 1.862 1.442 2.742 2.431 3.027a347 347 0 0 1 4.704-1.601 19 19 0 0 0 1.769-1.551c-.268.293-.696.763-1.182 1.366 1.392-.46 2.775-.93 4.167-1.366-.923 1.048-1.753 2.188-2.39 3.47-1.023 2.072-.486 4.185.805 5.602.604-.596.989-1.107.989-1.107s-.343.46-.872 1.232c.386.403.839.746 1.325 1.006-1.601 2.566-2.993 5.274-4.091 8.167-.747 1.978-.277 3.806.763 5.165 4.661-1.703 13.062-11.043 13.062-11.043s-4.762 5.928-9.03 13.323c1.677.134 3.321-.654 4.134-2.8 4.318-11.378 13.381-19.46 22.302-27.317"/><path stroke-linecap="round" stroke-linejoin="round" stroke-width="4.523" d="M138.684 171.284c-16.157-4.242-14.648-15.377-14.648-15.377s-3.815 7.748-8.166 4.603c-6.263-4.519 5.793-18.755 5.793-18.755s-8.384 11.092-13.943 6.565c-7.495-6.104 6.641-23.41 6.641-23.41s-10.196 7.295-12.778 1.048c-4.763-11.52 14.907-36.002 14.907-36.002s-13.423 14.941-15.754 10.48c-2.33-4.46 5.567-15.008 5.567-15.008s-3.94 5.232-6.229 1.686 4.142-9.978 4.142-9.978-7.001 7.764-9.215.453c-2.004-6.615 5.282-12.015 5.282-12.015-8.904-4.762-11.327-25.463-12.786-37.981 18.421-.905 54.339 12.434 59.102 23.946 10.681-4.72 21.522-6.096 31.575-6.59 15.914-.788 31.064 6.347 41.545 16.836 8.392 8.4 11.671 15.376 14.152 23.224 0 0 13.055 9.433 10.12 17.968-1.467 4.268-7.537.369-7.537.369s10.832 10.799 9.281 18.009-12.945 9.869-12.945 9.869"/><path fill="#F9D168" d="M251.219 160.251c3.723-5.174 6.146-10.799 5.835-16.274-.62-10.942-5.064-14.916-5.064-14.916s-2.364-4.511-13.993-8.502-23.669-4.268-23.669-4.268-1.266-3.622-4.193-3.026c-2.926.595-2.431 1.827-2.431 1.827.134.009-1.778-1.593-4.301-1.45-3.48.193-4.016 3.605-4.016 3.605s-1.778-1.593-4.989-.796c-2.046.503-3.245 4.645-3.245 4.645s-5.894.335-24.968 6.472c-15.813 5.09-30.385 20.19-30.855 31.148"/><path stroke-linecap="round" stroke-linejoin="round" stroke-width="4.55" d="M251.219 160.251c3.723-5.174 6.146-10.799 5.835-16.274-.62-10.942-5.064-14.916-5.064-14.916s-2.364-4.511-13.993-8.502-23.669-4.268-23.669-4.268-1.266-3.622-4.193-3.026c-2.926.595-2.431 1.827-2.431 1.827.134.009-1.778-1.593-4.301-1.45-3.48.193-4.016 3.605-4.016 3.605s-1.778-1.593-4.989-.796c-2.046.503-3.245 4.645-3.245 4.645s-5.894.335-24.968 6.472c-15.813 5.09-30.385 20.19-30.855 31.148"/><path fill="#F9D168" d="M139.522 157.87c.948 16.835 17.775 21.715 52.872 22.621 11.462.293 28.884-4.511 44.496-12.149 5.467-2.675 15.52-9.324 14.111-19.377"/><path stroke-linecap="round" stroke-linejoin="round" stroke-width="4.55" d="M139.522 157.87c.948 16.835 17.775 21.715 52.872 22.621 11.462.293 28.884-4.511 44.496-12.149 5.467-2.675 15.52-9.324 14.111-19.377"/><path fill="#F1B243" d="M255.16 154.247c-.109-.192-.218-.394-.335-.57a12.2 12.2 0 0 0-1.736-2.079 13.8 13.8 0 0 0-.914-3.765c-2.557-6.397-8.761-9.44-15.427-7.646a153 153 0 0 0-16.375 5.425c-2.741-4.855-9.189-8.116-14.58-5.777a222 222 0 0 0-3.84 1.71c-2.734-5.24-8.963-7.646-14.69-5.936-14.882 4.452-28.003 12.392-39.406 22.847-1.828 1.677-2.784 3.95-3.027 6.356 3.714 9.717 14.731 13.834 37.017 15.226.822-.537 1.652-1.057 2.482-1.585.193.369.402.73.637 1.082.159.243.344.469.52.704 2.205.109 4.502.193 6.917.252 4.637.117 10.262-.612 16.341-2.013 2.331-1.417 4.67-2.75 7.051-4.007q.365.968.906 1.861a141 141 0 0 0 20.206-7.99c4.385-2.147 14.992-7.043 18.27-14.095z"/><path fill="#514D49" d="M195.613 126.185c-1.064 4.779 9.03 12.124 15.989 11.025 6.96-1.098 12.468-7.001 11.697-12.585s-11.277-4.997-17.54-3.94c-6.381 1.073-9.508 2.674-10.137 5.5z"/><path fill="#E1737D" d="M203.436 144.044s5.056 1.442 4.033 11.595c-.839 8.326 9.701 11.705 14.74 6.775 6.405-6.272 3.58-16.04-2.029-21.003"/><path stroke-linecap="round" stroke-linejoin="round" stroke-width="4.55" d="M203.436 144.044s5.056 1.442 4.033 11.595c-.839 8.326 9.701 11.705 14.74 6.775 6.405-6.272 3.58-16.04-2.029-21.003"/><path stroke-linecap="round" stroke-linejoin="round" stroke-width="4.55" d="M212.55 141s1.358 1.979 2.859 5.752c1.97 4.955 1.266 7.529 1.266 7.529"/><path stroke-linecap="round" stroke-linejoin="round" stroke-width="4.55" d="M186.978 151.732c9.164-2.205 15.477-10.162 26.419-10.782 10.941-.621 13.499 1.978 17.875 3.177m-19.309-6.053.168 2.951m-72.609 16.845c.948 16.835 17.775 21.715 52.872 22.621 11.462.293 28.884-4.511 44.496-12.149 5.467-2.675 15.52-9.324 14.111-19.377"/><path stroke-linecap="round" stroke-linejoin="round" stroke-width="4.55" d="M251.219 160.251c3.723-5.174 6.146-10.799 5.835-16.274-.62-10.942-5.064-14.916-5.064-14.916s-2.364-4.511-13.993-8.502-23.669-4.268-23.669-4.268-1.266-3.622-4.193-3.026c-2.926.595-2.431 1.827-2.431 1.827.134.009-1.778-1.593-4.301-1.45-3.48.193-4.016 3.605-4.016 3.605s-1.778-1.593-4.989-.796c-2.046.503-3.245 4.645-3.245 4.645s-5.894.335-24.968 6.472c-15.813 5.09-30.385 20.19-30.855 31.148"/></g><g clip-path="url(#b)"><path fill="#FFFEFC" stroke-linecap="round" stroke-linejoin="round" stroke-width="5.473" d="M291.283 290.617c40.425 0 73.197-15.331 73.197-34.242s-32.772-34.241-73.197-34.241-73.198 15.33-73.198 34.241 32.772 34.242 73.198 34.242"/><path fill="#417EBD" stroke-linecap="round" stroke-linejoin="round" stroke-width="4.561" d="m360.215 239.371-8.825-37.86H231.177l-8.825 37.86c-1.285 2.631-1.982 5.453-1.982 8.485 0 21.778 35.671 33.17 70.913 33.17 35.243 0 70.914-11.392 70.914-33.17 0-3.032-.697-5.863-1.982-8.485"/><path fill="#78B0DD" d="M333.637 201.511h-46.293l3.056 79.515h.882c17.012 0 34.134-2.656 47.284-7.857l-4.929-71.666z"/><path stroke-linecap="round" stroke-linejoin="round" stroke-width="4.561" d="m360.215 239.371-8.825-37.86H231.177l-8.825 37.86c-1.285 2.631-1.982 5.453-1.982 8.485 0 21.778 35.671 33.17 70.913 33.17 35.243 0 70.914-11.392 70.914-33.17 0-3.032-.697-5.863-1.982-8.485"/><path fill="#FFFEFC" stroke-linecap="round" stroke-linejoin="round" stroke-width="5.473" d="M291.282 229.63c33.195 0 60.106-12.589 60.106-28.119s-26.911-28.118-60.106-28.118-60.107 12.589-60.107 28.118c0 15.53 26.911 28.119 60.107 28.119"/><path fill="#E2DEDB" stroke-linecap="round" stroke-linejoin="round" stroke-width="5.473" d="M291.282 221.237c27.867 0 50.458-8.831 50.458-19.726s-22.591-19.725-50.458-19.725-50.458 8.831-50.458 19.725 22.591 19.726 50.458 19.726"/><path fill="#7062A5" stroke-linecap="round" stroke-linejoin="round" stroke-width="4.561" d="M291.283 192.013c-23.344 0-42.977 6.198-48.737 14.608 5.76 8.409 25.393 14.608 48.737 14.608 23.343 0 42.976-6.199 48.736-14.608-5.76-8.41-25.393-14.608-48.736-14.608"/></g><path fill="#FEFDFB" d="M253.449 260.572h14.425v5h6.68v-5h3.606v-5.491h-3.606v-19.179h-8.811l-12.294 19.22zm6.967-5.491v-.246l7.335-11.515h.246v11.761zm33.603 10.901c7.705 0 12.438-5.492 12.417-15.245.021-9.692-4.712-15.244-12.417-15.244-7.704 0-12.417 5.511-12.417 15.244s4.713 15.245 12.417 15.245m-5.245-15.245c.02-6.475 2.11-9.569 5.245-9.589 3.156.02 5.246 3.114 5.246 9.589.02 6.577-2.09 9.548-5.246 9.548-3.155 0-5.266-2.971-5.245-9.548m21.309 9.835h14.425v5h6.68v-5h3.606v-5.491h-3.606v-19.179h-8.811l-12.294 19.22zm6.967-5.491v-.246l7.335-11.515h.246v11.761z"/><defs><clipPath id="a"><path fill="#fff" d="M.207 0h258.985v228.34H.207z"/></clipPath><clipPath id="b"><path fill="#fff" d="M215.566 170.88h151.433v122.241H215.566z"/></clipPath></defs></svg>