<svg xmlns="http://www.w3.org/2000/svg" fill="none" viewBox="0 0 20 20" stroke="inherit"><path fill="#FEFDFB" fill-rule="evenodd" d="M1.91 1.91a.833.833 0 0 1 1.18 0l3.032 3.033a1 1 0 0 1 .133.134l8.66 8.659a.8.8 0 0 1 .153.153l3.021 3.022a.833.833 0 1 1-1.178 1.178l-2.628-2.628c-1.204.705-2.64 1.206-4.283 1.206-2.385 0-4.329-1.054-5.77-2.256-1.438-1.201-2.424-2.59-2.918-3.372l-.02-.031c-.098-.155-.225-.355-.29-.636a1.8 1.8 0 0 1 0-.744 2 2 0 0 1 .31-.669c.503-.794 1.522-2.23 3.018-3.451L1.91 3.089a.833.833 0 0 1 0-1.178m3.605 4.783C4.15 7.772 3.195 9.101 2.722 9.85L2.63 10v.001l.024.04c.017.03.038.062.067.108.444.703 1.323 1.934 2.578 2.982 1.253 1.046 2.832 1.87 4.701 1.87 1.128 0 2.148-.3 3.056-.767l-1.363-1.362a3.333 3.333 0 0 1-4.565-4.565zM8.39 9.568a1.667 1.667 0 0 0 2.042 2.042zM10 5q-.477.001-.926.068A.833.833 0 1 1 8.83 3.42 8 8 0 0 1 10 3.333c2.385 0 4.33 1.054 5.77 2.257 1.438 1.2 2.424 2.589 2.918 3.37l.02.032c.098.155.226.355.29.636a1.8 1.8 0 0 1 0 .745 2 2 0 0 1-.29.636l-.021.032c-.265.42-.668 1.008-1.201 1.644a.833.833 0 1 1-1.278-1.07 14 14 0 0 0 1.162-1.614v-.002l-.024-.04-.067-.108c-.444-.703-1.322-1.934-2.577-2.982C13.448 5.823 11.87 5 10 5" clip-rule="evenodd"/></svg>