<svg xmlns="http://www.w3.org/2000/svg" fill="none" viewBox="0 0 20 20" stroke="inherit"><path fill="#F5F3F1" fill-rule="evenodd" d="M5.299 6.869C4.043 7.917 3.165 9.148 2.72 9.851l-.09.148v.002q.006.013.023.04l.067.108c.444.703 1.322 1.934 2.578 2.982C6.552 14.177 8.13 15 10 15s3.448-.823 4.702-1.87 2.133-2.278 2.577-2.98l.067-.108.024-.041v-.002l-.024-.04-.067-.108c-.444-.703-1.322-1.934-2.577-2.982-1.254-1.046-2.832-1.87-4.702-1.87s-3.448.825-4.7 1.871M4.23 5.589C5.67 4.387 7.615 3.333 10 3.333s4.328 1.054 5.769 2.256c1.438 1.201 2.424 2.59 2.918 3.372l.02.031c.098.155.226.355.29.636.052.226.052.518 0 .744-.064.281-.192.481-.29.636l-.02.031c-.494.782-1.48 2.17-2.918 3.371-1.44 1.203-3.385 2.257-5.77 2.257s-4.329-1.054-5.77-2.257c-1.438-1.2-2.424-2.589-2.918-3.37l-.02-.032c-.098-.155-.225-.355-.29-.636a1.8 1.8 0 0 1 0-.744c.065-.281.192-.481.29-.636l.02-.031c.494-.783 1.48-2.17 2.919-3.372M10 8.333a1.667 1.667 0 1 0 0 3.334 1.667 1.667 0 0 0 0-3.334M6.666 10a3.333 3.333 0 1 1 6.667 0 3.333 3.333 0 0 1-6.667 0" clip-rule="evenodd"/></svg>