<svg xmlns="http://www.w3.org/2000/svg" fill="none" viewBox="0 0 24 24" stroke="inherit"><path fill="#202020" d="M6 20.25a.75.75 0 0 0 0 1.5zm12 1.5a.75.75 0 0 0 0-1.5zM6 2.25a.75.75 0 0 0 0 1.5zm12 1.5a.75.75 0 0 0 0-1.5zM10 13l.237.711A.75.75 0 0 0 10.75 13zm4 0h-.75c0 .323.207.61.513.711zm0-2-.237-.711a.75.75 0 0 0-.513.711zm-4 0h.75a.75.75 0 0 0-.513-.711zm0 2-.238-.711H9.76l-.004.002-.012.004-.036.013q-.046.016-.118.046a6.2 6.2 0 0 0-1.57.945c-.866.721-1.77 1.915-1.77 3.701h1.5c0-1.214.596-2.02 1.23-2.549a4.7 4.7 0 0 1 1.245-.735l.014-.005h.001-.002zm-3.75 4v4h1.5v-4zM14 13l-.238.711h-.002.001l.014.005.072.028q.102.04.286.13c.244.122.567.31.887.577.634.529 1.23 1.335 1.23 2.549h1.5c0-1.786-.904-2.98-1.77-3.701a6.2 6.2 0 0 0-1.57-.945l-.118-.046-.036-.013-.012-.004-.004-.002h-.002zm2.25 4v4h1.5v-4zM14 11l.238.711h.002l.004-.002.012-.004.036-.013q.046-.016.118-.046a6.2 6.2 0 0 0 1.57-.945c.866-.721 1.77-1.915 1.77-3.701h-1.5c0 1.214-.596 2.02-1.23 2.549a4.7 4.7 0 0 1-1.245.735l-.014.005h-.001.002zm3.75-4V3h-1.5v4zM10 11l.24-.71-.001-.001-.014-.005-.072-.028a4.7 4.7 0 0 1-1.172-.707C8.345 9.02 7.75 8.214 7.75 7h-1.5c0 1.786.904 2.98 1.77 3.701a6.2 6.2 0 0 0 1.57.945l.118.046.036.013.012.004.004.002h.002zM7.75 7V3h-1.5v4zm5.5 4v2h1.5v-2zm-4 0v2h1.5v-2zM6 21.75h12v-1.5H6zm0-18h12v-1.5H6z"/></svg>