<svg xmlns="http://www.w3.org/2000/svg" fill="none" viewBox="0 0 12 12" stroke="inherit"><g clip-path="url(#a)"><path fill="#FEFDFB" fill-rule="evenodd" d="M6 1.757A3 3 0 0 1 10.243 6l-.707.707A.5.5 0 1 1 8.829 6l.707-.707a2 2 0 0 0-2.829-2.829L6 3.171a.5.5 0 0 1-.707-.707zm2.104 2.14a.5.5 0 0 1 0 .706l-3.5 3.5a.5.5 0 0 1-.707-.707l3.5-3.5a.5.5 0 0 1 .707 0M3.172 5.292a.5.5 0 0 1 0 .707l-.707.707a2 2 0 1 0 2.828 2.828L6 8.828a.5.5 0 1 1 .707.707L6 10.242A3 3 0 1 1 1.758 6l.707-.707a.5.5 0 0 1 .707 0" clip-rule="evenodd"/></g><defs><clipPath id="a"><path fill="#fff" d="M0 0h12v12H0z"/></clipPath></defs></svg>