<svg xmlns="http://www.w3.org/2000/svg" fill="none" viewBox="0 0 24 24"><path fill="#202020" d="M10 16.25a.75.75 0 0 0 0 1.5zm1-1.75-.335.67zm10.345 2.795-.308-.684zm-.613-2.114-.107-.742zm-9.593-.611.336-.671zm3.529 5.73.308.683zm-5.48.396-.207.721zm3.73-14.987a.75.75 0 1 0 .831 1.248zM14 5.89h.75a.75.75 0 0 0-1.166-.624zm-.75 2.222a.75.75 0 0 0 1.5 0zM3 14.25h1v-1.5H3zm1 6H3v1.5h1zM2.75 20v-5.5h-1.5V20zm1.5-5.5v.5h1.5v-.5zm1.085 1.17.659-.328L5.323 14l-.658.33zm8.665.58h-4v1.5h4zm7.037.36-6.677 3.006.616 1.367 6.676-3.004zM4.25 15v4.5h1.5V15zm0 4.5v.5h1.5v-.5zm5.143.475L5.206 18.78l-.412 1.442 4.187 1.197zm3.57-4.225H14v-1.5h-1.038zm-4.463-1h.382v-1.5H8.5zm2.165.42.139.07.67-1.341-.139-.07zm4.441 1.572 5.731-.818-.212-1.485-5.731.819zM8.882 14.75c.619 0 1.23.144 1.783.42l.67-1.34a5.5 5.5 0 0 0-2.453-.58zm12.368 1.531a.36.36 0 0 1-.213.33l.616 1.368a1.86 1.86 0 0 0 1.097-1.698zm1.5 0a1.86 1.86 0 0 0-2.125-1.842l.212 1.485a.36.36 0 0 1 .413.357zM14 17.75A1.75 1.75 0 0 0 15.75 16h-1.5a.25.25 0 0 1-.25.25zM15.75 16A1.75 1.75 0 0 0 14 14.25v1.5a.25.25 0 0 1 .25.25zM3 20.25a.25.25 0 0 1-.25-.25h-1.5c0 .966.784 1.75 1.75 1.75zm9.962-6c-.516 0-1.025-.12-1.487-.351l-.671 1.342c.67.335 1.409.509 2.158.509zM4 21.75A1.75 1.75 0 0 0 5.75 20h-1.5a.25.25 0 0 1-.25.25zm0-7.5a.25.25 0 0 1 .25.25h1.5A1.75 1.75 0 0 0 4 12.75zm1.994 1.092A5.6 5.6 0 0 1 8.5 14.75v-1.5c-1.103 0-2.19.257-3.177.75zm8.366 4.274a7.25 7.25 0 0 1-4.967.36l-.412 1.442a8.75 8.75 0 0 0 5.995-.435zM3 12.75a1.75 1.75 0 0 0-1.75 1.75h1.5a.25.25 0 0 1 .25-.25zm10.75-5.793.666-.444-.832-1.248-.667.444zm-.5-1.068V8.11h1.5V5.89zm4 1.111A3.25 3.25 0 0 1 14 10.25v1.5A4.75 4.75 0 0 0 18.75 7zM14 10.25A3.25 3.25 0 0 1 10.75 7h-1.5A4.75 4.75 0 0 0 14 11.75zM10.75 7A3.25 3.25 0 0 1 14 3.75v-1.5A4.75 4.75 0 0 0 9.25 7zM14 3.75A3.25 3.25 0 0 1 17.25 7h1.5A4.75 4.75 0 0 0 14 2.25z"/></svg>