<svg xmlns="http://www.w3.org/2000/svg" fill="none" viewBox="0 0 12 12"><g clip-path="url(#a)"><path fill="#A6A19E" fill-rule="evenodd" d="M6 .5a.5.5 0 0 1 .5.5v.5h2.92c.263 0 .49 0 .678.015.197.016.394.052.583.148a1.5 1.5 0 0 1 .656.656c.096.19.132.386.148.583.015.188.015.415.015.679v3.338c0 .264 0 .491-.015.679a1.5 1.5 0 0 1-.149.583 1.5 1.5 0 0 1-.655.656c-.19.096-.386.132-.583.148C9.91 9 9.683 9 9.419 9h-.712l1.647 1.646a.5.5 0 0 1-.708.708L7.293 9H6.5v2a.5.5 0 0 1-1 0V9h-.793l-2.353 2.354a.5.5 0 0 1-.708-.708L3.293 9H2.58c-.264 0-.491 0-.679-.015a1.5 1.5 0 0 1-.583-.148 1.5 1.5 0 0 1-.656-.656 1.5 1.5 0 0 1-.148-.583A9 9 0 0 1 .5 6.919V3.581c0-.264 0-.491.015-.679.016-.197.052-.394.148-.583a1.5 1.5 0 0 1 .656-.656c.19-.096.386-.132.583-.148.188-.015.415-.015.679-.015H5.5V1A.5.5 0 0 1 6 .5m-3.4 2c-.288 0-.474 0-.616.012a.6.6 0 0 0-.211.042.5.5 0 0 0-.218.219.6.6 0 0 0-.043.21A9 9 0 0 0 1.5 3.6v3.3c0 .288 0 .474.012.616a.6.6 0 0 0 .042.211.5.5 0 0 0 .219.218.6.6 0 0 0 .21.043C2.127 8 2.313 8 2.6 8h6.8c.288 0 .474 0 .616-.012a.6.6 0 0 0 .211-.043.5.5 0 0 0 .218-.218.6.6 0 0 0 .043-.21c.012-.143.012-.329.012-.617V3.6c0-.288 0-.474-.012-.616a.6.6 0 0 0-.043-.211.5.5 0 0 0-.218-.219.6.6 0 0 0-.21-.042A9 9 0 0 0 9.4 2.5z" clip-rule="evenodd"/></g><defs><clipPath id="a"><path fill="#fff" d="M0 0h12v12H0z"/></clipPath></defs></svg>