<svg xmlns="http://www.w3.org/2000/svg" fill="none" viewBox="0 0 24 24"><path fill="#202020" d="M10 21.25a.75.75 0 0 0 0 1.5zm4 1.5a.75.75 0 0 0 0-1.5zm-4.5-3.5a.75.75 0 0 0 0 1.5zm5 1.5a.75.75 0 0 0 0-1.5zM8.031 14l.73-.177a.75.75 0 0 0-.233-.385zm7.938 0-.497-.562a.75.75 0 0 0-.232.385zm-4.719 4a.75.75 0 0 0 1.5 0zm.28-4.53a.75.75 0 1 0-1.06 1.06zm2 1.06a.75.75 0 1 0-1.06-1.06zM10 22.75h4v-1.5h-4zm-.5-2h5v-1.5h-5zM6.75 9.5c0-2.9 2.35-5.25 5.25-5.25v-1.5A6.75 6.75 0 0 0 5.25 9.5zM12 4.25c2.9 0 5.25 2.35 5.25 5.25h1.5A6.75 6.75 0 0 0 12 2.75zm-3.472 9.188A5.24 5.24 0 0 1 6.75 9.5h-1.5c0 2.016.885 3.827 2.285 5.062zM17.25 9.5a5.24 5.24 0 0 1-1.778 3.938l.993 1.124A6.74 6.74 0 0 0 18.75 9.5zm-9.948 4.677.599 2.47 1.458-.353-.599-2.47zm3.271 4.573h2.854v-1.5h-2.854zm5.526-2.103.599-2.47-1.458-.354-.599 2.471zM12.75 18v-3h-1.5v3zm-2.28-3.47 1 1 1.06-1.06-1-1zm2.06 1 1-1-1.06-1.06-1 1zm.897 3.22a2.75 2.75 0 0 0 2.672-2.103l-1.458-.353a1.25 1.25 0 0 1-1.214.956zM7.9 16.647a2.75 2.75 0 0 0 2.672 2.103v-1.5a1.25 1.25 0 0 1-1.214-.956z"/></svg>