<svg xmlns="http://www.w3.org/2000/svg" fill="none" viewBox="0 0 16 16"><path fill="#514C49" fill-rule="evenodd" d="M4 5.333a4 4 0 1 1 8 0V6.1q.282.06.544.19c.502.256.91.664 1.165 1.166.165.323.23.668.261 1.043.03.36.03.803.03 1.34v.989c0 .536 0 .979-.03 1.34-.03.375-.096.719-.26 1.043-.256.501-.664.91-1.166 1.165-.324.165-.668.23-1.043.261-.36.03-.803.03-1.34.03H5.839c-.537 0-.98 0-1.34-.03-.375-.03-.72-.096-1.043-.261a2.67 2.67 0 0 1-1.165-1.165c-.165-.324-.23-.668-.262-1.043C2 11.807 2 11.364 2 10.828v-.989c0-.537 0-.98.03-1.34.03-.375.096-.72.26-1.043.256-.502.664-.91 1.166-1.165.175-.09.356-.15.544-.19zm1.333.668L5.84 6h4.322l.506.001v-.668a2.667 2.667 0 0 0-5.334 0zm-.726 1.357c-.292.024-.441.067-.546.12-.25.128-.455.332-.582.583-.053.105-.097.254-.12.546-.025.3-.026.689-.026 1.26v.933c0 .571 0 .96.025 1.26.024.291.068.441.12.545.128.251.332.455.583.583.105.053.254.096.546.12.3.025.689.025 1.26.025h4.266c.571 0 .96 0 1.26-.025.292-.024.441-.067.546-.12.25-.128.454-.332.582-.583.053-.104.097-.254.12-.546.025-.3.026-.688.026-1.26v-.932c0-.571 0-.96-.025-1.26-.024-.292-.067-.441-.12-.546a1.33 1.33 0 0 0-.583-.582c-.105-.054-.254-.097-.546-.12-.3-.025-.689-.026-1.26-.026H5.867c-.571 0-.96 0-1.26.025M8 9c.368 0 .667.298.667.667V11a.667.667 0 1 1-1.334 0V9.667C7.333 9.298 7.632 9 8 9" clip-rule="evenodd"/></svg>