<svg xmlns="http://www.w3.org/2000/svg" fill="none" viewBox="0 0 100 38" stroke="inherit"><mask id="a" fill="#fff"><path d="m11.857 11.405 6.996 10.046a1.402 1.402 0 0 0 2.3 0l6.995-10.046A2.803 2.803 0 0 0 25.848 7h-11.69a2.803 2.803 0 0 0-2.3 4.405"/></mask><path fill="#514C49" stroke-linecap="round" stroke-linejoin="round" stroke-miterlimit="10" d="m11.857 11.405 6.996 10.046a1.402 1.402 0 0 0 2.3 0l6.995-10.046A2.803 2.803 0 0 0 25.848 7h-11.69a2.803 2.803 0 0 0-2.3 4.405" mask="url(#a)"/><path fill="#FDC433" d="M22.864 29.545c.497.283 1.07.408 1.64.356L37.3 28.747a1.87 1.87 0 0 0 1.672-2.191 18.7 18.7 0 0 0-6.418-11.048 1.87 1.87 0 0 0-2.731.367L22.48 26.418a2.8 2.8 0 0 0-.503 1.602v-.035c0 .32.082.636.24.915.165.275.398.503.676.662m-5.043-.802a1.87 1.87 0 0 1-.753.802l.04-.023a2.8 2.8 0 0 1-1.64.357L2.7 28.74a1.87 1.87 0 0 1-1.671-2.19 18.7 18.7 0 0 1 6.417-11.048q.063-.052.13-.1a1.87 1.87 0 0 1 2.601.466l7.342 10.543c.327.47.502 1.03.502 1.602v-.046c0 .375-.112.741-.323 1.051"/><path fill="#332E2B" d="m46 13.024 4.384 7.72v4.202h2.097v-4.219l4.383-7.703h-2.191l-2.907 5.3-.35.7-.35-.7-2.874-5.3zm15.483 2.768c-2.557 0-4.447 1.894-4.447 4.696 0 2.803 1.89 4.697 4.447 4.697 2.526 0 4.448-1.894 4.448-4.697s-1.922-4.696-4.448-4.696m0 7.674c-1.334 0-2.414-1.21-2.414-2.978 0-1.767 1.08-2.977 2.414-2.977s2.415 1.21 2.415 2.977c0 1.768-1.08 2.978-2.415 2.978m12.15-7.658c-1.033 0-2.065.27-2.812.97v-.747h-2.033v8.915h2.033v-3.678c0-.875.064-1.432.143-1.767.27-1.162 1.334-1.958 2.668-1.894zm8.547 9.138h2.446l-4.003-4.728 3.606-4.187h-2.446l-3.177 3.82v-6.773h-2.033v11.868h2.033v-4.298zm6.52-8.916h-2.034v8.916H88.7zm-2.129-.987h2.224v-2.228H86.57zm11.825 6.783c-.508.955-1.462 1.64-2.542 1.64-1.223 0-2.128-1.003-2.303-2.213H100v-.972c0-2.61-1.795-4.49-4.289-4.49-2.382 0-4.288 1.895-4.288 4.697s1.795 4.697 4.431 4.697c1.652 0 3.13-.875 4.019-2.229zm-4.86-2.261c.253-1.274 1.095-2.054 2.175-2.054 1.16 0 1.954.86 2.192 2.054z"/></svg>