<svg xmlns="http://www.w3.org/2000/svg" fill="none" viewBox="0 0 500 88"><path fill="#514C49" d="m171.435 7.62 26.674 46.965V80.16h12.757V54.49L237.54 7.62h-13.337l-17.686 32.242-2.126 4.262-2.126-4.262L184.772 7.62zm94.208 16.838c-15.56 0-27.061 11.528-27.061 28.577 0 17.05 11.501 28.578 27.061 28.578 15.367 0 27.061-11.528 27.061-28.578s-11.694-28.577-27.061-28.577m0 46.692c-8.118 0-14.69-7.362-14.69-18.115s6.572-18.115 14.69-18.115 14.69 7.362 14.69 18.115-6.572 18.115-14.69 18.115m73.923-46.595c-6.282 0-12.564 1.647-17.107 5.909v-4.553h-12.37v54.248h12.37V57.783c0-5.328.387-8.718.87-10.753 1.643-7.071 8.118-11.915 16.237-11.528zm52.006 55.605h14.884l-24.355-28.772 21.939-25.477h-14.884l-19.329 23.25V7.945h-12.371V80.16h12.371V54.004zm39.67-54.249h-12.371v54.248h12.371zm-12.951-6.006h13.531V6.343h-13.531zm71.948 41.268c-3.093 5.812-8.891 9.977-15.463 9.977-7.442 0-12.951-6.103-14.014-13.465H500v-5.91c0-15.886-10.921-27.317-26.094-27.317-14.497 0-26.094 11.528-26.094 28.577 0 17.05 10.92 28.578 26.964 28.578 10.051 0 19.039-5.328 24.451-13.562zm-29.574-13.756c1.547-7.75 6.669-12.497 13.241-12.497 7.055 0 11.887 5.231 13.337 12.497zM41.478 16.828l26.723 38.378a5.355 5.355 0 0 0 8.789 0l26.723-38.378c3.38-4.854 2.184-11.529-2.669-14.908A10.7 10.7 0 0 0 94.925 0H50.266c-5.914 0-10.709 4.795-10.709 10.71 0 2.187.671 4.322 1.921 6.118"/><path fill="#FDC433" d="M83.525 86.126a10.7 10.7 0 0 0 6.267 1.364l48.88-4.41a7.14 7.14 0 0 0 6.386-8.37 71.4 71.4 0 0 0-24.516-42.205 7.14 7.14 0 0 0-10.435 1.4L82.062 74.183a10.7 10.7 0 0 0-1.92 6.12v-.134c0 1.225.314 2.43.915 3.497a7.14 7.14 0 0 0 2.584 2.527m-19.273-3.061a7.14 7.14 0 0 1-2.874 3.06l.152-.086a10.7 10.7 0 0 1-6.267 1.363l-48.88-4.41a7.14 7.14 0 0 1-6.386-8.37A71.4 71.4 0 0 1 24.63 32.484q.24-.2.496-.379a7.14 7.14 0 0 1 9.939 1.78L63.11 74.162a10.7 10.7 0 0 1 1.92 6.119v-.175c0 1.431-.43 2.83-1.234 4.014"/></svg>