<svg xmlns="http://www.w3.org/2000/svg" fill="none" viewBox="0 0 134 36" stroke="inherit"><path fill="#514C49" d="m48.207 9.475 6.29 11.076v6.031h3.009v-6.054l6.29-11.053h-3.145L56.48 17.08l-.502 1.005-.5-1.005-4.126-7.604zm22.217 3.971c-3.67 0-6.382 2.719-6.382 6.74 0 4.02 2.712 6.739 6.382 6.739 3.623 0 6.381-2.719 6.381-6.74 0-4.02-2.758-6.739-6.382-6.739m0 11.012c-1.915 0-3.465-1.736-3.465-4.272s1.55-4.272 3.465-4.272 3.464 1.736 3.464 4.272c0 2.535-1.55 4.272-3.465 4.272M87.856 13.47c-1.481 0-2.962.388-4.034 1.393v-1.074h-2.917v12.793h2.917v-5.277c0-1.256.091-2.056.205-2.536.388-1.667 1.915-2.81 3.83-2.718zm12.265 13.112h3.51l-5.743-6.785 5.173-6.008h-3.51l-4.558 5.483v-9.72h-2.917v17.03h2.917v-6.168zm9.355-12.793h-2.917v12.793h2.917zm-3.054-1.416h3.191V9.174h-3.191zm16.967 9.732c-.729 1.37-2.096 2.353-3.646 2.353-1.755 0-3.054-1.44-3.305-3.176h9.253V19.89c0-3.747-2.575-6.443-6.153-6.443-3.419 0-6.154 2.719-6.154 6.74 0 4.02 2.575 6.739 6.359 6.739 2.37 0 4.49-1.256 5.766-3.198zm-6.974-3.244c.365-1.828 1.573-2.947 3.123-2.947 1.663 0 2.803 1.233 3.145 2.947zm-98.902-7.214 6.302 9.05a1.263 1.263 0 0 0 2.072 0l6.302-9.05a2.525 2.525 0 0 0-2.072-3.968H19.585a2.525 2.525 0 0 0-2.072 3.968"/><path fill="#FDC433" d="M27.428 27.99c.448.255.964.368 1.478.321l11.527-1.04a1.684 1.684 0 0 0 1.506-1.974 16.83 16.83 0 0 0-5.782-9.953 1.684 1.684 0 0 0-2.46.33l-6.614 9.499a2.53 2.53 0 0 0-.453 1.443v-.031c0 .288.074.572.216.824.148.248.358.453.61.596m-4.545-.722a1.7 1.7 0 0 1-.678.722l.036-.02a2.53 2.53 0 0 1-1.478.321l-11.527-1.04a1.684 1.684 0 0 1-1.506-1.974 16.84 16.84 0 0 1 5.782-9.953q.056-.046.117-.09a1.684 1.684 0 0 1 2.343.42l6.614 9.499c.295.423.453.927.453 1.443v-.041c0 .337-.101.667-.291.946"/></svg>