<svg xmlns="http://www.w3.org/2000/svg" fill="none" viewBox="0 0 24 24"><path fill="#202020" d="M12 21v-.75zm6-6h-.75v.177l.08.158zM6 15l.67.335.08-.158V15zm13.276 2.553.671-.336zm-14.552 0-.671-.336zM12.75 4a.75.75 0 0 0-1.5 0zm.5 15c0 .69-.56 1.25-1.25 1.25v1.5A2.75 2.75 0 0 0 14.75 19zM12 20.25c-.69 0-1.25-.56-1.25-1.25h-1.5A2.75 2.75 0 0 0 12 21.75zm-6.382-.5h12.764v-1.5H5.618zM6.75 11c0-2.9 2.35-5.25 5.25-5.25v-1.5A6.75 6.75 0 0 0 5.25 11zM12 5.75c2.9 0 5.25 2.35 5.25 5.25h1.5A6.75 6.75 0 0 0 12 4.25zM17.25 11v4h1.5v-4zm-12 0v4h1.5v-4zm14.697 6.217-1.276-2.552-1.342.67 1.277 2.553zm-14.553.671 1.277-2.553-1.342-.67-1.276 2.552zm12.988 1.862a1.75 1.75 0 0 0 1.565-2.533l-1.341.671a.25.25 0 0 1-.224.362zm-12.764-1.5a.25.25 0 0 1-.224-.362l-1.341-.67a1.75 1.75 0 0 0 1.565 2.532zM12.75 5V4h-1.5v1z"/></svg>