<svg xmlns="http://www.w3.org/2000/svg" fill="none" viewBox="0 0 24 24"><path fill="#202020" d="M6 3.5v-.75a.75.75 0 0 0-.75.75zm0 3.75.543.517a.75.75 0 0 0 .207-.517zM4.213 10.5v.75a.75.75 0 0 0 .728-.57zm.143 4 .713-.233a.75.75 0 0 0-.713-.517zm2.11 3.198.74.124a.75.75 0 0 0-.244-.687zM6 20.5l-.74-.123a.75.75 0 0 0 .74.873zm2.5 0v.75a.75.75 0 0 0 .576-.27zm1.009-1.21.18-.729a.75.75 0 0 0-.756.248zm3.991.21v.75a.75.75 0 0 0 .75-.75zm0-.004-.025-.75a.75.75 0 0 0-.725.75zm1.491-.206.576-.48a.75.75 0 0 0-.755-.249zM16 20.5l-.576.48a.75.75 0 0 0 .576.27zm2.5 0v.75a.75.75 0 0 0 .74-.873zm-.467-2.802-.495-.563a.75.75 0 0 0-.245.687zM9.315 7.75a.75.75 0 0 0 0 1.5zM15 9.25a.75.75 0 0 0 0-1.5zm8.25 1a.75.75 0 0 0-1.5 0zM8.322 4.242l.736.142zM5.25 3.5v3.75h1.5V3.5zm.207 3.233a8 8 0 0 0-1.972 3.587l1.456.36a6.5 6.5 0 0 1 1.602-2.913zM4.213 9.75H3.5v1.5h.713zm-.713 0a1.75 1.75 0 0 0-1.75 1.75h1.5a.25.25 0 0 1 .25-.25zM1.75 11.5v2h1.5v-2zm0 2c0 .966.784 1.75 1.75 1.75v-1.5a.25.25 0 0 1-.25-.25zm1.75 1.75h.856v-1.5H3.5zm.143-.517a8 8 0 0 0 2.329 3.529l.99-1.127a6.5 6.5 0 0 1-1.893-2.868zm2.084 2.842-.467 2.802 1.48.246.467-2.801zM6 21.25h2.5v-1.5H6zm3.076-.27 1.009-1.21-1.152-.96-1.01 1.21zm.253-.962c.616.152 1.26.232 1.921.232v-1.5c-.54 0-1.062-.066-1.562-.189zm4.921-.518v-.004h-1.5v.004zm-.725.745a8 8 0 0 0 1.646-.227l-.36-1.457q-.645.16-1.336.185zm.89-.475 1.009 1.21 1.152-.96-1.009-1.21zM16 21.25h2.5v-1.5H16zm3.24-.873-.467-2.802-1.48.247.467 2.801zm-.712-2.115a7.98 7.98 0 0 0 2.722-6.012h-1.5a6.48 6.48 0 0 1-2.212 4.885zM20.5 13a2.75 2.75 0 0 0 2.75-2.75h-1.5c0 .69-.56 1.25-1.25 1.25zm-9.25 7.25h2.25v-1.5h-2.25zm1-18.5A3.25 3.25 0 0 1 15.5 5H17A4.75 4.75 0 0 0 12.25.25zM9 5q0-.317.058-.616L7.585 4.1A5 5 0 0 0 7.5 5zm.058-.616A3.25 3.25 0 0 1 12.25 1.75V.25a4.75 4.75 0 0 0-4.665 3.851zm-.3-.752A4.73 4.73 0 0 0 6 2.75v1.5a3.23 3.23 0 0 1 1.886.603zM15.5 5q0 .261-.04.51l1.482.232Q17 5.378 17 5zm5.75 7.25c0-3.26-1.95-6.062-4.743-7.309l-.611 1.37a6.5 6.5 0 0 1 3.854 5.939zM10.676 7.844A3.25 3.25 0 0 1 9 5H7.5c0 1.79.99 3.347 2.448 4.156zM9.316 9.25h.996v-1.5h-.997zm.996 0h3.876v-1.5h-3.876zm3.876-.75v.75H15v-1.5h-.812zm1.272-2.99a3.25 3.25 0 0 1-1.636 2.334l.728 1.312a4.75 4.75 0 0 0 2.39-3.414z"/></svg>