<svg xmlns="http://www.w3.org/2000/svg" fill="none" viewBox="0 0 24 24" stroke="inherit"><path stroke-linecap="round" stroke-linejoin="round" stroke-miterlimit="1.414" stroke-width="1.5" d="M20.5 12.25c0 2.171-.955 4.12-2.467 5.448L18.5 20.5H16l-1.009-1.21a7.3 7.3 0 0 1-1.491.206v.004h-2.25c-.6 0-1.184-.073-1.741-.21L8.5 20.5H6l.467-2.802A7.26 7.26 0 0 1 4.356 14.5H3.5a1 1 0 0 1-1-1v-2a1 1 0 0 1 1-1h.713A7.24 7.24 0 0 1 6 7.25V3.5c1.38 0 2.596.698 3.315 1.761A7.3 7.3 0 0 1 11.25 5h2.25v.004a7.25 7.25 0 0 1 7 7.246m0 0a2 2 0 0 0 2-2M9.315 8.5H15"/></svg>