<svg xmlns="http://www.w3.org/2000/svg" fill="none" viewBox="0 0 16 16" stroke="inherit"><path fill="#807B78" fill-rule="evenodd" d="M8.85 1.036c.293-.193.651-.262.995-.192.26.052.459.193.607.316.142.118.3.276.47.447l3.467 3.466c.17.17.329.329.446.47.124.148.264.347.317.607.07.344 0 .702-.192.996-.146.222-.35.354-.52.446a7 7 0 0 1-.589.27l-1.687.724-.07.03-.001.001-.054.054-1.04 1.04-.084.085-.001.001V9.8l-.025.117-.494 2.47a10 10 0 0 1-.173.764c-.062.207-.163.475-.39.677a1.33 1.33 0 0 1-1.069.324c-.302-.042-.534-.209-.7-.347s-.356-.328-.568-.54l-1.91-1.91-3.3 3.3a.667.667 0 1 1-.943-.943l3.3-3.3L2.73 8.5c-.212-.211-.402-.401-.54-.567s-.304-.399-.346-.7a1.33 1.33 0 0 1 .323-1.069c.202-.228.47-.329.677-.39.207-.062.47-.115.764-.173l2.47-.495c.064-.012.095-.018.117-.024h.002L6.2 5.08l.085-.084 1.04-1.04.055-.055V3.9l.03-.07.724-1.687c.095-.222.183-.428.27-.59.092-.17.224-.373.446-.518M8.417 12.3a9 9 0 0 0 .518.495l.008-.025a9 9 0 0 0 .149-.674l.488-2.443.005-.024c.018-.092.041-.208.085-.32q.058-.147.148-.276c.069-.099.152-.182.219-.248l.017-.018 1.041-1.04.011-.012c.043-.042.096-.096.157-.144a1.3 1.3 0 0 1 .36-.206l.015-.006 1.663-.713a7 7 0 0 0 .52-.237l-.01-.013a7 7 0 0 0-.385-.4L9.998 2.568a7 7 0 0 0-.413-.395l-.009.015c-.055.102-.12.251-.228.506l-.713 1.662-.006.015c-.024.055-.053.125-.092.192a1.3 1.3 0 0 1-.114.168 2 2 0 0 1-.144.157l-.011.011-1.041 1.04-.018.019c-.066.066-.149.15-.248.218q-.129.09-.276.148a2 2 0 0 1-.32.085l-.024.005-2.443.488a9 9 0 0 0-.699.157l.017.02c.094.114.24.26.478.499z" clip-rule="evenodd"/></svg>