<svg xmlns="http://www.w3.org/2000/svg" fill="none" viewBox="0 0 44 44" stroke="inherit"><path fill="#F44954" fill-rule="evenodd" d="M14.944 0h14.113c.38-.001.858-.002 1.329.11.408.099.798.26 1.156.48.413.252.75.591 1.018.86l.072.073 9.845 9.846.073.072c.269.268.608.605.86 1.017.22.358.382.749.48 1.157.113.47.112.949.11 1.328v14.114c.002.38.003.858-.11 1.328a4 4 0 0 1-.48 1.157c-.252.412-.591.75-.86 1.017l-.073.073-9.845 9.845-.072.072c-.268.27-.605.609-1.018.862-.358.219-.748.38-1.156.478-.47.113-.95.112-1.329.111H14.944c-.38.001-.858.002-1.329-.11a4 4 0 0 1-1.156-.48c-.413-.252-.75-.591-1.018-.86l-.072-.073-9.846-9.845-.072-.073c-.27-.267-.608-.605-.861-1.017a4 4 0 0 1-.48-1.157c-.112-.47-.11-.949-.11-1.328V14.943c0-.38-.002-.858.11-1.328a4 4 0 0 1 .48-1.157c.253-.412.592-.75.861-1.017l.072-.073 9.846-9.845.072-.072c.268-.27.605-.609 1.018-.862a4 4 0 0 1 1.156-.478c.47-.113.949-.112 1.329-.111m-.393 4.005-.005.005c-.07.064-.163.156-.349.341l-9.845 9.846a12 12 0 0 0-.342.348l-.004.006v.007C4 14.653 4 14.784 4 15.046v13.909c0 .262 0 .392.005.487v.007l.005.006c.064.07.157.163.342.348l9.845 9.845a12 12 0 0 0 .354.347h.007c.095.005.226.005.488.005h13.909a13 13 0 0 0 .495-.005l.005-.005c.07-.064.163-.156.348-.342l9.846-9.845a12 12 0 0 0 .346-.354v-.007c.005-.095.005-.226.005-.488V15.047c0-.262 0-.393-.004-.488v-.007l-.006-.006c-.064-.07-.156-.163-.341-.348l-9.846-9.846a12 12 0 0 0-.348-.341l-.005-.005h-.007A12 12 0 0 0 28.955 4h-13.91a12 12 0 0 0-.494.005M22 12a2 2 0 0 1 2 2v8a2 2 0 1 1-4 0v-8a2 2 0 0 1 2-2m-2 18a2 2 0 0 1 2-2h.02a2 2 0 1 1 0 4H22a2 2 0 0 1-2-2" clip-rule="evenodd"/></svg>