<svg xmlns="http://www.w3.org/2000/svg" fill="none" viewBox="0 0 24 24" stroke="inherit"><path fill="#202020" d="m5.033 16.527.53.53zm-1.016 1.017-.53-.53a.75.75 0 0 0-.19.318zM3 21l-.72-.212a.75.75 0 0 0 .932.931zm3.457-1.017.211.72a.75.75 0 0 0 .319-.19zm1.016-1.016.53.53zM13 6.959l.533.528-.804-1.227zm4 4.082.7.269-1.228-.802zm2.817-2.792.528.533.156-.155.048-.213zm-4.066-4.067-.165-.731-.213.048-.155.155zm-2.34 12.249-.536.524zm7.415-12.66-.732-.164zm-9.678 12.423-.342-.667zM7.903 8.938 7.63 8.24zm-.338 1.647.525-.536zm-3.062 5.411-1.017 1.017 1.06 1.06 1.018-1.016zm-1.206 1.336L2.28 20.788l1.44.424 1.016-3.457zm-.085 4.387 3.456-1.016-.423-1.44-3.457 1.017zm3.775-1.205 1.016-1.017-1.06-1.06-1.017 1.016zm1.016-1.017c.289-.288.627-.79.729-1.416.11-.672-.068-1.424-.729-2.085l-1.06 1.061c.315.315.341.58.308.783a1.2 1.2 0 0 1-.308.596zm0-3.5c-.66-.661-1.412-.838-2.084-.729a2.7 2.7 0 0 0-1.416.728l1.06 1.061a1.2 1.2 0 0 1 .597-.308c.202-.033.468-.007.783.308zm2.512-.516-1.996-1.996-1.06 1.06 1.995 1.997zm8.775-7.765-7.318 7.251 1.056 1.066 7.317-7.251zm-6.262 8.317 4.5-4.46-1.056-1.065-4.5 4.46zm-3.995-4.005 4.5-4.541-1.066-1.056-4.5 4.541zm3.696-5.768L7.63 8.24l.543 1.397 5.098-1.98zm3.571 4.512-1.941 5.049 1.4.538L17.7 11.31zm-7.827 2.422.694-1.351-1.334-.686-.694 1.352zm3.018 3.667 1.352-.694-.686-1.334-1.351.694zm1.54-1.891-4-4-1.061 1.06 4 4zm.916.936-.911-.93-1.072 1.049.91.93zM7.04 11.121l.934.915 1.05-1.072-.935-.915zm8.875-6.207 4.477-1.009-.33-1.463-4.477 1.009zm4.179-1.307-1.01 4.477 1.464.33 1.009-4.478zM15.22 4.713l4.066 4.066 1.06-1.06-4.066-4.067zm-6.188 7.315 7.25-7.318-1.065-1.056-7.25 7.318zm5.326 3.793a.25.25 0 0 1-.412.085l-1.072 1.05a1.75 1.75 0 0 0 2.884-.597zm6.034-11.916a.25.25 0 0 1-.299-.298l1.464.33a1.25 1.25 0 0 0-1.494-1.495zM9.454 16.542a1.75 1.75 0 0 0 2.037.32l-.685-1.335a.25.25 0 0 1-.291-.046zM7.631 8.239a1.75 1.75 0 0 0-.59 2.882L8.09 10.05a.25.25 0 0 1 .084-.412zm.888 5.246a.25.25 0 0 1-.046-.29l-1.334-.686a1.75 1.75 0 0 0 .32 2.037z"/></svg>