<svg xmlns="http://www.w3.org/2000/svg" fill="none" viewBox="0 0 12 12" stroke="inherit"><path fill="#A6A19E" fill-rule="evenodd" d="M4.208 1.822c.503-1.763 3-1.763 3.503 0 .122.427.56.68.99.572 1.779-.446 3.028 1.717 1.753 3.034a.82.82 0 0 0 0 1.144c1.274 1.317.026 3.48-1.752 3.034a.82.82 0 0 0-.99.572c-.504 1.763-3.001 1.763-3.504 0a.82.82 0 0 0-.991-.572C1.439 10.052.19 7.89 1.465 6.572a.82.82 0 0 0 0-1.144C.19 4.111 1.439 1.948 3.217 2.394a.82.82 0 0 0 .99-.572m2.542.274c-.227-.795-1.354-.795-1.581 0a1.82 1.82 0 0 1-2.195 1.267c-.803-.2-1.366.775-.79 1.37a1.82 1.82 0 0 1 0 2.534c-.576.595-.013 1.57.79 1.37a1.82 1.82 0 0 1 2.195 1.267c.227.796 1.354.796 1.581 0a1.82 1.82 0 0 1 2.195-1.267c.802.2 1.366-.775.79-1.37a1.82 1.82 0 0 1 0-2.534c.576-.595.012-1.57-.79-1.37A1.82 1.82 0 0 1 6.75 2.096" clip-rule="evenodd"/><path fill="#A6A19E" fill-rule="evenodd" d="M5.96 5a1 1 0 1 0 0 2 1 1 0 0 0 0-2m-2 1a1.999 1.999 0 1 1 4 0 1.999 1.999 0 0 1-4 0" clip-rule="evenodd"/></svg>