<svg xmlns="http://www.w3.org/2000/svg" fill="none" viewBox="0 0 24 24"><path fill="#202020" d="M3 17v-.75a.75.75 0 0 0-.75.75zm18 0h.75a.75.75 0 0 0-.75-.75zm0 4v.75a.75.75 0 0 0 .75-.75zM3 21h-.75c0 .414.336.75.75.75zM20.333 4l.712-.237a.75.75 0 0 0-.712-.513zM3.667 4v-.75a.75.75 0 0 0-.712.513zM2 9l-.712-.237A.8.8 0 0 0 1.25 9zm20 0h.75a.8.8 0 0 0-.038-.237zM2.75 16.5a.75.75 0 0 0 1.5 0zm1.5-5.5a.75.75 0 0 0-1.5 0zm15.5 5.5a.75.75 0 0 0 1.5 0zm1.5-5.5a.75.75 0 0 0-1.5 0zM6 9l-.735-.147-.015.073V9zm4 0-.746-.075-.004.038V9zm4 0h.75v-.037l-.004-.038zm4 0h.75v-.074l-.015-.073zM7.735 4.147a.75.75 0 0 0-1.47-.294zm3.511-.072a.75.75 0 0 0-1.492-.15zm3-.15a.75.75 0 0 0-1.492.15zm3.49-.072a.75.75 0 1 0-1.471.294zM3 17.75h18v-1.5H3zM20.25 17v4h1.5v-4zm.75 3.25H3v1.5h18zM3.75 21v-4h-1.5v4zM20.333 3.25H3.667v1.5h16.666zm-17.378.513-1.667 5 1.424.474 1.666-5zm19.757 5-1.667-5-1.423.474 1.666 5zM4.25 16.5V11h-1.5v5.5zm17 0V11h-1.5v5.5zM5.25 9c0 .69-.56 1.25-1.25 1.25v1.5A2.75 2.75 0 0 0 6.75 9zM4 10.25c-.69 0-1.25-.56-1.25-1.25h-1.5A2.75 2.75 0 0 0 4 11.75zM9.25 9c0 .69-.56 1.25-1.25 1.25v1.5A2.75 2.75 0 0 0 10.75 9zM8 10.25c-.69 0-1.25-.56-1.25-1.25h-1.5A2.75 2.75 0 0 0 8 11.75zM13.25 9c0 .69-.56 1.25-1.25 1.25v1.5A2.75 2.75 0 0 0 14.75 9zM12 10.25c-.69 0-1.25-.56-1.25-1.25h-1.5A2.75 2.75 0 0 0 12 11.75zM17.25 9c0 .69-.56 1.25-1.25 1.25v1.5A2.75 2.75 0 0 0 18.75 9zM16 10.25c-.69 0-1.25-.56-1.25-1.25h-1.5A2.75 2.75 0 0 0 16 11.75zM21.25 9c0 .69-.56 1.25-1.25 1.25v1.5A2.75 2.75 0 0 0 22.75 9zM20 10.25c-.69 0-1.25-.56-1.25-1.25h-1.5A2.75 2.75 0 0 0 20 11.75zM6.735 9.147l1-5-1.47-.294-1 5zm4.011-.072.5-5-1.492-.15-.5 5zm4-.15-.5-5-1.492.15.5 5zm3.99-.072-1-5-1.471.294 1 5z"/></svg>