<svg xmlns="http://www.w3.org/2000/svg" fill="none" viewBox="0 0 15 14" stroke="inherit"><path fill="#3C9AF1" d="M12 5.25a.75.75 0 0 0 1.5 0zm.75-3.5h.75a.75.75 0 0 0-.75-.75zM9.25 1a.75.75 0 1 0 0 1.5zM6.97 6.47a.75.75 0 0 0 1.06 1.06zM6.333 2.5a.75.75 0 1 0 0-1.5zM13.5 8.167a.75.75 0 0 0-1.5 0zM3.206 12.059l-.341.668zm-.765-.764.668-.341zm9.354.764-.341-.668zm.764-.764-.668-.341zM2.441 2.704l.668.341zm.765-.764.34.668zM13.5 5.25v-3.5H12v3.5zM12.75 1h-3.5v1.5h3.5zm-.53.22L6.97 6.47l1.06 1.06 5.25-5.25zM9.95 11.5h-4.9V13h4.9zM3 9.45v-4.9H1.5v4.9zM6.333 1H5.05v1.5h1.283zM13.5 9.45V8.167H12V9.45zM5.05 11.5c-.502 0-.834 0-1.088-.021-.246-.02-.352-.055-.416-.088l-.681 1.336c.31.159.636.219.975.247.329.027.732.026 1.21.026zM1.5 9.45c0 .478 0 .881.026 1.21.028.339.088.665.246.975l1.337-.681c-.033-.064-.068-.17-.088-.416A16 16 0 0 1 3 9.45zm2.046 1.941a1 1 0 0 1-.437-.437l-1.337.681a2.5 2.5 0 0 0 1.093 1.092zM9.95 13c.478 0 .881 0 1.21-.026.339-.028.665-.088.975-.247l-.681-1.336c-.064.033-.17.068-.416.088-.254.02-.586.021-1.088.021zM12 9.45c0 .502 0 .834-.021 1.088-.02.246-.055.352-.088.416l1.336.681c.159-.31.219-.636.247-.974.027-.33.026-.733.026-1.211zm.135 3.278a2.5 2.5 0 0 0 1.092-1.093l-1.336-.681a1 1 0 0 1-.437.437zM3 4.55c0-.502 0-.834.021-1.088.02-.246.055-.352.088-.416l-1.337-.681c-.158.31-.218.636-.246.975-.027.329-.026.732-.026 1.21zM5.05 1c-.478 0-.881 0-1.21.026-.339.028-.664.088-.975.246l.681 1.337c.064-.033.17-.068.416-.088.254-.02.586-.021 1.088-.021zM3.109 3.046a1 1 0 0 1 .437-.437l-.681-1.337a2.5 2.5 0 0 0-1.093 1.093z"/></svg>