<svg xmlns="http://www.w3.org/2000/svg" fill="none" viewBox="0 0 14 14" stroke="inherit"><path fill="#23C176" fill-rule="evenodd" d="M4.173.333h5.655c.536 0 .98 0 1.34.03.375.03.72.096 1.043.261.502.256.91.664 1.165 1.165.165.324.23.668.261 1.043.03.361.03.804.03 1.34v5.656c0 .536 0 .98-.03 1.34-.03.375-.096.72-.26 1.043-.257.501-.664.91-1.166 1.165-.324.165-.668.23-1.043.261-.36.03-.804.03-1.34.03H4.173c-.537 0-.98 0-1.34-.03-.375-.03-.72-.096-1.043-.26A2.67 2.67 0 0 1 .624 12.21c-.165-.324-.23-.668-.261-1.043-.03-.36-.03-.804-.03-1.34V4.173c0-.537 0-.98.03-1.34.03-.376.096-.72.261-1.044A2.67 2.67 0 0 1 1.79.624c.323-.165.668-.23 1.042-.261.361-.03.804-.03 1.34-.03M2.94 1.692c-.292.024-.442.067-.546.12a1.34 1.34 0 0 0-.583.583c-.053.104-.096.253-.12.546-.025.3-.025.688-.025 1.259v5.6c0 .571 0 .96.025 1.26.024.292.067.441.12.545.128.251.332.455.583.583.104.053.254.096.546.12.3.025.688.025 1.26.025h5.6c.57 0 .958 0 1.258-.025.293-.024.442-.067.547-.12.25-.128.454-.332.582-.583.053-.104.097-.253.12-.546.025-.3.026-.688.026-1.259V4.2c0-.571-.001-.96-.025-1.26-.024-.292-.068-.441-.12-.545a1.33 1.33 0 0 0-.584-.583c-.104-.053-.253-.096-.546-.12-.3-.025-.688-.025-1.259-.025H4.2c-.57 0-.96 0-1.26.025m7.53 2.837c.26.26.26.682 0 .942l-4 4a.667.667 0 0 1-.942 0l-2-2a.667.667 0 1 1 .943-.942L6 8.057 9.53 4.53c.26-.26.682-.26.943 0" clip-rule="evenodd"/></svg>