<svg xmlns="http://www.w3.org/2000/svg" fill="none" viewBox="0 0 16 16" stroke="inherit"><path fill="#F44954" fill-rule="evenodd" d="M5.172 1.333h5.655c.537 0 .98 0 1.34.03.375.03.72.096 1.043.26.502.257.91.665 1.166 1.166.165.324.23.668.26 1.043.03.36.03.804.03 1.34v5.656c0 .536 0 .979-.03 1.34-.03.375-.095.719-.26 1.043-.256.501-.664.91-1.166 1.165-.323.165-.668.23-1.042.261-.361.03-.804.03-1.34.03H5.171c-.537 0-.98 0-1.34-.03-.375-.03-.72-.096-1.043-.261a2.67 2.67 0 0 1-1.165-1.165c-.165-.324-.23-.668-.262-1.043-.029-.361-.029-.804-.029-1.34V5.172c0-.536 0-.98.03-1.34.03-.375.096-.72.26-1.043.256-.501.664-.91 1.166-1.165.324-.165.668-.23 1.043-.261.36-.03.804-.03 1.34-.03M3.94 2.692c-.292.023-.441.067-.546.12-.25.128-.455.332-.582.583-.053.104-.097.253-.12.546-.025.3-.026.688-.026 1.259v5.6c0 .571 0 .96.025 1.26.024.291.068.441.12.545.128.251.332.455.583.583.105.053.254.096.546.12.3.025.689.025 1.26.025h5.6c.57 0 .959 0 1.259-.025.292-.024.442-.067.546-.12a1.34 1.34 0 0 0 .583-.583c.053-.104.096-.254.12-.546.024-.3.025-.688.025-1.26V5.2c0-.57 0-.958-.025-1.258-.024-.293-.067-.442-.12-.546a1.33 1.33 0 0 0-.583-.583c-.104-.053-.254-.096-.546-.12-.3-.025-.688-.025-1.26-.025H5.2c-.57 0-.959 0-1.259.025M8 4.667c.368 0 .666.298.666.666V8a.667.667 0 0 1-1.333 0V5.333c0-.368.298-.666.667-.666m-.667 6c0-.369.298-.667.667-.667h.006a.667.667 0 0 1 0 1.333H8a.667.667 0 0 1-.667-.666" clip-rule="evenodd"/></svg>