<svg xmlns="http://www.w3.org/2000/svg" fill="none" viewBox="0 0 459 206" stroke="inherit"><rect width="220.342" height="139" x=".5" y=".5" fill="#FEFDFB" rx="7.5"/><rect width="220.342" height="139" x="237.582" y="66.5" fill="#FEFDFB" rx="7.5"/><rect width="98.866" height="100.5" x="63.453" y="20" fill="#3C9AF1" rx="49.433"/><rect width="155.923" height="78" x="22.627" y="42.5" fill="#3C9AF1" rx="39"/><path fill="#855CF9" fill-rule="evenodd" d="M296.568 164.5c-7.317 0-13.25 5.932-13.25 13.25s5.933 13.25 13.25 13.25h102.37c7.318 0 13.25-5.932 13.25-13.25s-5.932-13.25-13.25-13.25zm-.215 19c3.124 0 5.656-2.574 5.656-5.75s-2.532-5.75-5.656-5.75-5.657 2.574-5.657 5.75 2.533 5.75 5.657 5.75m.215-61c-7.317 0-13.25 5.932-13.25 13.25s5.933 13.25 13.25 13.25h102.37c7.318 0 13.25-5.932 13.25-13.25s-5.932-13.25-13.25-13.25zm-.215 19c3.124 0 5.656-2.574 5.656-5.75s-2.532-5.75-5.656-5.75-5.657 2.574-5.657 5.75 2.533 5.75 5.657 5.75m.215-60.5c-7.317 0-13.25 5.932-13.25 13.25s5.933 13.25 13.25 13.25h102.37c7.318 0 13.25-5.932 13.25-13.25S406.256 81 398.938 81zm-.215 19c3.124 0 5.656-2.574 5.656-5.75s-2.532-5.75-5.656-5.75-5.657 2.574-5.657 5.75 2.533 5.75 5.657 5.75" clip-rule="evenodd"/></svg>