<svg xmlns="http://www.w3.org/2000/svg" fill="none" viewBox="0 0 24 24" stroke="inherit"><path fill="#FEFDFB" fill-rule="evenodd" d="M15 1a1 1 0 0 1 .933.641l1.179 3.064c.3.781.395 1.007.524 1.188a2 2 0 0 0 .47.471c.182.13.407.224 1.189.524l3.064 1.179a1 1 0 0 1 0 1.866l-3.064 1.179c-.782.3-1.007.395-1.188.524q-.274.197-.471.47c-.13.182-.224.408-.524 1.189l-1.179 3.064a1 1 0 0 1-1.866 0l-1.179-3.064c-.3-.781-.395-1.007-.524-1.188a2 2 0 0 0-.47-.471c-.182-.13-.408-.224-1.189-.524L7.641 9.933a1 1 0 0 1 0-1.866l3.064-1.179c.781-.3 1.007-.395 1.188-.524a2 2 0 0 0 .471-.47c.13-.182.224-.408.524-1.189l1.179-3.064A1 1 0 0 1 15 1m0 3.786-.245.637-.04.102c-.243.635-.427 1.114-.72 1.527a4 4 0 0 1-.943.942c-.413.294-.892.478-1.527.722l-.102.039-.637.245.637.245.102.04c.635.243 1.114.427 1.527.72a4 4 0 0 1 .942.943c.294.413.478.892.722 1.527l.039.102.245.637.245-.637.04-.102c.243-.635.427-1.114.72-1.527a4 4 0 0 1 .943-.942c.413-.294.892-.478 1.526-.722l.103-.039.637-.245-.637-.245-.103-.04c-.634-.243-1.113-.427-1.526-.72a4 4 0 0 1-.942-.943c-.294-.413-.478-.892-.722-1.527l-.039-.102zM6.5 12a1 1 0 0 1 .894.553l.785 1.569c.282.565.368.727.473.863a2 2 0 0 0 .363.363c.136.104.298.19.863.473l1.57.785a1 1 0 0 1 0 1.788l-1.57.785c-.565.282-.727.369-.863.473a2 2 0 0 0-.363.363c-.105.136-.19.298-.473.863l-.785 1.57a1 1 0 0 1-1.788 0l-.785-1.57c-.282-.565-.368-.727-.473-.863a2 2 0 0 0-.363-.363c-.136-.105-.298-.19-.863-.473l-1.57-.785a1 1 0 0 1 0-1.788l1.57-.785c.565-.282.727-.368.863-.473a2 2 0 0 0 .363-.363c.105-.136.19-.298.473-.863l.785-1.57A1 1 0 0 1 6.5 12m0 3.236c-.195.39-.356.695-.568.97q-.317.41-.726.726c-.275.212-.58.373-.97.568.39.195.695.356.97.568q.41.317.726.726c.212.275.373.58.568.97.195-.39.356-.695.568-.97q.317-.41.726-.726c.275-.212.58-.373.97-.568-.39-.195-.695-.356-.97-.568a4 4 0 0 1-.726-.726c-.212-.275-.373-.58-.568-.97" clip-rule="evenodd"/></svg>