<svg xmlns="http://www.w3.org/2000/svg" fill="none" viewBox="0 0 12 12" stroke="inherit"><g clip-path="url(#a)"><path fill="#807B78" fill-rule="evenodd" d="M4.5.5A.5.5 0 0 1 5 1v1a.5.5 0 0 1-1 0V1a.5.5 0 0 1 .5-.5m2.207 1.257a2.5 2.5 0 1 1 3.536 3.536l-1.061 1.06a.5.5 0 1 1-.707-.707l1.06-1.06a1.5 1.5 0 0 0-2.12-2.122L6.353 3.525a.5.5 0 1 1-.708-.707zm-5.31-.36a.5.5 0 0 1 .707 0l.707.707a.5.5 0 0 1-.707.707l-.708-.707a.5.5 0 0 1 0-.708M.5 4.5A.5.5 0 0 1 1 4h1a.5.5 0 0 1 0 1H1a.5.5 0 0 1-.5-.5m3.025 1.146a.5.5 0 0 1 0 .708l-1.06 1.06a1.5 1.5 0 1 0 2.12 2.122l1.061-1.061a.5.5 0 1 1 .708.707l-1.061 1.06a2.5 2.5 0 1 1-3.536-3.535l1.061-1.06a.5.5 0 0 1 .707 0M9.5 7.5A.5.5 0 0 1 10 7h1a.5.5 0 0 1 0 1h-1a.5.5 0 0 1-.5-.5m-.31 1.69a.5.5 0 0 1 .706 0l.708.706a.5.5 0 0 1-.708.708l-.707-.708a.5.5 0 0 1 0-.707M7.5 9.5a.5.5 0 0 1 .5.5v1a.5.5 0 0 1-1 0v-1a.5.5 0 0 1 .5-.5" clip-rule="evenodd"/></g><defs><clipPath id="a"><path fill="#fff" d="M0 0h12v12H0z"/></clipPath></defs></svg>