<svg xmlns="http://www.w3.org/2000/svg" fill="none" viewBox="0 0 16 16" stroke="inherit"><path fill="#A6A19E" fill-rule="evenodd" d="M4.108 1.333h7.784c.352 0 .655 0 .905.02.263.022.525.07.778.198a2 2 0 0 1 .874.874c.128.253.176.515.197.778.02.25.02.553.02.905v.451c0 .351 0 .655-.02.904a2 2 0 0 1-.197.778 2 2 0 0 1-.874.874 2 2 0 0 1-.778.198c-.25.02-.553.02-.905.02H4.108c-.352 0-.655 0-.905-.02a2 2 0 0 1-.778-.198 2 2 0 0 1-.874-.874 2 2 0 0 1-.197-.778c-.02-.25-.02-.553-.02-.904v-.451c0-.352 0-.655.02-.905.021-.263.069-.525.197-.778a2 2 0 0 1 .874-.874c.253-.128.515-.176.778-.197.25-.02.553-.02.905-.02m-.796 1.35c-.181.014-.248.04-.281.056a.67.67 0 0 0-.292.292c-.016.033-.042.1-.056.28-.016.19-.016.438-.016.822v.4c0 .385 0 .633.016.822.014.18.04.248.056.281a.67.67 0 0 0 .292.291c.033.017.1.042.28.057.19.015.438.016.822.016h7.734c.384 0 .632 0 .821-.016.181-.015.248-.04.281-.057a.67.67 0 0 0 .292-.291c.017-.033.042-.1.056-.281.016-.19.016-.437.016-.822v-.4c0-.384 0-.632-.016-.821-.014-.181-.04-.248-.056-.281a.67.67 0 0 0-.292-.292c-.033-.016-.1-.042-.28-.056a11 11 0 0 0-.822-.016H4.133c-.384 0-.632 0-.821.016m.796 5.984h7.784c.352 0 .655 0 .905.02.263.022.525.07.778.198a2 2 0 0 1 .874.874c.128.252.176.514.197.778.02.25.02.552.02.904v.451c0 .352 0 .655-.02.905a2 2 0 0 1-.197.778 2 2 0 0 1-.874.874 2 2 0 0 1-.778.197c-.25.02-.553.02-.905.02H4.108c-.352 0-.655 0-.905-.02a2 2 0 0 1-.778-.197 2 2 0 0 1-.874-.874 2 2 0 0 1-.197-.778c-.02-.25-.02-.553-.02-.905v-.451c0-.352 0-.655.02-.904.021-.264.069-.526.197-.778a2 2 0 0 1 .874-.874c.253-.129.515-.176.778-.198.25-.02.553-.02.905-.02m-.796 1.349c-.181.015-.248.04-.281.057a.67.67 0 0 0-.292.291c-.016.033-.042.1-.056.281-.016.19-.016.437-.016.822v.4c0 .384 0 .632.016.821.014.181.04.248.056.281a.67.67 0 0 0 .292.292c.033.016.1.042.28.056.19.016.438.016.822.016h7.734c.384 0 .632 0 .821-.016.181-.014.248-.04.281-.056a.67.67 0 0 0 .292-.292c.017-.033.042-.1.056-.28.016-.19.016-.438.016-.822v-.4c0-.385 0-.633-.016-.822-.014-.18-.04-.248-.056-.281a.67.67 0 0 0-.292-.291c-.033-.017-.1-.042-.28-.057a11 11 0 0 0-.822-.016H4.133c-.384 0-.632 0-.821.016" clip-rule="evenodd"/></svg>