<svg xmlns="http://www.w3.org/2000/svg" fill="none" viewBox="0 0 32 32" stroke="inherit"><path fill="#A6A19E" fill-rule="evenodd" d="M20.5 15.4h-9A1.6 1.6 0 0 0 9.9 17v2a1.6 1.6 0 0 0 1.6 1.6h9a1.6 1.6 0 0 0 1.6-1.6v-2a1.6 1.6 0 0 0-1.6-1.6m-9-1.4a3 3 0 0 0-3 3v2a3 3 0 0 0 3 3h9a3 3 0 0 0 3-3v-2a3 3 0 0 0-3-3z" clip-rule="evenodd"/><path fill="#A6A19E" d="M10.5 10.5a.5.5 0 0 1 .5-.5h1a.5.5 0 0 1 .5.5v1a.5.5 0 0 1-.5.5h-1a.5.5 0 0 1-.5-.5zm3 0a.5.5 0 0 1 .5-.5h1a.5.5 0 0 1 .5.5v1a.5.5 0 0 1-.5.5h-1a.5.5 0 0 1-.5-.5zm3 0a.5.5 0 0 1 .5-.5h1a.5.5 0 0 1 .5.5v1a.5.5 0 0 1-.5.5h-1a.5.5 0 0 1-.5-.5zm3 0a.5.5 0 0 1 .5-.5h1a.5.5 0 0 1 .5.5v1a.5.5 0 0 1-.5.5h-1a.5.5 0 0 1-.5-.5z"/></svg>