<svg xmlns="http://www.w3.org/2000/svg" fill="none" viewBox="0 0 32 32"><path fill="#A6A19E" fill-rule="evenodd" d="M12.108 9.334h.451c.352 0 .655 0 .904.02.264.021.526.069.778.197a2 2 0 0 1 .874.874c.129.253.176.515.198.778.02.25.02.553.02.905v7.784c0 .352 0 .655-.02.905-.022.263-.07.526-.198.778a2 2 0 0 1-.874.874 2 2 0 0 1-.778.197c-.25.02-.552.02-.904.02h-.451c-.352 0-.655 0-.905-.02a2 2 0 0 1-.778-.197 2 2 0 0 1-.874-.874 2 2 0 0 1-.197-.778c-.02-.25-.02-.553-.02-.905v-7.784c0-.352 0-.655.02-.905.021-.263.069-.525.197-.777a2 2 0 0 1 .874-.875c.253-.128.515-.176.778-.197.25-.02.553-.02.905-.02m-.796 1.349c-.181.015-.248.04-.281.056a.67.67 0 0 0-.292.292c-.016.033-.042.1-.056.281-.016.189-.016.437-.016.822v7.733c0 .384 0 .632.016.821.014.181.04.248.056.282a.67.67 0 0 0 .292.29c.033.018.1.043.28.057.19.016.438.017.822.017h.4c.385 0 .633-.001.822-.017.18-.014.248-.04.281-.056a.67.67 0 0 0 .291-.291c.017-.034.042-.1.057-.282.015-.189.016-.437.016-.821v-7.734c0-.384 0-.632-.016-.82-.015-.182-.04-.25-.057-.282a.67.67 0 0 0-.291-.292c-.033-.016-.1-.041-.281-.056a11 11 0 0 0-.822-.016h-.4c-.384 0-.632 0-.821.016m8.129-1.35h.451c.352 0 .655 0 .905.02.263.022.525.07.778.198a2 2 0 0 1 .874.874c.128.253.176.515.197.778.02.25.02.553.02.905v7.784c0 .352 0 .655-.02.905a2 2 0 0 1-.197.778 2 2 0 0 1-.874.874 2 2 0 0 1-.778.197c-.25.02-.553.02-.905.02h-.451c-.351 0-.655 0-.904-.02a2 2 0 0 1-.778-.197 2 2 0 0 1-.874-.874 2 2 0 0 1-.198-.778c-.02-.25-.02-.553-.02-.905v-7.784c0-.352 0-.655.02-.905.022-.263.07-.525.198-.777a2 2 0 0 1 .874-.875c.252-.128.514-.176.778-.197.25-.02.553-.02.904-.02m-.796 1.35c-.18.015-.248.04-.281.056a.67.67 0 0 0-.291.292c-.017.033-.042.1-.057.281a12 12 0 0 0-.016.822v7.733c0 .384 0 .632.016.821.015.181.04.248.057.282a.67.67 0 0 0 .291.29c.033.018.1.043.281.057.19.016.437.017.822.017h.4c.384 0 .632-.001.821-.017.181-.014.248-.04.281-.056a.67.67 0 0 0 .292-.291c.017-.034.042-.1.056-.282.016-.189.016-.437.016-.821v-7.734c0-.384 0-.632-.016-.82-.014-.182-.04-.25-.056-.282a.67.67 0 0 0-.292-.292c-.033-.016-.1-.041-.28-.056a11 11 0 0 0-.822-.016h-.4c-.385 0-.633 0-.822.016" clip-rule="evenodd"/></svg>